<?xml version="1.0" encoding="utf-8"?>
<!-- Generator: Adobe Illustrator 15.0.1, SVG Export Plug-In . SVG Version: 6.00 Build 0)  -->
<!DOCTYPE svg PUBLIC "-//W3C//DTD SVG 1.1//EN" "http://www.w3.org/Graphics/SVG/1.1/DTD/svg11.dtd">
<svg version="1.1" xmlns="http://www.w3.org/2000/svg" xmlns:xlink="http://www.w3.org/1999/xlink" x="0px" y="0px" width="1024px"
	 height="768px" viewBox="0 0 1024 768" enable-background="new 0 0 1024 768" xml:space="preserve">
<g id="Chi_siamo">
	<g id="MASCHERINA_2_">
		<image overflow="visible" width="1780" height="1888" xlink:href="1BF765E8.png"  transform="matrix(0.24 0 0 0.24 -60 -60)">
		</image>
		<g>
			<rect fill="#FFFFFF" width="307" height="333"/>
		</g>
	</g>
	<g>
		<g>
			<radialGradient id="Banda_gialla_11_" cx="150.5" cy="63.6167" r="105.605" gradientUnits="userSpaceOnUse">
				<stop  offset="0" style="stop-color:#FFFF04"/>
				<stop  offset="1" style="stop-color:#E3D904"/>
			</radialGradient>
			<polygon id="Banda_gialla" fill="url(#Banda_gialla_11_)" points="7,22.233 7,46 49,46 49,105 95,105 95,46 294,46 294,22.233 
							"/>
			<g id="Icona_CHI_SIAMO" opacity="0.3">
				<radialGradient id="SVGID_1_" cx="71.8008" cy="89.0771" r="12.2359" gradientUnits="userSpaceOnUse">
					<stop  offset="0" style="stop-color:#29AAE1"/>
					<stop  offset="1" style="stop-color:#298CF5"/>
				</radialGradient>
				<path fill-rule="evenodd" clip-rule="evenodd" fill="url(#SVGID_1_)" d="M72.883,80.678h-8.84
					c-8.971,0.1-7.236,16.799-7.236,16.799h5.611v-5.295v-0.9c0,0,0.756-0.905,1.404,0.056v6.14h15.955v-6.14h1.385l0.021,0.845
					v5.295h5.611c0,0,1.734-16.699-7.236-16.799h-7.766"/>
				<radialGradient id="SVGID_2_" cx="71.5938" cy="72.7979" r="6.3672" gradientUnits="userSpaceOnUse">
					<stop  offset="0" style="stop-color:#29AAE1"/>
					<stop  offset="1" style="stop-color:#298CF5"/>
				</radialGradient>
				<ellipse fill-rule="evenodd" clip-rule="evenodd" fill="url(#SVGID_2_)" cx="71.594" cy="72.798" rx="6.383" ry="6.352"/>
			</g>
			
				<radialGradient id="Freccia_blu_10_" cx="260.373" cy="936.7822" r="9.8257" gradientTransform="matrix(0.7071 0.7071 -0.7071 0.7071 550.6572 -800.5088)" gradientUnits="userSpaceOnUse">
				<stop  offset="0" style="stop-color:#103B7A"/>
				<stop  offset="0.0134" style="stop-color:#103B79"/>
				<stop  offset="1" style="stop-color:#0A264E"/>
			</radialGradient>
			<polygon id="Freccia_blu" fill="url(#Freccia_blu_10_)" points="86.264,46 72.368,59.896 58.473,46 			"/>
		</g>
		<text transform="matrix(1 0 0 1 199.001 40)" fill="#0A2651" font-family="'NeoSans-Bold'" font-size="13">CHI SIAMO</text>
	</g>
</g>
<g id="Progetti">
	<g id="MASCHERINA_1_">
		
			<image overflow="visible" width="1780" height="1888" xlink:href="1BF765E9.png"  transform="matrix(0.24 0 0 0.24 -59.9375 -59.9995)">
		</image>
		<g>
			<rect x="0.062" y="0" fill="#FFFFFF" width="307" height="333"/>
		</g>
	</g>
	<g id="PROGETTI">
		<radialGradient id="Banda_gialla_12_" cx="151.1675" cy="63.4146" r="105.605" gradientUnits="userSpaceOnUse">
			<stop  offset="0" style="stop-color:#FFFF04"/>
			<stop  offset="1" style="stop-color:#E3D904"/>
		</radialGradient>
		<polygon id="Banda_gialla_1_" fill="url(#Banda_gialla_12_)" points="7.667,22.031 7.667,45.798 106.667,45.798 106.667,104.798 
			152.667,104.798 152.667,45.798 294.667,45.798 294.667,22.031 		"/>
		
			<radialGradient id="Freccia_blu_11_" cx="301.312" cy="895.5566" r="9.8259" gradientTransform="matrix(0.7071 0.7071 -0.7071 0.7071 550.6572 -800.5088)" gradientUnits="userSpaceOnUse">
			<stop  offset="0" style="stop-color:#103B7A"/>
			<stop  offset="0.0134" style="stop-color:#103B79"/>
			<stop  offset="1" style="stop-color:#0A264E"/>
		</radialGradient>
		<polygon id="Freccia_blu_1_" fill="url(#Freccia_blu_11_)" points="144.362,45.798 130.466,59.693 116.571,45.798 		"/>
		<g id="ICONA_PROGETTI" opacity="0.3">
			<g>
				<radialGradient id="SVGID_3_" cx="126.4888" cy="85.4502" r="12.1418" gradientUnits="userSpaceOnUse">
					<stop  offset="0" style="stop-color:#29AAE1"/>
					<stop  offset="1" style="stop-color:#298CF5"/>
				</radialGradient>
				<path fill="url(#SVGID_3_)" d="M136.908,86.804l1.785-0.505l-0.133-2.352l-1.838-0.391l-0.854-2.018l1.51-1.508l-1.049-1.829
					l-1.967,0.522l-1.336-1.219l0.285-2.045l-2.1-1.045l-1.576,1.436l-1.604-0.456l-0.756-2.024l-2.232,0.13l-0.523,2.091
					l-1.52,0.432l-2.023-1.347l-1.707,1.306l0.525,1.828l-1.443,1.437l-1.969-0.522l-1.18,2.219l1.705,1.309l-0.525,2.088
					l-2.1,0.391v2.221l2.232,0.523l0.488,1.878l-1.408,1.517l1.312,1.959l1.969-0.784l1.441,1.566l-0.523,1.959l2.1,1.045
					l1.441-1.696l1.84,0.521l0.523,2.091h2.363l0.523-2.091l1.969-0.392l1.707,1.828l1.914-1.314l-0.865-2.21l1.574-1.567
					l1.969,0.652l1.041-2.379l-1.566-1.145L136.908,86.804z M126.554,92.526c-3.926,0-7.111-3.17-7.111-7.079
					c0-3.908,3.186-7.077,7.111-7.077c3.93,0,7.113,3.169,7.113,7.077C133.667,89.356,130.484,92.526,126.554,92.526z"/>
				<radialGradient id="SVGID_4_" cx="124.2261" cy="87.4458" r="1.5921" gradientUnits="userSpaceOnUse">
					<stop  offset="0" style="stop-color:#29AAE1"/>
					<stop  offset="1" style="stop-color:#298CF5"/>
				</radialGradient>
				<path fill="url(#SVGID_4_)" d="M122.861,87.268l-0.234,0.066l0.016,0.308l0.242,0.052l0.111,0.265l-0.199,0.198l0.139,0.238
					l0.26-0.066l0.174,0.159l-0.037,0.269l0.275,0.137l0.205-0.188l0.211,0.059l0.102,0.267l0.291-0.019l0.068-0.273l0.201-0.058
					l0.266,0.179l0.223-0.173l-0.068-0.24l0.188-0.187l0.26,0.068l0.154-0.292l-0.225-0.171l0.07-0.273l0.273-0.052v-0.291
					l-0.293-0.069l-0.064-0.246l0.186-0.2l-0.172-0.255l-0.258,0.102l-0.189-0.205l0.07-0.258l-0.277-0.136l-0.188,0.222
					l-0.242-0.068l-0.068-0.273h-0.309l-0.07,0.273l-0.258,0.053l-0.225-0.242l-0.25,0.174l0.113,0.291l-0.207,0.205l-0.256-0.087
					l-0.139,0.313l0.205,0.149L122.861,87.268z M124.218,86.516c0.516,0,0.932,0.418,0.932,0.931c0,0.512-0.416,0.927-0.932,0.927
					s-0.936-0.415-0.936-0.927C123.283,86.934,123.703,86.516,124.218,86.516z"/>
				<radialGradient id="SVGID_5_" cx="126.0679" cy="83.6753" r="2.4934" gradientUnits="userSpaceOnUse">
					<stop  offset="0" style="stop-color:#29AAE1"/>
					<stop  offset="1" style="stop-color:#298CF5"/>
				</radialGradient>
				<path fill="url(#SVGID_5_)" d="M123.927,83.396l-0.365,0.105l0.027,0.481l0.375,0.08l0.176,0.415l-0.311,0.31l0.217,0.375
					l0.406-0.106l0.271,0.249l-0.059,0.42l0.432,0.214l0.322-0.293l0.33,0.093l0.154,0.417l0.459-0.027l0.109-0.43l0.311-0.088
					l0.418,0.275l0.35-0.268l-0.109-0.375l0.297-0.297l0.404,0.109l0.242-0.457l-0.352-0.269l0.109-0.429l0.432-0.08v-0.455
					l-0.459-0.107l-0.1-0.385l0.287-0.312l-0.27-0.402l-0.404,0.162l-0.295-0.323l0.107-0.401l-0.432-0.216l-0.295,0.349
					l-0.379-0.106l-0.105-0.43h-0.486l-0.107,0.43l-0.404,0.081l-0.35-0.377l-0.395,0.271l0.178,0.451l-0.322,0.324l-0.404-0.135
					l-0.213,0.488l0.32,0.235L123.927,83.396z M126.054,82.223c0.807,0,1.459,0.648,1.459,1.453c0,0.803-0.652,1.453-1.459,1.453
					s-1.463-0.65-1.463-1.453C124.591,82.871,125.248,82.223,126.054,82.223z"/>
				<radialGradient id="SVGID_6_" cx="128.7671" cy="88.1123" r="2.6861" gradientUnits="userSpaceOnUse">
					<stop  offset="0" style="stop-color:#29AAE1"/>
					<stop  offset="1" style="stop-color:#298CF5"/>
				</radialGradient>
				<path fill="url(#SVGID_6_)" d="M126.46,87.812l-0.393,0.112l0.027,0.52l0.406,0.086l0.189,0.447l-0.334,0.334l0.232,0.404
					l0.436-0.113l0.297,0.268l-0.064,0.453l0.465,0.23l0.348-0.318l0.354,0.101l0.168,0.45l0.496-0.029l0.115-0.465l0.336-0.094
					l0.447,0.298l0.377-0.29l-0.117-0.404l0.322-0.318l0.434,0.119l0.264-0.494l-0.379-0.287l0.115-0.463l0.465-0.087v-0.491
					l-0.492-0.115l-0.109-0.416l0.311-0.334l-0.289-0.434l-0.436,0.17l-0.32-0.344l0.115-0.435l-0.463-0.229l-0.318,0.373
					l-0.408-0.113l-0.115-0.463h-0.521l-0.117,0.463l-0.436,0.086l-0.377-0.404l-0.424,0.291l0.191,0.488l-0.348,0.348l-0.436-0.145
					l-0.23,0.525l0.346,0.254L126.46,87.812z M128.753,86.546c0.867,0,1.572,0.701,1.572,1.566c0,0.864-0.705,1.566-1.572,1.566
					c-0.869,0-1.574-0.702-1.574-1.566C127.179,87.247,127.884,86.546,128.753,86.546z"/>
				<radialGradient id="SVGID_7_" cx="140.5435" cy="73.2412" r="6.338" gradientUnits="userSpaceOnUse">
					<stop  offset="0" style="stop-color:#29AAE1"/>
					<stop  offset="1" style="stop-color:#298CF5"/>
				</radialGradient>
				<path fill="url(#SVGID_7_)" d="M135.103,72.535l-0.93,0.262l0.066,1.227l0.959,0.205l0.445,1.054l-0.787,0.787l0.549,0.954
					l1.027-0.271l0.697,0.636l-0.148,1.067l1.094,0.546l0.824-0.75l0.838,0.237l0.395,1.059l1.164-0.068l0.275-1.09l0.793-0.227
					l1.055,0.703l0.891-0.682l-0.273-0.955l0.754-0.75l1.025,0.273l0.619-1.16l-0.893-0.68l0.273-1.091l1.098-0.206v-1.157
					l-1.164-0.274l-0.256-0.979l0.734-0.792l-0.686-1.023l-1.025,0.411l-0.754-0.819l0.273-1.023l-1.096-0.543l-0.752,0.883
					l-0.961-0.271l-0.273-1.09h-1.232l-0.275,1.09l-1.025,0.205l-0.893-0.953l-1,0.686l0.453,1.155l-0.822,0.816l-1.027-0.342
					l-0.545,1.244l0.818,0.597L135.103,72.535z M140.507,69.547c2.053,0,3.713,1.654,3.713,3.695c0,2.04-1.66,3.693-3.713,3.693
					c-2.049,0-3.713-1.653-3.713-3.693C136.794,71.201,138.458,69.547,140.507,69.547z"/>
			</g>
		</g>
		<g id="TESTO">
			<path fill="#0A2651" d="M203.251,36.433c-0.312,0-0.729-0.026-1.053-0.039v3.159c0,0.143-0.117,0.26-0.261,0.26h-1.677
				c-0.143,0-0.26-0.104-0.26-0.247v-8.736c0-0.442,0.182-0.559,0.585-0.624c0.663-0.104,1.703-0.169,2.639-0.169
				c1.964,0,3.9,0.689,3.9,3.133v0.117C207.125,35.717,205.188,36.433,203.251,36.433z M204.915,33.169
				c0-0.923-0.572-1.287-1.664-1.287c-0.182,0-0.897,0.026-1.053,0.039v2.652c0.143,0.013,0.91,0.026,1.053,0.026
				c1.157,0,1.664-0.429,1.664-1.313V33.169z"/>
			<path fill="#0A2651" d="M215.731,39.812h-1.989c-0.144,0-0.195-0.13-0.261-0.26l-1.741-3.29l-0.144,0.013
				c-0.272,0-0.676-0.026-0.923-0.026v3.302c0,0.143-0.117,0.26-0.26,0.26h-1.69c-0.143,0-0.26-0.117-0.26-0.26v-8.724
				c0-0.442,0.182-0.559,0.585-0.624c0.598-0.091,1.703-0.169,2.639-0.169c2.21,0,3.913,0.741,3.913,3.042v0.169
				c0,1.378-0.728,2.223-1.677,2.6l1.963,3.667c0.026,0.052,0.039,0.104,0.039,0.143C215.926,39.748,215.874,39.812,215.731,39.812z
				 M213.391,33.078c0-0.793-0.61-1.157-1.703-1.157c-0.182,0-0.857,0.026-1.014,0.039v2.496c0.143,0.013,0.78,0.026,0.923,0.026
				c1.365,0,1.794-0.351,1.794-1.235V33.078z"/>
			<path fill="#0A2651" d="M220.931,39.93c-2.145,0-3.848-1.157-3.848-4.173v-1.547c0-3.016,1.703-4.173,3.848-4.173
				c2.146,0,3.849,1.157,3.849,4.173v1.547C224.779,38.772,223.076,39.93,220.931,39.93z M222.543,34.209
				c0-1.56-0.521-2.223-1.612-2.223s-1.599,0.663-1.599,2.223v1.547c0,1.56,0.507,2.223,1.599,2.223s1.612-0.663,1.612-2.223V34.209
				z"/>
			<path fill="#0A2651" d="M232.813,32.077c-0.014,0-0.026,0-0.039,0c-0.624-0.026-1.6-0.104-2.704-0.104
				c-1.054,0-1.703,0.507-1.703,2.21v1.625c0,1.794,0.818,2.21,1.456,2.21c0.363,0,0.688-0.013,1.001-0.039v-2.99
				c0-0.143,0.104-0.26,0.247-0.26h1.664c0.143,0,0.26,0.117,0.26,0.26v4.368c0,0.182-0.065,0.26-0.26,0.299
				c-0.702,0.143-1.612,0.273-2.912,0.273c-1.482,0-3.705-0.845-3.705-4.134v-1.612c0-3.315,2.066-4.147,3.952-4.147
				c1.3,0,2.235,0.195,2.717,0.299c0.13,0.026,0.221,0.078,0.221,0.195v1.378C233.008,32.051,232.93,32.077,232.813,32.077z"/>
			<path fill="#0A2651" d="M240.405,39.761c-0.455,0.065-1.118,0.169-2.522,0.169c-1.677,0-3.159-0.429-3.159-2.795v-4.316
				c0-2.366,1.495-2.782,3.172-2.782c1.404,0,2.055,0.104,2.51,0.169c0.182,0.026,0.26,0.091,0.26,0.26v1.209
				c0,0.143-0.117,0.26-0.26,0.26h-2.64c-0.611,0-0.832,0.208-0.832,0.884v1.183h3.367c0.143,0,0.26,0.117,0.26,0.26v1.235
				c0,0.143-0.117,0.26-0.26,0.26h-3.367v1.378c0,0.676,0.221,0.884,0.832,0.884h2.64c0.143,0,0.26,0.117,0.26,0.26v1.209
				C240.665,39.656,240.587,39.734,240.405,39.761z"/>
			<path fill="#0A2651" d="M248.426,31.986h-2.106v7.566c0,0.143-0.116,0.26-0.26,0.26h-1.703c-0.143,0-0.26-0.117-0.26-0.26v-7.566
				h-2.119c-0.143,0-0.26-0.104-0.26-0.247V30.4c0-0.143,0.117-0.247,0.26-0.247h6.448c0.144,0,0.273,0.104,0.273,0.247v1.339
				C248.699,31.882,248.569,31.986,248.426,31.986z"/>
			<path fill="#0A2651" d="M256.057,31.986h-2.106v7.566c0,0.143-0.116,0.26-0.26,0.26h-1.703c-0.143,0-0.26-0.117-0.26-0.26v-7.566
				h-2.119c-0.143,0-0.26-0.104-0.26-0.247V30.4c0-0.143,0.117-0.247,0.26-0.247h6.448c0.144,0,0.273,0.104,0.273,0.247v1.339
				C256.33,31.882,256.2,31.986,256.057,31.986z"/>
			<path fill="#0A2651" d="M259.54,39.812h-1.742c-0.143,0-0.233-0.117-0.233-0.26V30.4c0-0.143,0.091-0.247,0.233-0.247h1.742
				c0.144,0,0.247,0.104,0.247,0.247v9.152C259.787,39.695,259.684,39.812,259.54,39.812z"/>
		</g>
	</g>
</g>
<g id="BUSINESS_CARD">
	<g id="MASCHERINA">
		
			<image overflow="visible" width="1780" height="1888" xlink:href="1BF765EF.png"  transform="matrix(0.24 0 0 0.24 -59.917 -59.999)">
		</image>
		<g>
			<rect x="0.083" y="0.001" fill="#FFFFFF" width="307" height="332.999"/>
		</g>
	</g>
	<g>
		<radialGradient id="Banda_gialla_13_" cx="151.1675" cy="63.5049" r="105.605" gradientUnits="userSpaceOnUse">
			<stop  offset="0" style="stop-color:#FFFF04"/>
			<stop  offset="1" style="stop-color:#E3D904"/>
		</radialGradient>
		<polygon id="Banda_gialla_2_" fill="url(#Banda_gialla_13_)" points="7.667,22.122 7.667,45.888 161.667,45.888 161.667,104.888 
			207.667,104.888 207.667,45.888 294.667,45.888 294.667,22.122 		"/>
		
			<radialGradient id="Freccia_blu_12_" cx="340.0508" cy="856.9463" r="9.8257" gradientTransform="matrix(0.7071 0.7071 -0.7071 0.7071 550.6572 -800.5088)" gradientUnits="userSpaceOnUse">
			<stop  offset="0" style="stop-color:#103B7A"/>
			<stop  offset="0.0134" style="stop-color:#103B79"/>
			<stop  offset="1" style="stop-color:#0A264E"/>
		</radialGradient>
		<polygon id="Freccia_blu_2_" fill="url(#Freccia_blu_12_)" points="199.056,45.888 185.161,59.784 171.265,45.888 		"/>
		<g id="ICONA_CONTATTI" opacity="0.3">
			<radialGradient id="SVGID_8_" cx="197.5371" cy="80.1416" r="6.8176" gradientUnits="userSpaceOnUse">
				<stop  offset="0" style="stop-color:#29AAE1"/>
				<stop  offset="1" style="stop-color:#298CF5"/>
			</radialGradient>
			<path fill="url(#SVGID_8_)" d="M203.448,72.541L203.448,72.541c0,0-11.297,4.857-11.814,6.707
				c-0.514,1.849,6.205,6.006,6.205,6.006l-1.469,0.799c0,0,0.043,2.015,2.141,1.645l4.959-1.271"/>
			<path fill="#BFE9FF" d="M191.608,79.146c0,0,0.611-1.576,2.867-1.008c0,0,3.928,3.891,4.301,6.771c0,0,0.291,2.294-2.57,1.339
				c-2.861-0.953-2.117-2.684-2.117-2.684l-2.48-4.307"/>
			<radialGradient id="SVGID_9_" cx="185.7891" cy="88.2021" r="8.172" gradientUnits="userSpaceOnUse">
				<stop  offset="0" style="stop-color:#29AAE1"/>
				<stop  offset="1" style="stop-color:#298CF5"/>
			</radialGradient>
			<path fill="url(#SVGID_9_)" d="M193.42,90.035c2.227-0.393,1.357-2.732,1.357-2.732l-8.246-3.16l-2.625-2.359l0.117-0.633
				l-6.342,1.015c0,0,0.193,6.972-1.049,8.7l2.73,1.262l10.258,3.128c0,0,1.049-0.109,0.992-1.372c0,0,1.377,0.068,1.441-1.482
				C192.055,92.4,194.075,91.88,193.42,90.035c0,0-2.449-2.116-3.832-1.834"/>
			<radialGradient id="SVGID_10_" cx="189.1221" cy="83.2939" r="6.9135" gradientUnits="userSpaceOnUse">
				<stop  offset="0" style="stop-color:#29AAE1"/>
				<stop  offset="1" style="stop-color:#298CF5"/>
			</radialGradient>
			<path fill="url(#SVGID_10_)" d="M197.825,85.115c0,0-3.129-7.916-6.217-5.969c0,0-0.912,1.017-1.545,1.125
				c-0.633,0.109-3.977-0.63-4.742-0.219c-0.77,0.412-3.613,2.908-3.75,3.375c-0.139,0.465-0.332,1.537-0.193,1.688
				c0,0-1.463,1.908-0.773,2.402c0.689,0.492,1.848,0.082,2.068-0.109c0.221-0.193,2.178-3.707,3.859-3.266l8.301,3.072
				c0,0,0.662-0.988,0.801-0.988C195.77,86.226,197.231,85.953,197.825,85.115z"/>
			<radialGradient id="SVGID_11_" cx="184.0527" cy="93.4531" r="5.0289" gradientUnits="userSpaceOnUse">
				<stop  offset="0" style="stop-color:#29AAE1"/>
				<stop  offset="1" style="stop-color:#298CF5"/>
			</radialGradient>
			<path fill="url(#SVGID_11_)" d="M186.469,96.292c0,0,0.01,0.015,0.027,0.04c0.127,0.198,0.738,1.002,1.959,0.494
				c1.387-0.578,1.613-2.594,1.613-2.594s0.643-2.346-0.703-1.954c0,0,0.455-0.978,0.496-1.472c0.043-0.494-0.732-1.226-1.611-0.721
				c-0.879,0.503-1.139,1.286-1.139,1.286s-1.17-1.167-2.578-0.11l-1.268,1.262c0,0,0.082-0.492-0.855-0.727
				c-0.938-0.232-1.953,0.611-2.881,0.381l-0.814-0.311l-0.832-0.426c0,0-0.135,2.345,3.658,4.404c0,0,0.979,0.082,2.025-0.098
				c0,0,0.402,1.25,1.973,0.934L186.469,96.292z"/>
			<radialGradient id="SVGID_12_" cx="185.189" cy="93.6045" r="2.0837" gradientUnits="userSpaceOnUse">
				<stop  offset="0" style="stop-color:#29AAE1"/>
				<stop  offset="1" style="stop-color:#298CF5"/>
			</radialGradient>
			<path fill="url(#SVGID_12_)" d="M187.112,91.372c0,0-1.604,3.894-3.846,4.466"/>
			<radialGradient id="SVGID_13_" cx="181.5337" cy="93.6353" r="1.4558" gradientUnits="userSpaceOnUse">
				<stop  offset="0" style="stop-color:#29AAE1"/>
				<stop  offset="1" style="stop-color:#298CF5"/>
			</radialGradient>
			<path fill="url(#SVGID_13_)" d="M183.266,92.523c0,0-1.564,2.174-3.465,2.225"/>
			<radialGradient id="SVGID_14_" cx="187.9019" cy="94.3047" r="1.7679" gradientUnits="userSpaceOnUse">
				<stop  offset="0" style="stop-color:#29AAE1"/>
				<stop  offset="1" style="stop-color:#298CF5"/>
			</radialGradient>
			<path fill="url(#SVGID_14_)" d="M189.366,92.278c0,0-1.422,3.184-2.928,4.054"/>
			<path fill="#BFE9FF" d="M176.116,81.657h1.555c0,0,0.637,4.747-0.318,7.472c-0.951,2.723-1.236,3.451-1.236,3.451h-1.303
				L176.116,81.657z"/>
			<radialGradient id="SVGID_15_" cx="171.6914" cy="87.7432" r="6.4986" gradientUnits="userSpaceOnUse">
				<stop  offset="0" style="stop-color:#29AAE1"/>
				<stop  offset="1" style="stop-color:#298CF5"/>
			</radialGradient>
			<path fill="url(#SVGID_15_)" d="M166.411,80.222c0,0,8.027,0.934,9.543,0.992c1.516,0.057,0.879,2.954,0.924,3.422l-1.912,9.272
				c0,0-0.49,1.384-1.965,1.355l-6.59-0.959"/>
		</g>
		<text transform="matrix(1 0 0 1 160.5015 39.8799)" fill="#0A2651" font-family="'NeoSans-Bold'" font-size="13">BUSINESS CARD</text>
	</g>
</g>
<g id="_x40_CATTIDSAPIENZA">
	<g id="MASCHERINA_3_">
		
			<image overflow="visible" width="1780" height="1888" xlink:href="1BF765EA.png"  transform="matrix(0.24 0 0 0.24 -59.917 -59.9985)">
		</image>
		<g>
			<rect x="0.083" y="0.001" fill="#FFFFFF" width="307" height="332.999"/>
		</g>
	</g>
	<g>
		<radialGradient id="Banda_gialla_14_" cx="151.1675" cy="63.4917" r="105.605" gradientUnits="userSpaceOnUse">
			<stop  offset="0" style="stop-color:#FFFF04"/>
			<stop  offset="1" style="stop-color:#E3D904"/>
		</radialGradient>
		<polygon id="Banda_gialla_3_" fill="url(#Banda_gialla_14_)" points="7.667,22.108 7.667,45.875 218.667,45.875 218.667,104.875 
			264.667,104.875 264.667,45.875 294.667,45.875 294.667,22.108 		"/>
		
			<radialGradient id="Freccia_blu_13_" cx="380.1138" cy="816.8652" r="9.8254" gradientTransform="matrix(0.7071 0.7071 -0.7071 0.7071 550.6572 -800.5088)" gradientUnits="userSpaceOnUse">
			<stop  offset="0" style="stop-color:#103B7A"/>
			<stop  offset="0.0134" style="stop-color:#103B79"/>
			<stop  offset="1" style="stop-color:#0A264E"/>
		</radialGradient>
		<polygon id="Freccia_blu_3_" fill="url(#Freccia_blu_13_)" points="255.726,45.875 241.831,59.771 227.935,45.875 		"/>
		<radialGradient id="ICONA_7_" cx="242.5239" cy="84.7471" r="15.5128" gradientUnits="userSpaceOnUse">
			<stop  offset="0" style="stop-color:#29AAE1"/>
			<stop  offset="1" style="stop-color:#298CF5"/>
		</radialGradient>
		<path id="ICONA" opacity="0.3" fill="url(#ICONA_7_)" d="M260.613,83.785c-1.275,0.217-3.121-0.009-4.098-0.414
			c2.033-0.168,3.408-1.086,3.939-2.334c-0.732,0.448-3.01,0.937-4.264,0.47c-0.062-0.292-0.131-0.571-0.201-0.825
			c-0.955-3.5-4.232-6.322-7.666-5.981c0.275-0.11,0.557-0.214,0.842-0.31c0.375-0.136,2.592-0.494,2.244-1.273
			c-0.297-0.686-3.004,0.516-3.516,0.675c0.674-0.251,1.787-0.686,1.906-1.458c-1.031,0.144-2.043,0.629-2.826,1.334
			c0.283-0.302,0.496-0.672,0.541-1.069c-2.752,1.753-4.361,5.283-5.66,8.71c-1.021-0.988-1.93-1.764-2.742-2.197
			c-2.277-1.215-5.004-2.485-9.279-4.067c-0.131,1.409,0.699,3.284,3.092,4.53c-0.52-0.07-1.465,0.087-2.225,0.266
			c0.311,1.617,1.318,2.946,4.051,3.59c-1.248,0.082-1.895,0.367-2.479,0.975c0.568,1.125,1.957,2.446,4.453,2.174
			c-2.775,1.191-1.131,3.4,1.127,3.069c-3.854,3.968-9.928,3.675-13.418,0.359c9.109,12.364,28.91,7.311,31.861-4.599
			C258.507,85.426,259.806,84.646,260.613,83.785z"/>
		<g id="TESTO_1_">
			<g>
				<path fill="#0A2651" d="M157.678,37.469c-0.824,0.631-2.035,0.859-3.592,0.859c-1.318,0-2.143-0.685-2.143-1.865
					c0-0.08,0-0.16,0.014-0.241l0.146-1.569c0.133-1.368,0.984-2.133,2.421-2.133c0.572,0,1.198,0.094,1.703,0.201
					c0.173,0.041,0.28,0.094,0.28,0.282c0,0.013,0,0.04,0,0.054l-0.4,4.197c1.664-0.24,1.943-1.435,1.943-3.111
					c0-1.689-1.078-3.111-3.273-3.111c-2.328,0-3.713,1.367-3.912,3.406l-0.199,2.039c-0.014,0.147-0.027,0.295-0.027,0.43
					c0,1.609,1.078,2.856,3.354,2.856c0.639,0,1.277-0.04,1.916-0.094h0.014c0.119,0,0.119,0.094,0.119,0.094v0.429
					c0,0.135-0.08,0.175-0.213,0.188c-0.346,0.041-1.051,0.107-1.85,0.107c-2.555,0-4.191-1.447-4.191-3.594
					c0-0.135,0-0.281,0.014-0.416L150,34.385c0.227-2.428,1.971-4.131,4.817-4.131c2.741,0,4.111,1.891,4.111,3.889
					C158.929,35.819,158.49,36.839,157.678,37.469z M154.418,33.485c-0.785,0-1.131,0.39-1.211,1.194l-0.146,1.529
					c-0.014,0.08-0.014,0.16-0.014,0.228c0,0.616,0.32,0.925,1.092,0.925c0.094,0,0.186,0,0.279,0c0.199,0,0.387,0,0.572-0.026
					l0.332-3.769C155.043,33.525,154.725,33.485,154.418,33.485z"/>
				<path fill="#0A2651" d="M166.043,39.944c-0.199,0.054-1.077,0.215-2.102,0.215c-1.598,0-3.766-0.792-3.766-4.104v-1.972
					c0-3.366,2.168-4.104,3.766-4.104c1.024,0,1.902,0.162,2.102,0.215c0.174,0.054,0.293,0.121,0.293,0.309V31.4
					c0,0.161-0.066,0.281-0.266,0.281c0,0-0.014,0-0.027,0c-0.465-0.039-1.37-0.106-2.075-0.106c-1.118,0-1.929,0.604-1.929,2.508
					v1.972c0,1.864,0.811,2.508,1.929,2.508c0.705,0,1.61-0.066,2.075-0.107c0.014,0,0.027,0,0.027,0
					c0.199,0,0.266,0.121,0.266,0.282v0.898C166.336,39.824,166.217,39.891,166.043,39.944z"/>
				<path fill="#0A2651" d="M175.035,40.052h-1.41c-0.119,0-0.227-0.107-0.253-0.228l-0.612-2.549h-3.061l-0.611,2.549
					c-0.027,0.12-0.133,0.228-0.253,0.228h-1.411c-0.133,0-0.238-0.094-0.238-0.228c0-0.014,0.013-0.041,0.013-0.067l2.183-8.409
					c0.318-1.248,1.277-1.369,1.85-1.369s1.529,0.121,1.85,1.369l2.182,8.409c0,0.026,0.014,0.054,0.014,0.067
					C175.275,39.958,175.168,40.052,175.035,40.052z M171.443,31.763c-0.041-0.161-0.08-0.214-0.213-0.214
					c-0.134,0-0.174,0.053-0.213,0.214l-0.959,3.983h2.342L171.443,31.763z"/>
				<path fill="#0A2651" d="M182.629,31.643h-2.328v8.141c0,0.148-0.119,0.269-0.266,0.269h-1.317c-0.147,0-0.267-0.12-0.267-0.269
					v-8.141h-2.328c-0.146,0-0.266-0.094-0.266-0.242v-1.059c0-0.148,0.119-0.256,0.266-0.256h6.506
					c0.146,0,0.268,0.107,0.268,0.256V31.4C182.896,31.549,182.775,31.643,182.629,31.643z"/>
				<path fill="#0A2651" d="M190.33,31.643h-2.328v8.141c0,0.148-0.119,0.269-0.266,0.269h-1.318c-0.146,0-0.266-0.12-0.266-0.269
					v-8.141h-2.328c-0.146,0-0.267-0.094-0.267-0.242v-1.059c0-0.148,0.12-0.256,0.267-0.256h6.506c0.146,0,0.266,0.107,0.266,0.256
					V31.4C190.596,31.549,190.477,31.643,190.33,31.643z"/>
				<path fill="#0A2651" d="M193.508,40.052h-1.317c-0.146,0-0.267-0.12-0.267-0.269v-9.441c0-0.148,0.12-0.256,0.267-0.256h1.317
					c0.146,0,0.266,0.107,0.266,0.256v9.441C193.773,39.932,193.654,40.052,193.508,40.052z"/>
				<path fill="#0A2651" d="M198.734,40.159c-0.943,0-2.221-0.095-2.621-0.161c-0.227-0.04-0.346-0.147-0.346-0.416v-9.026
					c0-0.269,0.119-0.376,0.346-0.415c0.4-0.068,1.678-0.162,2.621-0.162c2.662,0,4.179,1.449,4.179,4.104v1.972
					C202.913,38.711,201.396,40.159,198.734,40.159z M201.076,34.083c0-2.012-1.01-2.534-2.342-2.534
					c-0.492,0-0.838,0.026-1.117,0.039v6.961c0.279,0.014,0.625,0.041,1.117,0.041c1.332,0,2.342-0.523,2.342-2.535V34.083z"/>
				<path fill="#0A2651" d="M207.127,40.159c-0.997,0-1.716-0.095-2.354-0.241c-0.133-0.027-0.253-0.121-0.253-0.269v-0.966
					c0-0.147,0.12-0.255,0.253-0.255c0.013,0,0.013,0,0.026,0c0.533,0.067,1.863,0.134,2.355,0.134c1.184,0,1.543-0.429,1.543-1.207
					c0-0.523-0.252-0.791-1.131-1.314l-1.756-1.059c-1.238-0.738-1.57-1.516-1.57-2.455c0-1.476,0.852-2.549,3.326-2.549
					c0.879,0,2.102,0.135,2.555,0.242c0.133,0.026,0.24,0.121,0.24,0.254v0.993c0,0.134-0.094,0.241-0.227,0.241
					c-0.014,0-0.014,0-0.027,0c-0.877-0.08-1.756-0.134-2.621-0.134c-0.984,0-1.396,0.349-1.396,0.952
					c0,0.443,0.227,0.711,1.092,1.193l1.596,0.898c1.464,0.818,1.85,1.678,1.85,2.736C210.627,38.711,209.789,40.159,207.127,40.159
					z"/>
				<path fill="#0A2651" d="M219.326,40.052h-1.41c-0.121,0-0.227-0.107-0.254-0.228l-0.611-2.549h-3.061l-0.611,2.549
					c-0.027,0.12-0.134,0.228-0.254,0.228h-1.41c-0.133,0-0.239-0.094-0.239-0.228c0-0.014,0.013-0.041,0.013-0.067l2.182-8.409
					c0.32-1.248,1.278-1.369,1.85-1.369c0.572,0,1.531,0.121,1.85,1.369l2.184,8.409c0,0.026,0.013,0.054,0.013,0.067
					C219.565,39.958,219.459,40.052,219.326,40.052z M215.733,31.763c-0.04-0.161-0.08-0.214-0.214-0.214
					c-0.133,0-0.172,0.053-0.212,0.214l-0.958,3.983h2.342L215.733,31.763z"/>
				<path fill="#0A2651" d="M223.847,36.336c-0.347,0-0.878-0.039-1.185-0.053v3.5c0,0.148-0.105,0.269-0.252,0.269h-1.331
					c-0.146,0-0.267-0.12-0.267-0.269v-9.228c0-0.269,0.16-0.362,0.426-0.402c0.692-0.107,1.637-0.175,2.608-0.175
					c2.049,0,3.832,0.725,3.832,3.099v0.12C227.679,35.572,225.896,36.336,223.847,36.336z M225.842,33.077
					c0-1.126-0.664-1.556-1.995-1.556c-0.28,0-0.944,0.027-1.185,0.054v3.192c0.213,0.014,0.959,0.04,1.185,0.04
					c1.437,0,1.995-0.536,1.995-1.61V33.077z"/>
				<path fill="#0A2651" d="M230.723,40.052h-1.317c-0.146,0-0.267-0.12-0.267-0.269v-9.441c0-0.148,0.12-0.256,0.267-0.256h1.317
					c0.146,0,0.266,0.107,0.266,0.256v9.441C230.988,39.932,230.869,40.052,230.723,40.052z"/>
				<path fill="#0A2651" d="M238.584,39.971c-0.426,0.068-0.944,0.188-2.527,0.188c-1.73,0-3.074-0.47-3.074-2.749v-4.682
					c0-2.28,1.344-2.75,3.074-2.75c1.583,0,2.102,0.121,2.527,0.188c0.199,0.026,0.266,0.094,0.266,0.281v0.858
					c0,0.148-0.119,0.269-0.266,0.269h-2.714c-0.772,0-1.052,0.269-1.052,1.153v1.449h3.606c0.146,0,0.267,0.12,0.267,0.268v0.966
					c0,0.147-0.121,0.269-0.267,0.269h-3.606v1.73c0,0.885,0.279,1.152,1.052,1.152h2.714c0.146,0,0.266,0.121,0.266,0.269v0.858
					C238.85,39.877,238.783,39.944,238.584,39.971z"/>
				<path fill="#0A2651" d="M247.59,40.052h-1.344c-0.32,0-0.6,0-0.812-0.483l-2.953-6.531c-0.041-0.08-0.08-0.107-0.12-0.107
					s-0.066,0.027-0.066,0.107v6.746c0,0.148-0.106,0.269-0.253,0.269h-1.131c-0.146,0-0.266-0.12-0.266-0.269v-9.16
					c0-0.295,0.238-0.537,0.531-0.537h1.438c0.279,0,0.426,0.081,0.586,0.43l3.1,6.895c0.027,0.066,0.066,0.106,0.106,0.106
					c0.026,0,0.066-0.04,0.066-0.12v-7.055c0-0.148,0.106-0.256,0.253-0.256h1.145c0.146,0,0.252,0.107,0.252,0.256v9.174
					C248.121,39.811,247.883,40.052,247.59,40.052z"/>
				<path fill="#0A2651" d="M256.141,40.052h-5.814c-0.385,0-0.678-0.134-0.678-0.496v-0.737c0-0.162,0.039-0.309,0.172-0.51
					l4.219-6.371c0.026-0.041,0.039-0.08,0.039-0.121c0-0.066-0.039-0.107-0.133-0.107h-3.699c-0.146,0-0.252-0.094-0.252-0.241
					v-1.126c0-0.148,0.105-0.256,0.252-0.256h5.363c0.385,0,0.705,0.161,0.705,0.51v0.778c0,0.188-0.08,0.389-0.187,0.55
					l-4.151,6.264c-0.04,0.054-0.053,0.107-0.053,0.147c0,0.054,0.025,0.081,0.119,0.081h4.098c0.146,0,0.267,0.094,0.267,0.24
					v1.127C256.407,39.932,256.287,40.052,256.141,40.052z"/>
				<path fill="#0A2651" d="M265.039,40.052h-1.41c-0.119,0-0.227-0.107-0.252-0.228l-0.613-2.549h-3.061l-0.611,2.549
					c-0.026,0.12-0.133,0.228-0.252,0.228h-1.411c-0.133,0-0.239-0.094-0.239-0.228c0-0.014,0.014-0.041,0.014-0.067l2.182-8.409
					c0.318-1.248,1.277-1.369,1.85-1.369s1.529,0.121,1.85,1.369l2.182,8.409c0,0.026,0.014,0.054,0.014,0.067
					C265.279,39.958,265.173,40.052,265.039,40.052z M261.447,31.763c-0.04-0.161-0.08-0.214-0.213-0.214s-0.174,0.053-0.213,0.214
					l-0.958,3.983h2.342L261.447,31.763z"/>
			</g>
		</g>
	</g>
</g>
<g id="_x40_PER_POLY">
	<g id="MASCHERINA_4_">
		
			<image overflow="visible" width="1780" height="1888" xlink:href="1BF765EB.png"  transform="matrix(0.24 0 0 0.24 -59.917 -59.9961)">
		</image>
		<g>
			<rect x="0.083" y="0.004" fill="#FFFFFF" width="307" height="332.999"/>
		</g>
	</g>
	<g>
		<radialGradient id="Banda_gialla_15_" cx="151.168" cy="63.4941" r="105.605" gradientUnits="userSpaceOnUse">
			<stop  offset="0" style="stop-color:#FFFF04"/>
			<stop  offset="1" style="stop-color:#E3D904"/>
		</radialGradient>
		<polygon id="Banda_gialla_4_" fill="url(#Banda_gialla_15_)" points="7.667,22.111 7.667,45.877 218.668,45.877 218.668,104.877 
			264.668,104.877 264.668,45.877 294.668,45.877 294.668,22.111 		"/>
		
			<radialGradient id="Freccia_blu_14_" cx="380.1157" cy="816.8662" r="9.8259" gradientTransform="matrix(0.7071 0.7071 -0.7071 0.7071 550.6572 -800.5088)" gradientUnits="userSpaceOnUse">
			<stop  offset="0" style="stop-color:#103B7A"/>
			<stop  offset="0.0134" style="stop-color:#103B79"/>
			<stop  offset="1" style="stop-color:#0A264E"/>
		</radialGradient>
		<polygon id="Freccia_blu_4_" fill="url(#Freccia_blu_14_)" points="255.727,45.877 241.83,59.773 227.936,45.877 		"/>
		<radialGradient id="ICONA_8_" cx="242.5244" cy="84.7495" r="15.5128" gradientUnits="userSpaceOnUse">
			<stop  offset="0" style="stop-color:#29AAE1"/>
			<stop  offset="1" style="stop-color:#298CF5"/>
		</radialGradient>
		<path id="ICONA_1_" opacity="0.3" fill="url(#ICONA_8_)" d="M260.613,83.788c-1.275,0.217-3.121-0.009-4.098-0.414
			c2.033-0.168,3.408-1.086,3.939-2.334c-0.732,0.448-3.01,0.937-4.264,0.47c-0.062-0.292-0.131-0.571-0.201-0.825
			c-0.955-3.5-4.232-6.322-7.666-5.981c0.275-0.11,0.557-0.214,0.842-0.31c0.375-0.136,2.592-0.494,2.244-1.273
			c-0.297-0.686-3.004,0.516-3.516,0.675c0.674-0.251,1.787-0.686,1.906-1.458c-1.031,0.144-2.043,0.629-2.826,1.334
			c0.283-0.302,0.496-0.672,0.541-1.069c-2.752,1.753-4.361,5.283-5.66,8.71c-1.021-0.988-1.93-1.764-2.742-2.197
			c-2.277-1.215-5.004-2.485-9.279-4.067c-0.131,1.409,0.699,3.284,3.092,4.53c-0.52-0.07-1.465,0.087-2.225,0.266
			c0.311,1.617,1.318,2.946,4.051,3.59c-1.248,0.082-1.895,0.367-2.479,0.975c0.568,1.125,1.957,2.446,4.453,2.174
			c-2.775,1.191-1.131,3.4,1.127,3.069c-3.854,3.968-9.928,3.675-13.418,0.359c9.109,12.364,28.91,7.311,31.861-4.599
			C258.508,85.428,259.807,84.649,260.613,83.788z"/>
		<g>
			<g id="TESTO_2_">
				<g>
					<path fill="#0A2651" d="M212.08,37.471c-0.824,0.631-2.035,0.859-3.592,0.859c-1.318,0-2.143-0.685-2.143-1.865
						c0-0.08,0-0.16,0.014-0.241l0.146-1.569c0.133-1.368,0.984-2.133,2.42-2.133c0.572,0,1.199,0.094,1.703,0.201
						c0.174,0.041,0.281,0.094,0.281,0.282c0,0.013,0,0.04,0,0.054l-0.4,4.197c1.664-0.24,1.943-1.435,1.943-3.111
						c0-1.689-1.078-3.111-3.273-3.111c-2.328,0-3.713,1.367-3.912,3.406l-0.199,2.039c-0.014,0.147-0.027,0.295-0.027,0.43
						c0,1.609,1.078,2.856,3.354,2.856c0.639,0,1.277-0.04,1.916-0.094h0.014c0.119,0,0.119,0.094,0.119,0.094v0.429
						c0,0.135-0.08,0.175-0.213,0.188c-0.346,0.041-1.051,0.107-1.85,0.107c-2.555,0-4.191-1.447-4.191-3.594
						c0-0.135,0-0.281,0.014-0.416l0.199-2.092c0.227-2.428,1.971-4.131,4.816-4.131c2.742,0,4.111,1.891,4.111,3.889
						C213.33,35.822,212.893,36.841,212.08,37.471z M208.82,33.488c-0.785,0-1.131,0.39-1.211,1.194l-0.146,1.529
						c-0.014,0.08-0.014,0.16-0.014,0.228c0,0.616,0.32,0.925,1.092,0.925c0.094,0,0.186,0,0.279,0c0.199,0,0.387,0,0.572-0.026
						l0.332-3.769C209.445,33.528,209.127,33.488,208.82,33.488z"/>
				</g>
			</g>
			<text transform="matrix(1 0 0 1 214.5005 40)" fill="#0A2651" font-family="'NeoSans-Bold'" font-size="13">nyupoly</text>
		</g>
	</g>
</g>
<g id="_x40_DISCIENZA">
	<g id="MASCHERINA_5_">
		
			<image overflow="visible" width="1780" height="1888" xlink:href="1BF765E6.png"  transform="matrix(0.24 0 0 0.24 -59.917 -59.8926)">
		</image>
		<g>
			<rect x="0.083" y="0.107" fill="#FFFFFF" width="307" height="332.999"/>
		</g>
	</g>
	<g>
		<radialGradient id="Banda_gialla_16_" cx="151.168" cy="63.5977" r="105.605" gradientUnits="userSpaceOnUse">
			<stop  offset="0" style="stop-color:#FFFF04"/>
			<stop  offset="1" style="stop-color:#E3D904"/>
		</radialGradient>
		<polygon id="Banda_gialla_5_" fill="url(#Banda_gialla_16_)" points="7.667,22.214 7.667,45.981 218.668,45.981 218.668,104.981 
			264.668,104.981 264.668,45.981 294.668,45.981 294.668,22.214 		"/>
		
			<radialGradient id="Freccia_blu_15_" cx="380.189" cy="816.9395" r="9.8259" gradientTransform="matrix(0.7071 0.7071 -0.7071 0.7071 550.6572 -800.5088)" gradientUnits="userSpaceOnUse">
			<stop  offset="0" style="stop-color:#103B7A"/>
			<stop  offset="0.0134" style="stop-color:#103B79"/>
			<stop  offset="1" style="stop-color:#0A264E"/>
		</radialGradient>
		<polygon id="Freccia_blu_5_" fill="url(#Freccia_blu_15_)" points="255.727,45.981 241.83,59.876 227.936,45.981 		"/>
		<radialGradient id="ICONA_9_" cx="242.5244" cy="84.853" r="15.5128" gradientUnits="userSpaceOnUse">
			<stop  offset="0" style="stop-color:#29AAE1"/>
			<stop  offset="1" style="stop-color:#298CF5"/>
		</radialGradient>
		<path id="ICONA_2_" opacity="0.3" fill="url(#ICONA_9_)" d="M260.613,83.891c-1.275,0.217-3.121-0.009-4.098-0.414
			c2.033-0.168,3.408-1.086,3.939-2.334c-0.732,0.448-3.01,0.937-4.264,0.47c-0.062-0.292-0.131-0.571-0.201-0.825
			c-0.955-3.5-4.232-6.322-7.666-5.981c0.275-0.11,0.557-0.214,0.842-0.31c0.375-0.136,2.592-0.494,2.244-1.273
			c-0.297-0.686-3.004,0.516-3.516,0.675c0.674-0.251,1.787-0.686,1.906-1.458c-1.031,0.144-2.043,0.629-2.826,1.334
			c0.283-0.302,0.496-0.672,0.541-1.069c-2.752,1.753-4.361,5.283-5.66,8.71c-1.021-0.988-1.93-1.764-2.742-2.197
			c-2.277-1.215-5.004-2.485-9.279-4.067c-0.131,1.409,0.699,3.284,3.092,4.53c-0.52-0.07-1.465,0.087-2.225,0.266
			c0.311,1.617,1.318,2.946,4.051,3.59c-1.248,0.082-1.895,0.367-2.479,0.975c0.568,1.125,1.957,2.446,4.453,2.174
			c-2.775,1.191-1.131,3.4,1.127,3.069c-3.854,3.968-9.928,3.675-13.418,0.359c9.109,12.364,28.91,7.311,31.861-4.599
			C258.508,85.532,259.807,84.752,260.613,83.891z"/>
		<g>
			<path fill="#0A2651" d="M210.057,40.709c-1.078,0-2.235-0.104-2.769-0.195c-0.247-0.039-0.377-0.156-0.377-0.455v-8.593
				c0-0.299,0.13-0.416,0.377-0.455c0.533-0.091,1.69-0.195,2.769-0.195c2.588,0,4.147,1.365,4.147,4.108v1.677
				C214.204,39.344,212.645,40.709,210.057,40.709z M211.981,34.924c0-1.755-0.754-2.223-1.925-2.223
				c-0.324,0-0.74,0.013-0.923,0.026v6.071c0.183,0.013,0.599,0.026,0.923,0.026c1.171,0,1.925-0.468,1.925-2.223V34.924z"/>
			<path fill="#0A2651" d="M217.598,32.298h-1.69c-0.143,0-0.26-0.117-0.26-0.26v-1.209c0-0.143,0.117-0.26,0.26-0.26h1.69
				c0.143,0,0.26,0.117,0.26,0.26v1.209C217.857,32.181,217.74,32.298,217.598,32.298z M217.545,40.592h-1.586
				c-0.143,0-0.26-0.117-0.26-0.26v-6.929c0-0.143,0.117-0.26,0.26-0.26h1.586c0.144,0,0.261,0.117,0.261,0.26v6.929
				C217.806,40.475,217.688,40.592,217.545,40.592z"/>
			<path fill="#0A2651" d="M222.186,40.709c-1.026,0-1.794-0.117-2.457-0.286c-0.13-0.039-0.26-0.117-0.26-0.26v-1.274
				c0-0.182,0.104-0.247,0.234-0.247c0.013,0,0.025,0,0.039,0c0.532,0.052,1.963,0.156,2.47,0.156c0.897,0,1.157-0.286,1.157-0.91
				c0-0.377-0.183-0.585-0.858-0.988l-1.794-1.066c-1.209-0.715-1.534-1.534-1.534-2.483c0-1.43,0.806-2.535,3.328-2.535
				c0.949,0,2.263,0.156,2.756,0.286c0.104,0.026,0.195,0.091,0.195,0.234v1.313c0,0.117-0.052,0.221-0.221,0.221
				c0,0-0.014,0-0.026,0c-0.364-0.026-1.872-0.143-2.756-0.143c-0.741,0-1.014,0.221-1.014,0.689c0,0.364,0.169,0.533,0.87,0.91
				l1.664,0.897c1.353,0.728,1.756,1.586,1.756,2.639C225.735,39.24,224.825,40.709,222.186,40.709z"/>
			<path fill="#0A2651" d="M231.623,40.514c-0.363,0.091-0.948,0.195-1.729,0.195c-1.833,0-3.029-1.17-3.029-3.29v-1.092
				c0-2.119,1.196-3.289,3.029-3.289c0.78,0,1.365,0.104,1.729,0.195c0.195,0.052,0.273,0.104,0.273,0.299v1.157
				c0,0.13-0.117,0.221-0.247,0.221c0,0-0.013,0-0.026,0c-0.48-0.052-0.845-0.091-1.586-0.091c-0.585,0-1.065,0.351-1.065,1.508
				v1.092c0,1.157,0.48,1.508,1.065,1.508c0.741,0,1.105-0.039,1.586-0.091c0.014,0,0.026,0,0.026,0c0.13,0,0.247,0.091,0.247,0.221
				v1.157C231.896,40.41,231.818,40.462,231.623,40.514z"/>
			<path fill="#0A2651" d="M235.173,32.298h-1.69c-0.143,0-0.26-0.117-0.26-0.26v-1.209c0-0.143,0.117-0.26,0.26-0.26h1.69
				c0.143,0,0.26,0.117,0.26,0.26v1.209C235.433,32.181,235.315,32.298,235.173,32.298z M235.12,40.592h-1.586
				c-0.143,0-0.26-0.117-0.26-0.26v-6.929c0-0.143,0.117-0.26,0.26-0.26h1.586c0.144,0,0.261,0.117,0.261,0.26v6.929
				C235.381,40.475,235.264,40.592,235.12,40.592z"/>
			<path fill="#0A2651" d="M243.025,37.524h-4.147v0.026c0,0.741,0.312,1.417,1.339,1.417c0.819,0,1.977-0.065,2.496-0.117
				c0.014,0,0.026,0,0.039,0c0.144,0,0.247,0.065,0.247,0.208v0.988c0,0.208-0.052,0.299-0.272,0.351
				c-0.832,0.208-1.534,0.312-2.666,0.312c-1.572,0-3.263-0.832-3.263-3.341v-0.91c0-2.093,1.222-3.419,3.289-3.419
				c2.132,0,3.211,1.456,3.211,3.419v0.754C243.298,37.407,243.194,37.524,243.025,37.524z M241.244,36.172
				c0-0.962-0.442-1.443-1.17-1.443c-0.715,0-1.196,0.494-1.196,1.443v0.052h2.366V36.172z"/>
			<path fill="#0A2651" d="M250.786,40.592h-1.573c-0.143,0-0.26-0.13-0.26-0.273V35.99c0-0.91-0.169-1.209-0.962-1.209
				c-0.377,0-0.78,0.182-1.223,0.416v5.122c0,0.143-0.116,0.273-0.26,0.273h-1.573c-0.143,0-0.272-0.13-0.272-0.273v-6.917
				c0-0.143,0.117-0.26,0.26-0.26h1.456c0.143,0,0.26,0.117,0.26,0.26v0.312c0.715-0.507,1.287-0.676,2.119-0.676
				c1.885,0,2.301,1.313,2.301,2.951v4.329C251.059,40.462,250.929,40.592,250.786,40.592z"/>
			<path fill="#0A2651" d="M257.715,40.592h-4.875c-0.234,0-0.442-0.195-0.442-0.429v-0.832c0-0.182,0.053-0.312,0.183-0.494
				l2.821-3.848c0.025-0.039,0.039-0.065,0.039-0.091c0-0.039-0.039-0.065-0.092-0.065h-2.612c-0.131,0-0.222-0.078-0.222-0.208
				v-1.222c0-0.143,0.117-0.26,0.261-0.26h4.745c0.233,0,0.429,0.208,0.429,0.442v0.962c0,0.13-0.026,0.286-0.144,0.455l-2.69,3.679
				c-0.026,0.039-0.039,0.065-0.039,0.091c0,0.026,0.039,0.052,0.091,0.052h2.574c0.13,0,0.233,0.078,0.233,0.208v1.3
				C257.975,40.475,257.858,40.592,257.715,40.592z"/>
			<path fill="#0A2651" d="M264.8,40.592h-1.456c-0.144,0-0.261-0.117-0.261-0.26v-0.208c-0.507,0.364-1.026,0.585-1.807,0.585
				c-1.131,0-2.224-0.546-2.224-2.236v-0.117c0-1.521,0.976-2.197,3.198-2.197h0.702v-0.468c0-0.741-0.363-0.897-0.975-0.897
				c-0.832,0-1.755,0.052-2.158,0.091h-0.065c-0.13,0-0.233-0.065-0.233-0.234v-1.053c0-0.143,0.091-0.247,0.247-0.286
				c0.48-0.117,1.391-0.273,2.249-0.273c1.872,0,3.042,0.754,3.042,2.652v4.641C265.06,40.475,264.942,40.592,264.8,40.592z
				 M262.992,37.407h-0.741c-0.909,0-1.144,0.312-1.144,0.949v0.117c0,0.546,0.272,0.65,0.819,0.65c0.39,0,0.754-0.13,1.065-0.286
				V37.407z"/>
			<g id="TESTO_3_">
				<g>
					<path fill="#0A2651" d="M204.08,37.575c-0.824,0.631-2.035,0.859-3.592,0.859c-1.318,0-2.143-0.685-2.143-1.865
						c0-0.08,0-0.16,0.014-0.241l0.146-1.569c0.133-1.368,0.984-2.133,2.42-2.133c0.572,0,1.199,0.094,1.703,0.201
						c0.174,0.041,0.281,0.094,0.281,0.282c0,0.013,0,0.04,0,0.054l-0.4,4.197c1.664-0.24,1.943-1.435,1.943-3.111
						c0-1.689-1.078-3.111-3.273-3.111c-2.328,0-3.713,1.367-3.912,3.406l-0.199,2.039c-0.014,0.147-0.027,0.295-0.027,0.43
						c0,1.609,1.078,2.856,3.354,2.856c0.639,0,1.277-0.04,1.916-0.094h0.014c0.119,0,0.119,0.094,0.119,0.094v0.429
						c0,0.135-0.08,0.175-0.213,0.188c-0.346,0.041-1.051,0.107-1.85,0.107c-2.555,0-4.191-1.447-4.191-3.594
						c0-0.135,0-0.281,0.014-0.416l0.199-2.092c0.227-2.428,1.971-4.131,4.816-4.131c2.742,0,4.111,1.891,4.111,3.889
						C205.33,35.925,204.893,36.945,204.08,37.575z M200.82,33.591c-0.785,0-1.131,0.39-1.211,1.194l-0.146,1.529
						c-0.014,0.08-0.014,0.16-0.014,0.228c0,0.616,0.32,0.925,1.092,0.925c0.094,0,0.186,0,0.279,0c0.199,0,0.387,0,0.572-0.026
						l0.332-3.769C201.445,33.631,201.127,33.591,200.82,33.591z"/>
				</g>
			</g>
		</g>
	</g>
</g>
<g id="_x40_ElettronicaIn">
	<g id="MASCHERINA_6_">
		
			<image overflow="visible" width="1780" height="1888" xlink:href="1BF765E7.png"  transform="matrix(0.24 0 0 0.24 -59.917 -59.8926)">
		</image>
		<g>
			<rect x="0.083" y="0.107" fill="#FFFFFF" width="307" height="332.999"/>
		</g>
	</g>
	<g>
		<radialGradient id="Banda_gialla_17_" cx="151.1675" cy="63.5977" r="105.605" gradientUnits="userSpaceOnUse">
			<stop  offset="0" style="stop-color:#FFFF04"/>
			<stop  offset="1" style="stop-color:#E3D904"/>
		</radialGradient>
		<polygon id="Banda_gialla_6_" fill="url(#Banda_gialla_17_)" points="7.667,22.214 7.667,45.981 218.668,45.981 218.668,104.981 
			264.668,104.981 264.668,45.981 294.667,45.981 294.667,22.214 		"/>
		
			<radialGradient id="Freccia_blu_16_" cx="380.189" cy="816.9395" r="9.8259" gradientTransform="matrix(0.7071 0.7071 -0.7071 0.7071 550.6572 -800.5088)" gradientUnits="userSpaceOnUse">
			<stop  offset="0" style="stop-color:#103B7A"/>
			<stop  offset="0.0134" style="stop-color:#103B79"/>
			<stop  offset="1" style="stop-color:#0A264E"/>
		</radialGradient>
		<polygon id="Freccia_blu_6_" fill="url(#Freccia_blu_16_)" points="255.727,45.981 241.83,59.876 227.936,45.981 		"/>
		<radialGradient id="ICONA_10_" cx="242.5244" cy="84.853" r="15.5128" gradientUnits="userSpaceOnUse">
			<stop  offset="0" style="stop-color:#29AAE1"/>
			<stop  offset="1" style="stop-color:#298CF5"/>
		</radialGradient>
		<path id="ICONA_3_" opacity="0.3" fill="url(#ICONA_10_)" d="M260.613,83.891c-1.275,0.217-3.121-0.009-4.098-0.414
			c2.033-0.168,3.408-1.086,3.939-2.334c-0.732,0.448-3.01,0.937-4.264,0.47c-0.062-0.292-0.131-0.571-0.201-0.825
			c-0.955-3.5-4.232-6.322-7.666-5.981c0.275-0.11,0.557-0.214,0.842-0.31c0.375-0.136,2.592-0.494,2.244-1.273
			c-0.297-0.686-3.004,0.516-3.516,0.675c0.674-0.251,1.787-0.686,1.906-1.458c-1.031,0.144-2.043,0.629-2.826,1.334
			c0.283-0.302,0.496-0.672,0.541-1.069c-2.752,1.753-4.361,5.283-5.66,8.71c-1.021-0.988-1.93-1.764-2.742-2.197
			c-2.277-1.215-5.004-2.485-9.279-4.067c-0.131,1.409,0.699,3.284,3.092,4.53c-0.52-0.07-1.465,0.087-2.225,0.266
			c0.311,1.617,1.318,2.946,4.051,3.59c-1.248,0.082-1.895,0.367-2.479,0.975c0.568,1.125,1.957,2.446,4.453,2.174
			c-2.775,1.191-1.131,3.4,1.127,3.069c-3.854,3.968-9.928,3.675-13.418,0.359c9.109,12.364,28.91,7.311,31.861-4.599
			C258.508,85.532,259.807,84.752,260.613,83.891z"/>
		<g>
			<path fill="#0A2651" d="M185.739,40.54c-0.454,0.065-1.117,0.169-2.521,0.169c-1.677,0-3.159-0.429-3.159-2.795v-4.316
				c0-2.366,1.495-2.782,3.172-2.782c1.404,0,2.055,0.104,2.509,0.169c0.183,0.026,0.261,0.091,0.261,0.26v1.209
				c0,0.143-0.117,0.26-0.261,0.26h-2.639c-0.611,0-0.832,0.208-0.832,0.884v1.183h3.367c0.143,0,0.26,0.117,0.26,0.26v1.235
				c0,0.143-0.117,0.26-0.26,0.26h-3.367v1.378c0,0.676,0.221,0.884,0.832,0.884h2.639c0.144,0,0.261,0.117,0.261,0.26v1.209
				C186,40.437,185.922,40.514,185.739,40.54z"/>
			<path fill="#0A2651" d="M189.366,40.592h-1.586c-0.143,0-0.272-0.13-0.272-0.273v-9.438c0-0.143,0.13-0.26,0.272-0.26h1.586
				c0.144,0,0.247,0.117,0.247,0.26v9.438C189.613,40.462,189.51,40.592,189.366,40.592z"/>
			<path fill="#0A2651" d="M197.206,37.524h-4.147v0.026c0,0.741,0.312,1.417,1.339,1.417c0.819,0,1.977-0.065,2.496-0.117
				c0.014,0,0.026,0,0.039,0c0.144,0,0.247,0.065,0.247,0.208v0.988c0,0.208-0.052,0.299-0.272,0.351
				c-0.832,0.208-1.534,0.312-2.666,0.312c-1.572,0-3.263-0.832-3.263-3.341v-0.91c0-2.093,1.222-3.419,3.289-3.419
				c2.132,0,3.211,1.456,3.211,3.419v0.754C197.479,37.407,197.375,37.524,197.206,37.524z M195.425,36.172
				c0-0.962-0.442-1.443-1.17-1.443c-0.715,0-1.196,0.494-1.196,1.443v0.052h2.366V36.172z"/>
			<path fill="#0A2651" d="M202.887,40.605c-0.39,0.065-0.65,0.104-1.027,0.104c-1.43,0-2.184-0.377-2.184-2.223v-3.771l-1.04-0.169
				c-0.144-0.026-0.273-0.13-0.273-0.273v-0.858c0-0.143,0.13-0.273,0.273-0.273h1.04v-1.066c0-0.143,0.117-0.234,0.26-0.26
				l1.586-0.273c0.013,0,0.026,0,0.039,0c0.13,0,0.234,0.091,0.234,0.221v1.378h1.065c0.144,0,0.261,0.117,0.261,0.26v1.053
				c0,0.143-0.117,0.26-0.261,0.26h-1.065v3.783c0,0.52,0.039,0.611,0.429,0.611h0.637c0.169,0,0.273,0.078,0.273,0.221v1.014
				C203.134,40.475,203.043,40.579,202.887,40.605z"/>
			<path fill="#0A2651" d="M208.359,40.605c-0.39,0.065-0.65,0.104-1.027,0.104c-1.43,0-2.184-0.377-2.184-2.223v-3.771l-1.04-0.169
				c-0.144-0.026-0.273-0.13-0.273-0.273v-0.858c0-0.143,0.13-0.273,0.273-0.273h1.04v-1.066c0-0.143,0.117-0.234,0.26-0.26
				l1.586-0.273c0.013,0,0.026,0,0.039,0c0.13,0,0.234,0.091,0.234,0.221v1.378h1.065c0.144,0,0.261,0.117,0.261,0.26v1.053
				c0,0.143-0.117,0.26-0.261,0.26h-1.065v3.783c0,0.52,0.039,0.611,0.429,0.611h0.637c0.169,0,0.273,0.078,0.273,0.221v1.014
				C208.606,40.475,208.516,40.579,208.359,40.605z"/>
			<path fill="#0A2651" d="M213.676,34.781h-0.104c-0.638,0-1.196,0.195-1.678,0.455v5.083c0,0.143-0.116,0.273-0.26,0.273h-1.573
				c-0.143,0-0.272-0.13-0.272-0.273v-6.917c0-0.143,0.117-0.26,0.26-0.26h1.547c0.144,0,0.26,0.117,0.26,0.26v0.26
				c0.481-0.403,1.132-0.624,1.756-0.624c0.143,0,0.26,0.117,0.26,0.26v1.235C213.871,34.651,213.793,34.781,213.676,34.781z"/>
			<path fill="#0A2651" d="M217.992,40.709c-2.105,0-3.263-1.313-3.263-3.38v-0.91c0-2.067,1.157-3.38,3.263-3.38
				c2.106,0,3.25,1.313,3.25,3.38v0.91C221.242,39.396,220.099,40.709,217.992,40.709z M219.149,36.419
				c0-1.053-0.403-1.586-1.157-1.586s-1.17,0.533-1.17,1.586v0.91c0,1.053,0.416,1.599,1.17,1.599s1.157-0.546,1.157-1.599V36.419z"
				/>
			<path fill="#0A2651" d="M228.717,40.592h-1.573c-0.143,0-0.26-0.13-0.26-0.273V35.99c0-0.91-0.169-1.209-0.962-1.209
				c-0.377,0-0.78,0.182-1.223,0.416v5.122c0,0.143-0.116,0.273-0.26,0.273h-1.573c-0.143,0-0.272-0.13-0.272-0.273v-6.917
				c0-0.143,0.117-0.26,0.26-0.26h1.456c0.143,0,0.26,0.117,0.26,0.26v0.312c0.715-0.507,1.287-0.676,2.119-0.676
				c1.885,0,2.301,1.313,2.301,2.951v4.329C228.989,40.462,228.859,40.592,228.717,40.592z"/>
			<path fill="#0A2651" d="M232.5,32.298h-1.69c-0.143,0-0.26-0.117-0.26-0.26v-1.209c0-0.143,0.117-0.26,0.26-0.26h1.69
				c0.143,0,0.26,0.117,0.26,0.26v1.209C232.76,32.181,232.643,32.298,232.5,32.298z M232.447,40.592h-1.586
				c-0.143,0-0.26-0.117-0.26-0.26v-6.929c0-0.143,0.117-0.26,0.26-0.26h1.586c0.144,0,0.261,0.117,0.261,0.26v6.929
				C232.708,40.475,232.591,40.592,232.447,40.592z"/>
			<path fill="#0A2651" d="M238.883,40.514c-0.363,0.091-0.948,0.195-1.729,0.195c-1.833,0-3.029-1.17-3.029-3.29v-1.092
				c0-2.119,1.196-3.289,3.029-3.289c0.78,0,1.365,0.104,1.729,0.195c0.195,0.052,0.273,0.104,0.273,0.299v1.157
				c0,0.13-0.117,0.221-0.247,0.221c0,0-0.013,0-0.026,0c-0.48-0.052-0.845-0.091-1.586-0.091c-0.585,0-1.065,0.351-1.065,1.508
				v1.092c0,1.157,0.48,1.508,1.065,1.508c0.741,0,1.105-0.039,1.586-0.091c0.014,0,0.026,0,0.026,0c0.13,0,0.247,0.091,0.247,0.221
				v1.157C239.156,40.41,239.078,40.462,238.883,40.514z"/>
			<path fill="#0A2651" d="M245.969,40.592h-1.456c-0.144,0-0.261-0.117-0.261-0.26v-0.208c-0.507,0.364-1.026,0.585-1.807,0.585
				c-1.131,0-2.224-0.546-2.224-2.236v-0.117c0-1.521,0.976-2.197,3.198-2.197h0.702v-0.468c0-0.741-0.363-0.897-0.975-0.897
				c-0.832,0-1.755,0.052-2.158,0.091h-0.065c-0.13,0-0.233-0.065-0.233-0.234v-1.053c0-0.143,0.091-0.247,0.247-0.286
				c0.48-0.117,1.391-0.273,2.249-0.273c1.872,0,3.042,0.754,3.042,2.652v4.641C246.229,40.475,246.111,40.592,245.969,40.592z
				 M244.161,37.407h-0.741c-0.909,0-1.144,0.312-1.144,0.949v0.117c0,0.546,0.272,0.65,0.819,0.65c0.39,0,0.754-0.13,1.065-0.286
				V37.407z"/>
			<path fill="#0A2651" d="M249.894,40.592h-1.742c-0.143,0-0.233-0.117-0.233-0.26V31.18c0-0.143,0.091-0.247,0.233-0.247h1.742
				c0.144,0,0.247,0.104,0.247,0.247v9.152C250.141,40.475,250.037,40.592,249.894,40.592z"/>
			<path fill="#0A2651" d="M257.954,40.592h-1.573c-0.143,0-0.26-0.13-0.26-0.273V35.99c0-0.91-0.169-1.209-0.962-1.209
				c-0.377,0-0.78,0.182-1.223,0.416v5.122c0,0.143-0.116,0.273-0.26,0.273h-1.573c-0.143,0-0.272-0.13-0.272-0.273v-6.917
				c0-0.143,0.117-0.26,0.26-0.26h1.456c0.143,0,0.26,0.117,0.26,0.26v0.312c0.715-0.507,1.287-0.676,2.119-0.676
				c1.886,0,2.302,1.313,2.302,2.951v4.329C258.228,40.462,258.097,40.592,257.954,40.592z"/>
			<path fill="#0A2651" d="M264.273,40.592h-1.703c-0.145,0-0.262-0.117-0.262-0.26v-7.176l-1.456,0.598
				c-0.064,0.026-0.116,0.039-0.155,0.039c-0.092,0-0.144-0.065-0.144-0.169v-1.482c0-0.091,0.039-0.143,0.13-0.182l2.119-0.975
				c0.092-0.039,0.17-0.052,0.299-0.052h1.172c0.143,0,0.246,0.104,0.246,0.247v9.152C264.519,40.475,264.416,40.592,264.273,40.592
				z"/>
			<g id="TESTO_4_">
				<g>
					<path fill="#0A2651" d="M177.267,37.575c-0.824,0.631-2.035,0.859-3.592,0.859c-1.318,0-2.143-0.685-2.143-1.865
						c0-0.08,0-0.16,0.014-0.241l0.146-1.569c0.133-1.368,0.984-2.133,2.42-2.133c0.572,0,1.199,0.094,1.703,0.201
						c0.174,0.041,0.281,0.094,0.281,0.282c0,0.013,0,0.04,0,0.054l-0.4,4.197c1.664-0.24,1.943-1.435,1.943-3.111
						c0-1.689-1.078-3.111-3.273-3.111c-2.328,0-3.713,1.367-3.912,3.406l-0.199,2.039c-0.014,0.147-0.027,0.295-0.027,0.43
						c0,1.609,1.078,2.856,3.354,2.856c0.639,0,1.277-0.04,1.916-0.094h0.014c0.119,0,0.119,0.094,0.119,0.094v0.429
						c0,0.135-0.08,0.175-0.213,0.188c-0.346,0.041-1.051,0.107-1.85,0.107c-2.555,0-4.191-1.447-4.191-3.594
						c0-0.135,0-0.281,0.014-0.416l0.199-2.092c0.227-2.428,1.971-4.131,4.816-4.131c2.742,0,4.111,1.891,4.111,3.889
						C178.517,35.925,178.079,36.945,177.267,37.575z M174.007,33.591c-0.785,0-1.131,0.39-1.211,1.194l-0.146,1.529
						c-0.014,0.08-0.014,0.16-0.014,0.228c0,0.616,0.32,0.925,1.092,0.925c0.094,0,0.186,0,0.279,0c0.199,0,0.387,0,0.572-0.026
						l0.332-3.769C174.632,33.631,174.313,33.591,174.007,33.591z"/>
				</g>
			</g>
		</g>
	</g>
</g>
<g id="_x40_mondo_digitale">
	<g id="MASCHERINA_7_">
		
			<image overflow="visible" width="1780" height="1888" xlink:href="1BF765F8.png"  transform="matrix(0.24 0 0 0.24 -59.917 -59.999)">
		</image>
		<g>
			<rect x="0.083" y="0.001" fill="#FFFFFF" width="307.001" height="332.999"/>
		</g>
	</g>
	<g>
		<radialGradient id="Banda_gialla_18_" cx="151.167" cy="63.4912" r="105.605" gradientUnits="userSpaceOnUse">
			<stop  offset="0" style="stop-color:#FFFF04"/>
			<stop  offset="1" style="stop-color:#E3D904"/>
		</radialGradient>
		<polygon id="Banda_gialla_7_" fill="url(#Banda_gialla_18_)" points="7.667,22.108 7.667,45.875 218.668,45.875 218.668,104.875 
			264.668,104.875 264.668,45.875 294.667,45.875 294.667,22.108 		"/>
		
			<radialGradient id="Freccia_blu_17_" cx="380.1138" cy="816.8643" r="9.8259" gradientTransform="matrix(0.7071 0.7071 -0.7071 0.7071 550.6572 -800.5088)" gradientUnits="userSpaceOnUse">
			<stop  offset="0" style="stop-color:#103B7A"/>
			<stop  offset="0.0134" style="stop-color:#103B79"/>
			<stop  offset="1" style="stop-color:#0A264E"/>
		</radialGradient>
		<polygon id="Freccia_blu_7_" fill="url(#Freccia_blu_17_)" points="255.727,45.875 241.83,59.77 227.936,45.875 		"/>
		<radialGradient id="ICONA_11_" cx="242.5244" cy="84.7466" r="15.5128" gradientUnits="userSpaceOnUse">
			<stop  offset="0" style="stop-color:#29AAE1"/>
			<stop  offset="1" style="stop-color:#298CF5"/>
		</radialGradient>
		<path id="ICONA_4_" opacity="0.3" fill="url(#ICONA_11_)" d="M260.613,83.785c-1.275,0.217-3.121-0.009-4.098-0.414
			c2.033-0.168,3.408-1.086,3.939-2.334c-0.732,0.448-3.01,0.937-4.264,0.47c-0.062-0.292-0.131-0.571-0.201-0.825
			c-0.955-3.5-4.232-6.322-7.666-5.981c0.275-0.11,0.557-0.214,0.842-0.31c0.375-0.136,2.592-0.494,2.244-1.273
			c-0.297-0.686-3.004,0.516-3.516,0.675c0.674-0.251,1.787-0.686,1.906-1.458c-1.031,0.144-2.043,0.629-2.826,1.334
			c0.283-0.302,0.496-0.672,0.541-1.069c-2.752,1.753-4.361,5.283-5.66,8.71c-1.021-0.988-1.93-1.764-2.742-2.197
			c-2.277-1.215-5.004-2.485-9.279-4.067c-0.131,1.409,0.699,3.284,3.092,4.53c-0.52-0.07-1.465,0.087-2.225,0.266
			c0.311,1.617,1.318,2.946,4.051,3.59c-1.248,0.082-1.895,0.367-2.479,0.975c0.568,1.125,1.957,2.446,4.453,2.174
			c-2.775,1.191-1.131,3.4,1.127,3.069c-3.854,3.968-9.928,3.675-13.418,0.359c9.109,12.364,28.91,7.311,31.861-4.599
			C258.508,85.425,259.807,84.646,260.613,83.785z"/>
		<g>
			<g id="TESTO_5_">
				<g>
					<path fill="#0A2651" d="M198.561,37.468c-0.824,0.631-2.035,0.859-3.592,0.859c-1.318,0-2.143-0.685-2.143-1.865
						c0-0.08,0-0.16,0.014-0.241l0.146-1.569c0.133-1.368,0.984-2.133,2.42-2.133c0.572,0,1.199,0.094,1.703,0.201
						c0.174,0.041,0.281,0.094,0.281,0.282c0,0.013,0,0.04,0,0.054l-0.4,4.197c1.664-0.24,1.943-1.435,1.943-3.111
						c0-1.689-1.078-3.111-3.273-3.111c-2.328,0-3.713,1.367-3.912,3.406l-0.199,2.039c-0.014,0.147-0.027,0.295-0.027,0.43
						c0,1.609,1.078,2.856,3.354,2.856c0.639,0,1.277-0.04,1.916-0.094h0.014c0.119,0,0.119,0.094,0.119,0.094v0.429
						c0,0.135-0.08,0.175-0.213,0.188c-0.346,0.041-1.051,0.107-1.85,0.107c-2.555,0-4.191-1.447-4.191-3.594
						c0-0.135,0-0.281,0.014-0.416l0.199-2.092c0.227-2.428,1.971-4.131,4.816-4.131c2.742,0,4.111,1.891,4.111,3.889
						C199.811,35.819,199.373,36.838,198.561,37.468z M195.301,33.485c-0.785,0-1.131,0.39-1.211,1.194l-0.146,1.529
						c-0.014,0.08-0.014,0.16-0.014,0.228c0,0.616,0.32,0.925,1.092,0.925c0.094,0,0.186,0,0.279,0c0.199,0,0.387,0,0.572-0.026
						l0.332-3.769C195.926,33.525,195.607,33.485,195.301,33.485z"/>
				</g>
			</g>
			<g>
				<path fill="#0A2651" d="M206.203,31.997h-0.637c-0.39,0-0.429,0.091-0.429,0.611v0.429h1.066c0.143,0,0.26,0.117,0.26,0.26
					v1.053c0,0.143-0.117,0.26-0.26,0.26h-1.066v5.616c0,0.143-0.117,0.26-0.26,0.26h-1.599c-0.143,0-0.26-0.117-0.26-0.26V34.61
					l-1.04-0.169c-0.143-0.026-0.273-0.13-0.273-0.273V33.31c0-0.143,0.13-0.273,0.273-0.273h1.04v-0.416
					c0-1.846,0.754-2.223,2.184-2.223c0.377,0,0.637,0.039,1.027,0.104c0.156,0.026,0.247,0.13,0.247,0.26v1.014
					C206.476,31.918,206.372,31.997,206.203,31.997z"/>
				<path fill="#0A2651" d="M217.188,40.486h-1.573c-0.143,0-0.26-0.13-0.26-0.273V35.78c0-0.832-0.195-1.079-0.793-1.079
					c-0.221,0-0.611,0.052-1.001,0.234c0.026,0.26,0.039,0.559,0.039,0.845v4.433c0,0.143-0.117,0.273-0.26,0.273h-1.573
					c-0.144,0-0.273-0.13-0.273-0.273V35.78c0-0.832-0.155-1.079-0.754-1.079c-0.247,0-0.585,0.13-0.988,0.338v5.174
					c0,0.143-0.116,0.273-0.26,0.273h-1.573c-0.143,0-0.273-0.13-0.273-0.273v-6.917c0-0.143,0.117-0.26,0.26-0.26h1.482
					c0.143,0,0.26,0.117,0.26,0.26v0.286c0.546-0.364,1.17-0.65,1.924-0.65c0.689,0,1.17,0.195,1.534,0.637
					c0.754-0.429,1.274-0.637,2.119-0.637c1.716,0,2.236,1.144,2.236,2.847v4.433C217.461,40.356,217.331,40.486,217.188,40.486z"/>
				<path fill="#0A2651" d="M224.818,40.265c-0.741,0.182-1.768,0.338-2.769,0.338c-2.106,0-3.264-1.222-3.264-3.328v-1.014
					c0-2.041,1.066-3.328,3.264-3.328c0.26,0,0.688,0.039,1.065,0.091v-2.249c0-0.143,0.117-0.26,0.26-0.26h1.573
					c0.144,0,0.273,0.117,0.273,0.26v9.113C225.222,40.096,225.17,40.187,224.818,40.265z M223.115,34.74
					c-0.312-0.039-0.754-0.065-1.065-0.065c-0.924,0-1.157,0.676-1.157,1.586v1.014c0,0.923,0.233,1.599,1.157,1.599
					c0.429,0,0.818-0.039,1.065-0.078V34.74z"/>
				<path fill="#0A2651" d="M228.731,32.191h-1.69c-0.143,0-0.26-0.117-0.26-0.26v-1.209c0-0.143,0.117-0.26,0.26-0.26h1.69
					c0.143,0,0.26,0.117,0.26,0.26v1.209C228.991,32.075,228.874,32.191,228.731,32.191z M228.679,40.486h-1.586
					c-0.143,0-0.26-0.117-0.26-0.26v-6.93c0-0.143,0.117-0.26,0.26-0.26h1.586c0.144,0,0.261,0.117,0.261,0.26v6.93
					C228.939,40.369,228.822,40.486,228.679,40.486z"/>
				<path fill="#0A2651" d="M237.039,34.402l-0.403,0.13c0.156,0.234,0.286,0.65,0.286,0.962v0.104c0,1.69-1.184,2.431-3.211,2.431
					c-0.611,0-1.093-0.091-1.353-0.195c-0.143,0.091-0.182,0.182-0.182,0.299c0,0.208,0.078,0.299,0.39,0.364l1.469,0.325
					c2.263,0.494,3.043,0.845,3.043,2.093v0.104c0,1.43-1.118,2.119-3.406,2.119c-2.158,0-3.303-0.754-3.303-2.119v-0.104
					c0-0.533,0.222-1.027,0.78-1.456c-0.468-0.26-0.663-0.78-0.663-1.209c0-0.481,0.247-0.845,0.572-1.105
					c-0.416-0.364-0.598-1.027-0.598-1.547v-0.104c0-1.469,0.975-2.457,3.25-2.457h3.236c0.183,0,0.325,0.156,0.325,0.338v0.741
					C237.272,34.297,237.194,34.35,237.039,34.402z M234.933,40.915c0-0.247-0.169-0.416-1.339-0.676l-0.962-0.208
					c-0.156,0.221-0.261,0.429-0.261,0.884v0.104c0,0.442,0.3,0.663,1.301,0.663c1.065,0,1.261-0.273,1.261-0.663V40.915z
					 M234.867,35.494c0-0.533-0.233-0.936-1.156-0.936c-0.924,0-1.184,0.403-1.184,0.936v0.104c0,0.442,0.195,0.91,1.184,0.91
					c0.91,0,1.156-0.351,1.156-0.91V35.494z"/>
				<path fill="#0A2651" d="M240.289,32.191h-1.69c-0.143,0-0.26-0.117-0.26-0.26v-1.209c0-0.143,0.117-0.26,0.26-0.26h1.69
					c0.143,0,0.26,0.117,0.26,0.26v1.209C240.549,32.075,240.432,32.191,240.289,32.191z M240.236,40.486h-1.586
					c-0.143,0-0.26-0.117-0.26-0.26v-6.93c0-0.143,0.117-0.26,0.26-0.26h1.586c0.144,0,0.261,0.117,0.261,0.26v6.93
					C240.497,40.369,240.38,40.486,240.236,40.486z"/>
				<path fill="#0A2651" d="M246.151,40.499c-0.39,0.065-0.65,0.104-1.027,0.104c-1.43,0-2.184-0.377-2.184-2.223v-3.77l-1.04-0.169
					c-0.144-0.026-0.273-0.13-0.273-0.273V33.31c0-0.143,0.13-0.273,0.273-0.273h1.04v-1.066c0-0.143,0.117-0.234,0.26-0.26
					l1.586-0.273c0.013,0,0.026,0,0.039,0c0.13,0,0.234,0.091,0.234,0.221v1.378h1.065c0.144,0,0.261,0.117,0.261,0.26v1.053
					c0,0.143-0.117,0.26-0.261,0.26h-1.065v3.783c0,0.52,0.039,0.611,0.429,0.611h0.637c0.169,0,0.273,0.078,0.273,0.221v1.014
					C246.398,40.369,246.308,40.473,246.151,40.499z"/>
				<path fill="#0A2651" d="M253.067,40.486h-1.456c-0.144,0-0.261-0.117-0.261-0.26v-0.208c-0.507,0.364-1.026,0.585-1.807,0.585
					c-1.131,0-2.224-0.546-2.224-2.236V38.25c0-1.521,0.976-2.197,3.198-2.197h0.702v-0.468c0-0.741-0.363-0.897-0.975-0.897
					c-0.832,0-1.755,0.052-2.158,0.091h-0.065c-0.13,0-0.233-0.065-0.233-0.234v-1.053c0-0.143,0.091-0.247,0.247-0.286
					c0.48-0.117,1.391-0.273,2.249-0.273c1.872,0,3.042,0.754,3.042,2.652v4.642C253.327,40.369,253.21,40.486,253.067,40.486z
					 M251.26,37.301h-0.741c-0.909,0-1.144,0.312-1.144,0.949v0.117c0,0.546,0.272,0.65,0.819,0.65c0.39,0,0.754-0.13,1.065-0.286
					V37.301z"/>
				<path fill="#0A2651" d="M256.745,40.486h-1.586c-0.143,0-0.272-0.13-0.272-0.273v-9.438c0-0.143,0.13-0.26,0.272-0.26h1.586
					c0.144,0,0.247,0.117,0.247,0.26v9.438C256.992,40.356,256.889,40.486,256.745,40.486z"/>
				<path fill="#0A2651" d="M264.585,37.417h-4.147v0.026c0,0.741,0.312,1.417,1.339,1.417c0.819,0,1.977-0.065,2.496-0.117
					c0.014,0,0.026,0,0.039,0c0.144,0,0.247,0.065,0.247,0.208v0.988c0,0.208-0.052,0.299-0.272,0.351
					c-0.832,0.208-1.534,0.312-2.665,0.312c-1.573,0-3.264-0.832-3.264-3.341v-0.91c0-2.093,1.222-3.419,3.289-3.419
					c2.132,0,3.211,1.456,3.211,3.419v0.754C264.857,37.301,264.754,37.417,264.585,37.417z M262.804,36.066
					c0-0.962-0.442-1.443-1.17-1.443c-0.715,0-1.196,0.494-1.196,1.443v0.052h2.366V36.066z"/>
			</g>
		</g>
	</g>
</g>
<g id="_x40_scuolarobotica">
	<g id="MASCHERINA_8_">
		
			<image overflow="visible" width="1780" height="1888" xlink:href="1BF765FB.png"  transform="matrix(0.24 0 0 0.24 -60.125 -59.9995)">
		</image>
		<g>
			<rect x="-0.125" y="0" fill="#FFFFFF" width="307.001" height="332.999"/>
		</g>
	</g>
	<g>
		<radialGradient id="Banda_gialla_19_" cx="150.959" cy="63.4907" r="105.605" gradientUnits="userSpaceOnUse">
			<stop  offset="0" style="stop-color:#FFFF04"/>
			<stop  offset="1" style="stop-color:#E3D904"/>
		</radialGradient>
		<polygon id="Banda_gialla_8_" fill="url(#Banda_gialla_19_)" points="7.459,22.107 7.459,45.874 218.46,45.874 218.46,104.874 
			264.46,104.874 264.46,45.874 294.459,45.874 294.459,22.107 		"/>
		
			<radialGradient id="Freccia_blu_18_" cx="379.9658" cy="817.0117" r="9.8252" gradientTransform="matrix(0.7071 0.7071 -0.7071 0.7071 550.6572 -800.5088)" gradientUnits="userSpaceOnUse">
			<stop  offset="0" style="stop-color:#103B7A"/>
			<stop  offset="0.0134" style="stop-color:#103B79"/>
			<stop  offset="1" style="stop-color:#0A264E"/>
		</radialGradient>
		<polygon id="Freccia_blu_8_" fill="url(#Freccia_blu_18_)" points="255.519,45.874 241.622,59.77 227.728,45.874 		"/>
		<radialGradient id="ICONA_12_" cx="242.3164" cy="84.7461" r="15.5128" gradientUnits="userSpaceOnUse">
			<stop  offset="0" style="stop-color:#29AAE1"/>
			<stop  offset="1" style="stop-color:#298CF5"/>
		</radialGradient>
		<path id="ICONA_5_" opacity="0.3" fill="url(#ICONA_12_)" d="M260.405,83.784c-1.275,0.217-3.121-0.009-4.098-0.414
			c2.033-0.168,3.408-1.086,3.939-2.334c-0.732,0.448-3.01,0.937-4.264,0.47c-0.062-0.292-0.131-0.571-0.201-0.825
			c-0.955-3.5-4.232-6.322-7.666-5.981c0.275-0.11,0.557-0.214,0.842-0.31c0.375-0.136,2.592-0.494,2.244-1.273
			c-0.297-0.686-3.004,0.516-3.516,0.675c0.674-0.251,1.787-0.686,1.906-1.458c-1.031,0.144-2.043,0.629-2.826,1.334
			c0.283-0.302,0.496-0.672,0.541-1.069c-2.752,1.753-4.361,5.283-5.66,8.71c-1.021-0.988-1.93-1.764-2.742-2.197
			c-2.277-1.215-5.004-2.485-9.279-4.067c-0.131,1.409,0.699,3.284,3.092,4.53c-0.52-0.07-1.465,0.087-2.225,0.266
			c0.311,1.617,1.318,2.946,4.051,3.59c-1.248,0.082-1.895,0.367-2.479,0.975c0.568,1.125,1.957,2.446,4.453,2.174
			c-2.775,1.191-1.131,3.4,1.127,3.069c-3.854,3.968-9.928,3.675-13.418,0.359c9.109,12.364,28.91,7.311,31.861-4.599
			C258.3,85.425,259.599,84.646,260.405,83.784z"/>
		<g>
			<g id="TESTO_6_">
				<g>
					<path fill="#0A2651" d="M168.353,37.468c-0.824,0.631-2.035,0.859-3.592,0.859c-1.318,0-2.143-0.685-2.143-1.865
						c0-0.08,0-0.16,0.014-0.241l0.146-1.569c0.133-1.368,0.984-2.133,2.42-2.133c0.572,0,1.199,0.094,1.703,0.201
						c0.174,0.041,0.281,0.094,0.281,0.282c0,0.013,0,0.04,0,0.054l-0.4,4.197c1.664-0.24,1.943-1.435,1.943-3.111
						c0-1.689-1.078-3.111-3.273-3.111c-2.328,0-3.713,1.367-3.912,3.406l-0.199,2.039c-0.014,0.147-0.027,0.295-0.027,0.43
						c0,1.609,1.078,2.856,3.354,2.856c0.639,0,1.277-0.04,1.916-0.094h0.014c0.119,0,0.119,0.094,0.119,0.094v0.429
						c0,0.135-0.08,0.175-0.213,0.188c-0.346,0.041-1.051,0.107-1.85,0.107c-2.555,0-4.191-1.447-4.191-3.594
						c0-0.135,0-0.281,0.014-0.416l0.199-2.092c0.227-2.428,1.971-4.131,4.816-4.131c2.742,0,4.111,1.891,4.111,3.889
						C169.603,35.818,169.165,36.838,168.353,37.468z M165.093,33.484c-0.785,0-1.131,0.39-1.211,1.194l-0.146,1.529
						c-0.014,0.08-0.014,0.16-0.014,0.228c0,0.616,0.32,0.925,1.092,0.925c0.094,0,0.186,0,0.279,0c0.199,0,0.387,0,0.572-0.026
						l0.332-3.769C165.718,33.524,165.399,33.484,165.093,33.484z"/>
				</g>
			</g>
			<text transform="matrix(1 0 0 1 170.623 39.8799)" fill="#0A2651" font-family="'NeoSans-Bold'" font-size="13">ScuolaRobotica</text>
		</g>
	</g>
</g>
<g id="_x40_arduino">
	<g id="MASCHERINA_9_">
		
			<image overflow="visible" width="1780" height="1888" xlink:href="AC1BAD7.png"  transform="matrix(0.24 0 0 0.24 -60.0518 -59.9995)">
		</image>
		<g>
			<rect x="-0.052" y="0" fill="#FFFFFF" width="307" height="332.999"/>
		</g>
	</g>
	<g>
		<radialGradient id="Banda_gialla_20_" cx="151.0327" cy="63.4907" r="105.605" gradientUnits="userSpaceOnUse">
			<stop  offset="0" style="stop-color:#FFFF04"/>
			<stop  offset="1" style="stop-color:#E3D904"/>
		</radialGradient>
		<polygon id="Banda_gialla_9_" fill="url(#Banda_gialla_20_)" points="7.533,22.107 7.533,45.874 218.533,45.874 218.533,104.874 
			264.533,104.874 264.533,45.874 294.533,45.874 294.533,22.107 		"/>
		
			<radialGradient id="Freccia_blu_19_" cx="380.0176" cy="816.959" r="9.8262" gradientTransform="matrix(0.7071 0.7071 -0.7071 0.7071 550.6572 -800.5088)" gradientUnits="userSpaceOnUse">
			<stop  offset="0" style="stop-color:#103B7A"/>
			<stop  offset="0.0134" style="stop-color:#103B79"/>
			<stop  offset="1" style="stop-color:#0A264E"/>
		</radialGradient>
		<polygon id="Freccia_blu_9_" fill="url(#Freccia_blu_19_)" points="255.592,45.874 241.695,59.77 227.801,45.874 		"/>
		<radialGradient id="ICONA_13_" cx="242.3896" cy="84.7461" r="15.5128" gradientUnits="userSpaceOnUse">
			<stop  offset="0" style="stop-color:#29AAE1"/>
			<stop  offset="1" style="stop-color:#298CF5"/>
		</radialGradient>
		<path id="ICONA_6_" opacity="0.3" fill="url(#ICONA_13_)" d="M260.479,83.784c-1.275,0.217-3.121-0.009-4.098-0.414
			c2.033-0.168,3.408-1.086,3.939-2.334c-0.732,0.448-3.01,0.937-4.264,0.47c-0.062-0.292-0.131-0.571-0.201-0.825
			c-0.955-3.5-4.232-6.322-7.666-5.981c0.275-0.11,0.557-0.214,0.842-0.31c0.375-0.136,2.592-0.494,2.244-1.273
			c-0.297-0.686-3.004,0.516-3.516,0.675c0.674-0.251,1.787-0.686,1.906-1.458c-1.031,0.144-2.043,0.629-2.826,1.334
			c0.283-0.302,0.496-0.672,0.541-1.069c-2.752,1.753-4.361,5.283-5.66,8.71c-1.021-0.988-1.93-1.764-2.742-2.197
			c-2.277-1.215-5.004-2.485-9.279-4.067c-0.131,1.409,0.699,3.284,3.092,4.53c-0.52-0.07-1.465,0.087-2.225,0.266
			c0.311,1.617,1.318,2.946,4.051,3.59c-1.248,0.082-1.895,0.367-2.479,0.975c0.568,1.125,1.957,2.446,4.453,2.174
			c-2.775,1.191-1.131,3.4,1.127,3.069c-3.854,3.968-9.928,3.675-13.418,0.359c9.109,12.364,28.91,7.311,31.861-4.599
			C258.373,85.425,259.672,84.646,260.479,83.784z"/>
		<g>
			<g id="TESTO_7_">
				<g>
					<path fill="#0A2651" d="M216.193,38.468c-0.824,0.631-2.035,0.859-3.592,0.859c-1.318,0-2.143-0.685-2.143-1.865
						c0-0.08,0-0.16,0.014-0.241l0.146-1.569c0.133-1.368,0.984-2.133,2.42-2.133c0.572,0,1.199,0.094,1.703,0.201
						c0.174,0.041,0.281,0.094,0.281,0.282c0,0.013,0,0.04,0,0.054l-0.4,4.197c1.664-0.24,1.943-1.435,1.943-3.111
						c0-1.689-1.078-3.111-3.273-3.111c-2.328,0-3.713,1.367-3.912,3.406l-0.199,2.039c-0.014,0.147-0.027,0.295-0.027,0.43
						c0,1.609,1.078,2.856,3.354,2.856c0.639,0,1.277-0.04,1.916-0.094h0.014c0.119,0,0.119,0.094,0.119,0.094v0.429
						c0,0.135-0.08,0.175-0.213,0.188c-0.346,0.041-1.051,0.107-1.85,0.107c-2.555,0-4.191-1.447-4.191-3.594
						c0-0.135,0-0.281,0.014-0.416l0.199-2.092c0.227-2.428,1.971-4.131,4.816-4.131c2.742,0,4.111,1.891,4.111,3.889
						C217.443,36.818,217.005,37.838,216.193,38.468z M212.933,34.484c-0.785,0-1.131,0.39-1.211,1.194l-0.146,1.529
						c-0.014,0.08-0.014,0.16-0.014,0.228c0,0.616,0.32,0.925,1.092,0.925c0.094,0,0.186,0,0.279,0c0.199,0,0.387,0,0.572-0.026
						l0.332-3.769C213.558,34.524,213.24,34.484,212.933,34.484z"/>
				</g>
			</g>
			<g>
				<g>
					<path fill="#0A2651" d="M224.262,40.167h-1.456c-0.144,0-0.261-0.117-0.261-0.26v-0.208c-0.507,0.364-1.026,0.585-1.807,0.585
						c-1.131,0-2.223-0.546-2.223-2.236v-0.117c0-1.521,0.975-2.197,3.198-2.197h0.702v-0.468c0-0.741-0.363-0.897-0.975-0.897
						c-0.832,0-1.755,0.052-2.158,0.091h-0.065c-0.13,0-0.234-0.065-0.234-0.234v-1.053c0-0.143,0.091-0.247,0.247-0.286
						c0.481-0.117,1.391-0.273,2.25-0.273c1.872,0,3.042,0.754,3.042,2.652v4.642C224.521,40.05,224.404,40.167,224.262,40.167z
						 M222.454,36.982h-0.741c-0.91,0-1.144,0.312-1.144,0.949v0.117c0,0.546,0.273,0.65,0.819,0.65c0.39,0,0.754-0.13,1.066-0.286
						V36.982z"/>
					<path fill="#0A2651" d="M229.968,34.356h-0.104c-0.638,0-1.196,0.195-1.678,0.455v5.083c0,0.143-0.116,0.273-0.26,0.273h-1.573
						c-0.143,0-0.272-0.13-0.272-0.273v-6.917c0-0.143,0.117-0.26,0.26-0.26h1.547c0.144,0,0.26,0.117,0.26,0.26v0.26
						c0.481-0.403,1.132-0.624,1.756-0.624c0.143,0,0.26,0.117,0.26,0.26v1.235C230.163,34.226,230.085,34.356,229.968,34.356z"/>
					<path fill="#0A2651" d="M237.027,39.946c-0.741,0.182-1.768,0.338-2.769,0.338c-2.106,0-3.264-1.222-3.264-3.328v-1.014
						c0-2.041,1.066-3.328,3.264-3.328c0.26,0,0.688,0.039,1.065,0.091v-2.249c0-0.143,0.117-0.26,0.26-0.26h1.573
						c0.144,0,0.273,0.117,0.273,0.26v9.113C237.431,39.777,237.379,39.868,237.027,39.946z M235.324,34.421
						c-0.312-0.039-0.754-0.065-1.065-0.065c-0.924,0-1.157,0.676-1.157,1.586v1.014c0,0.923,0.233,1.599,1.157,1.599
						c0.429,0,0.818-0.039,1.065-0.078V34.421z"/>
					<path fill="#0A2651" d="M245.126,40.167h-1.456c-0.143,0-0.26-0.117-0.26-0.26v-0.312c-0.715,0.507-1.287,0.676-2.119,0.676
						c-1.885,0-2.301-1.313-2.301-2.951v-4.329c0-0.143,0.13-0.273,0.272-0.273h1.573c0.144,0,0.26,0.13,0.26,0.273v4.329
						c0,0.91,0.169,1.209,0.962,1.209c0.378,0,0.78-0.182,1.223-0.416v-5.122c0-0.143,0.117-0.273,0.26-0.273h1.573
						c0.143,0,0.272,0.13,0.272,0.273v6.917C245.386,40.05,245.27,40.167,245.126,40.167z"/>
					<path fill="#0A2651" d="M248.896,31.873h-1.69c-0.143,0-0.26-0.117-0.26-0.26v-1.209c0-0.143,0.117-0.26,0.26-0.26h1.69
						c0.143,0,0.26,0.117,0.26,0.26v1.209C249.156,31.756,249.039,31.873,248.896,31.873z M248.844,40.167h-1.586
						c-0.143,0-0.26-0.117-0.26-0.26v-6.93c0-0.143,0.117-0.26,0.26-0.26h1.586c0.144,0,0.261,0.117,0.261,0.26v6.93
						C249.104,40.05,248.987,40.167,248.844,40.167z"/>
					<path fill="#0A2651" d="M256.839,40.167h-1.573c-0.143,0-0.26-0.13-0.26-0.273v-4.329c0-0.91-0.169-1.209-0.962-1.209
						c-0.377,0-0.78,0.182-1.223,0.416v5.122c0,0.143-0.116,0.273-0.26,0.273h-1.573c-0.143,0-0.272-0.13-0.272-0.273v-6.917
						c0-0.143,0.117-0.26,0.26-0.26h1.456c0.143,0,0.26,0.117,0.26,0.26v0.312c0.715-0.507,1.287-0.676,2.119-0.676
						c1.886,0,2.302,1.313,2.302,2.951v4.329C257.112,40.037,256.981,40.167,256.839,40.167z"/>
					<path fill="#0A2651" d="M261.727,40.284c-2.105,0-3.263-1.313-3.263-3.38v-0.91c0-2.067,1.157-3.38,3.263-3.38
						c2.106,0,3.25,1.313,3.25,3.38v0.91C264.977,38.971,263.833,40.284,261.727,40.284z M262.884,35.994
						c0-1.053-0.403-1.586-1.157-1.586s-1.17,0.533-1.17,1.586v0.91c0,1.053,0.416,1.599,1.17,1.599s1.157-0.546,1.157-1.599V35.994
						z"/>
				</g>
			</g>
		</g>
	</g>
</g>
<g id="Formato_basso__x28__x40_cattidsapienza_x29_">
	<g>
		<g>
			
				<radialGradient id="Banda_gialla_21_" cx="138.3779" cy="213.8867" r="106.3983" gradientTransform="matrix(0.9559 0 0 1 18.7764 0)" gradientUnits="userSpaceOnUse">
				<stop  offset="0" style="stop-color:#FFFF04"/>
				<stop  offset="1" style="stop-color:#E3D904"/>
			</radialGradient>
			<polygon id="Banda_gialla_10_" fill="url(#Banda_gialla_21_)" points="7.667,202.003 7.667,225.77 53.549,225.77 53.549,225.77 
				97.519,225.77 97.519,225.77 294.427,225.77 294.427,202.003 			"/>
		</g>
		<g id="TESTO_8_">
			<g>
				<path fill="#0A2651" d="M156.33,217.462c-0.824,0.631-2.035,0.859-3.592,0.859c-1.318,0-2.143-0.685-2.143-1.865
					c0-0.08,0-0.16,0.014-0.241l0.146-1.569c0.133-1.368,0.984-2.133,2.421-2.133c0.572,0,1.198,0.094,1.703,0.201
					c0.173,0.041,0.28,0.094,0.28,0.282c0,0.013,0,0.04,0,0.054l-0.4,4.197c1.664-0.24,1.943-1.435,1.943-3.111
					c0-1.689-1.078-3.111-3.273-3.111c-2.328,0-3.713,1.367-3.912,3.406l-0.199,2.039c-0.014,0.147-0.027,0.295-0.027,0.43
					c0,1.609,1.078,2.856,3.354,2.856c0.639,0,1.277-0.04,1.916-0.094h0.014c0.119,0,0.119,0.094,0.119,0.094v0.429
					c0,0.135-0.08,0.175-0.213,0.188c-0.346,0.041-1.051,0.107-1.85,0.107c-2.555,0-4.191-1.447-4.191-3.594
					c0-0.135,0-0.281,0.014-0.416l0.199-2.092c0.227-2.428,1.971-4.131,4.817-4.131c2.741,0,4.111,1.891,4.111,3.889
					C157.581,215.813,157.143,216.833,156.33,217.462z M153.07,213.479c-0.785,0-1.131,0.39-1.211,1.194l-0.146,1.529
					c-0.014,0.08-0.014,0.16-0.014,0.228c0,0.616,0.32,0.925,1.092,0.925c0.094,0,0.186,0,0.279,0c0.199,0,0.387,0,0.572-0.026
					l0.332-3.769C153.695,213.519,153.377,213.479,153.07,213.479z"/>
				<path fill="#0A2651" d="M164.695,219.938c-0.199,0.054-1.077,0.215-2.102,0.215c-1.598,0-3.766-0.792-3.766-4.104v-1.972
					c0-3.366,2.168-4.104,3.766-4.104c1.024,0,1.902,0.162,2.102,0.215c0.174,0.054,0.293,0.121,0.293,0.309v0.898
					c0,0.161-0.066,0.281-0.266,0.281c0,0-0.014,0-0.027,0c-0.465-0.039-1.37-0.106-2.075-0.106c-1.118,0-1.929,0.604-1.929,2.508
					v1.972c0,1.864,0.811,2.508,1.929,2.508c0.705,0,1.61-0.066,2.075-0.107c0.014,0,0.027,0,0.027,0
					c0.199,0,0.266,0.121,0.266,0.282v0.898C164.988,219.818,164.869,219.884,164.695,219.938z"/>
				<path fill="#0A2651" d="M173.688,220.045h-1.41c-0.119,0-0.227-0.107-0.253-0.228l-0.612-2.549h-3.061l-0.611,2.549
					c-0.027,0.12-0.133,0.228-0.253,0.228h-1.411c-0.133,0-0.238-0.094-0.238-0.228c0-0.014,0.013-0.041,0.013-0.067l2.183-8.409
					c0.318-1.248,1.277-1.369,1.85-1.369s1.529,0.121,1.85,1.369l2.182,8.409c0,0.026,0.014,0.054,0.014,0.067
					C173.928,219.952,173.82,220.045,173.688,220.045z M170.096,211.756c-0.041-0.161-0.08-0.214-0.213-0.214
					c-0.134,0-0.174,0.053-0.213,0.214l-0.959,3.983h2.342L170.096,211.756z"/>
				<path fill="#0A2651" d="M181.281,211.636h-2.328v8.141c0,0.148-0.119,0.269-0.266,0.269h-1.317c-0.147,0-0.267-0.12-0.267-0.269
					v-8.141h-2.328c-0.146,0-0.266-0.094-0.266-0.242v-1.059c0-0.148,0.119-0.256,0.266-0.256h6.506
					c0.146,0,0.268,0.107,0.268,0.256v1.059C181.549,211.542,181.428,211.636,181.281,211.636z"/>
				<path fill="#0A2651" d="M188.982,211.636h-2.328v8.141c0,0.148-0.119,0.269-0.266,0.269h-1.318c-0.146,0-0.266-0.12-0.266-0.269
					v-8.141h-2.328c-0.146,0-0.267-0.094-0.267-0.242v-1.059c0-0.148,0.12-0.256,0.267-0.256h6.506c0.146,0,0.266,0.107,0.266,0.256
					v1.059C189.248,211.542,189.129,211.636,188.982,211.636z"/>
				<path fill="#0A2651" d="M192.16,220.045h-1.317c-0.146,0-0.267-0.12-0.267-0.269v-9.441c0-0.148,0.12-0.256,0.267-0.256h1.317
					c0.146,0,0.266,0.107,0.266,0.256v9.441C192.426,219.925,192.307,220.045,192.16,220.045z"/>
				<path fill="#0A2651" d="M197.387,220.153c-0.943,0-2.221-0.095-2.621-0.161c-0.227-0.04-0.346-0.147-0.346-0.416v-9.026
					c0-0.269,0.119-0.376,0.346-0.415c0.4-0.068,1.678-0.162,2.621-0.162c2.662,0,4.179,1.449,4.179,4.104v1.972
					C201.565,218.705,200.049,220.153,197.387,220.153z M199.729,214.077c0-2.012-1.01-2.534-2.342-2.534
					c-0.492,0-0.838,0.026-1.117,0.039v6.961c0.279,0.014,0.625,0.041,1.117,0.041c1.332,0,2.342-0.523,2.342-2.535V214.077z"/>
				<path fill="#0A2651" d="M205.779,220.153c-0.997,0-1.716-0.095-2.354-0.241c-0.133-0.027-0.253-0.121-0.253-0.269v-0.966
					c0-0.147,0.12-0.255,0.253-0.255c0.013,0,0.013,0,0.026,0c0.533,0.067,1.863,0.134,2.355,0.134c1.184,0,1.543-0.429,1.543-1.207
					c0-0.523-0.252-0.791-1.131-1.314l-1.756-1.059c-1.238-0.738-1.57-1.516-1.57-2.455c0-1.476,0.852-2.549,3.326-2.549
					c0.879,0,2.102,0.135,2.555,0.242c0.133,0.026,0.24,0.121,0.24,0.254v0.993c0,0.134-0.094,0.241-0.227,0.241
					c-0.014,0-0.014,0-0.027,0c-0.877-0.08-1.756-0.134-2.621-0.134c-0.984,0-1.396,0.349-1.396,0.952
					c0,0.443,0.227,0.711,1.092,1.193l1.596,0.898c1.464,0.818,1.85,1.678,1.85,2.736
					C209.279,218.705,208.441,220.153,205.779,220.153z"/>
				<path fill="#0A2651" d="M217.979,220.045h-1.41c-0.121,0-0.227-0.107-0.254-0.228l-0.611-2.549h-3.061l-0.611,2.549
					c-0.027,0.12-0.134,0.228-0.254,0.228h-1.41c-0.133,0-0.239-0.094-0.239-0.228c0-0.014,0.013-0.041,0.013-0.067l2.182-8.409
					c0.32-1.248,1.278-1.369,1.85-1.369c0.572,0,1.531,0.121,1.85,1.369l2.184,8.409c0,0.026,0.013,0.054,0.013,0.067
					C218.218,219.952,218.111,220.045,217.979,220.045z M214.386,211.756c-0.04-0.161-0.08-0.214-0.214-0.214
					c-0.133,0-0.172,0.053-0.212,0.214l-0.958,3.983h2.342L214.386,211.756z"/>
				<path fill="#0A2651" d="M222.499,216.33c-0.347,0-0.878-0.039-1.185-0.053v3.5c0,0.148-0.105,0.269-0.252,0.269h-1.331
					c-0.146,0-0.267-0.12-0.267-0.269v-9.228c0-0.269,0.16-0.362,0.426-0.402c0.692-0.107,1.637-0.175,2.608-0.175
					c2.049,0,3.832,0.725,3.832,3.099v0.12C226.331,215.566,224.548,216.33,222.499,216.33z M224.494,213.071
					c0-1.126-0.664-1.556-1.995-1.556c-0.28,0-0.944,0.027-1.185,0.054v3.192c0.213,0.014,0.959,0.04,1.185,0.04
					c1.437,0,1.995-0.536,1.995-1.61V213.071z"/>
				<path fill="#0A2651" d="M229.375,220.045h-1.317c-0.146,0-0.267-0.12-0.267-0.269v-9.441c0-0.148,0.12-0.256,0.267-0.256h1.317
					c0.146,0,0.266,0.107,0.266,0.256v9.441C229.641,219.925,229.521,220.045,229.375,220.045z"/>
				<path fill="#0A2651" d="M237.236,219.964c-0.426,0.068-0.944,0.188-2.527,0.188c-1.73,0-3.074-0.47-3.074-2.749v-4.682
					c0-2.28,1.344-2.75,3.074-2.75c1.583,0,2.102,0.121,2.527,0.188c0.199,0.026,0.266,0.094,0.266,0.281v0.858
					c0,0.148-0.119,0.269-0.266,0.269h-2.714c-0.772,0-1.052,0.269-1.052,1.153v1.449h3.606c0.146,0,0.267,0.12,0.267,0.268v0.966
					c0,0.147-0.121,0.269-0.267,0.269h-3.606v1.73c0,0.885,0.279,1.152,1.052,1.152h2.714c0.146,0,0.266,0.121,0.266,0.269v0.858
					C237.502,219.871,237.436,219.938,237.236,219.964z"/>
				<path fill="#0A2651" d="M246.242,220.045h-1.344c-0.32,0-0.6,0-0.812-0.483l-2.953-6.531c-0.041-0.08-0.08-0.107-0.12-0.107
					s-0.066,0.027-0.066,0.107v6.746c0,0.148-0.106,0.269-0.253,0.269h-1.131c-0.146,0-0.266-0.12-0.266-0.269v-9.16
					c0-0.295,0.238-0.537,0.531-0.537h1.438c0.279,0,0.426,0.081,0.586,0.43l3.1,6.895c0.027,0.066,0.066,0.106,0.106,0.106
					c0.026,0,0.066-0.04,0.066-0.12v-7.055c0-0.148,0.106-0.256,0.253-0.256h1.145c0.146,0,0.252,0.107,0.252,0.256v9.174
					C246.773,219.804,246.535,220.045,246.242,220.045z"/>
				<path fill="#0A2651" d="M254.793,220.045h-5.814c-0.385,0-0.678-0.134-0.678-0.496v-0.737c0-0.162,0.039-0.309,0.172-0.51
					l4.219-6.371c0.026-0.041,0.039-0.08,0.039-0.121c0-0.066-0.039-0.107-0.133-0.107h-3.699c-0.146,0-0.252-0.094-0.252-0.241
					v-1.126c0-0.148,0.105-0.256,0.252-0.256h5.363c0.385,0,0.705,0.161,0.705,0.51v0.778c0,0.188-0.08,0.389-0.187,0.55
					l-4.151,6.264c-0.04,0.054-0.053,0.107-0.053,0.147c0,0.054,0.025,0.081,0.119,0.081h4.098c0.146,0,0.267,0.094,0.267,0.24
					v1.127C255.06,219.925,254.939,220.045,254.793,220.045z"/>
				<path fill="#0A2651" d="M263.691,220.045h-1.41c-0.119,0-0.227-0.107-0.252-0.228l-0.613-2.549h-3.061l-0.611,2.549
					c-0.026,0.12-0.133,0.228-0.252,0.228h-1.411c-0.133,0-0.239-0.094-0.239-0.228c0-0.014,0.014-0.041,0.014-0.067l2.182-8.409
					c0.318-1.248,1.277-1.369,1.85-1.369s1.529,0.121,1.85,1.369l2.182,8.409c0,0.026,0.014,0.054,0.014,0.067
					C263.932,219.952,263.825,220.045,263.691,220.045z M260.1,211.756c-0.04-0.161-0.08-0.214-0.213-0.214
					s-0.174,0.053-0.213,0.214l-0.958,3.983h2.342L260.1,211.756z"/>
			</g>
		</g>
	</g>
</g>
</svg>
