<?xml version="1.0" encoding="utf-8"?>
<!-- Generator: Adobe Illustrator 15.0.2, SVG Export Plug-In . SVG Version: 6.00 Build 0)  -->
<!--<!DOCTYPE svg PUBLIC "-//W3C//DTD SVG 1.1//EN" "http://www.w3.org/Graphics/SVG/1.1/DTD/svg11.dtd">-->
<!--
<svg version="1.1" xmlns="http://www.w3.org/2000/svg" xmlns:xlink="http://www.w3.org/1999/xlink" x="0px" y="0px" width="2048px"
	 height="1536px" viewBox="0 0 2048 1536" enable-background="new 0 0 2048 1536" xml:space="preserve"> -->
<svg version="1.1" xmlns="http://www.w3.org/2000/svg" xmlns:xlink="http://www.w3.org/1999/xlink" x="0px" y="0px" width="1024px"
	 height="768px" viewBox="0 0 1024 768" enable-background="new 0 0 1024 768" xml:space="preserve">

  <defs>

    <g id="ombra_polaroid">
      <image overflow="visible" width="427" height="454" xlink:href="ombra_polaroid.png"  transform="translate(-60 -60)"/>
      <!--<rect x="0" y="0" fill="#FFFFFF" width="307" height="333"/>-->
    </g>

    <rect id="blue_layer" x="4" y="9" opacity="0.55" fill="#29AAE1" width="303" height="236.283"/>

    <radialGradient id="grad_bg_icona" cx="0" cy="0" r="22.8032" gradientUnits="userSpaceOnUse">
      <stop  offset="0" style="stop-color:#103B7A"/>
      <stop  offset="0.0134" style="stop-color:#103B79"/>
      <stop  offset="1" style="stop-color:#0A264E"/>
    </radialGradient>

    <rect id="bg_icona" x="-13" y="-23" fill="url(#grad_bg_icona)" width="45.6" height="45.613"/>

    <radialGradient id="grad_icona" cx="0" cy="7" r="12.2365" gradientUnits="userSpaceOnUse">
      <stop  offset="0" style="stop-color:#F5F5F5"/>
      <stop  offset="0.8535" style="stop-color:#F5F5F5"/>
      <stop  offset="1" style="stop-color:#F5F5F5"/>
    </radialGradient>

    <radialGradient id="grad_fg_icona" cx="0" cy="-9" r="6.3667" gradientUnits="userSpaceOnUse">
      <stop  offset="0" style="stop-color:#F5F5F5"/>
      <stop  offset="0.8535" style="stop-color:#F5F5F5"/>
      <stop  offset="1" style="stop-color:#F5F5F5"/>
    </radialGradient>
    <ellipse id="fg_icona" fill-rule="evenodd" clip-rule="evenodd" fill="url(#grad_fg_icona)" cx="0" cy="-9" rx="6.382" ry="6.352"/>

    <g id="icone_top_menu" transform="translate(912,-178)">

		<g>
			<radialGradient id="SVGID_21_" cx="-840.1846" cy="258.124" r="22.8032" gradientUnits="userSpaceOnUse">
				<stop  offset="0" style="stop-color:#103B7A"/>
				<stop  offset="0.0134" style="stop-color:#103B79"/>
				<stop  offset="1" style="stop-color:#0A264E"/>
			</radialGradient>
			<rect x="-862.984" y="235.317" fill="url(#SVGID_21_)" width="45.6" height="45.613"/>
			<radialGradient id="SVGID_22_" cx="-840.1846" cy="258.124" r="22.8032" gradientUnits="userSpaceOnUse">
				<stop  offset="0" style="stop-color:#103B7A"/>
				<stop  offset="0.0134" style="stop-color:#103B79"/>
				<stop  offset="1" style="stop-color:#0A264E"/>
			</radialGradient>
			<rect x="-862.984" y="235.317" fill="url(#SVGID_22_)" width="45.6" height="45.613"/>
			<radialGradient id="SVGID_23_" cx="-840.1826" cy="265.0771" r="12.2365" gradientUnits="userSpaceOnUse">
				<stop  offset="0" style="stop-color:#F5F5F5"/>
				<stop  offset="0.8535" style="stop-color:#F5F5F5"/>
				<stop  offset="1" style="stop-color:#F5F5F5"/>
			</radialGradient>
			<path fill-rule="evenodd" clip-rule="evenodd" fill="url(#SVGID_23_)" d="M-839.1,256.678h-8.84
				c-8.971,0.1-7.238,16.799-7.238,16.799h5.613v-5.295v-0.9c0,0,0.754-0.905,1.402,0.056v6.14h15.957v-6.14h1.383l0.021,0.845
				v5.295h5.613c0,0,1.732-16.699-7.238-16.799h-7.766"/>
			<radialGradient id="SVGID_24_" cx="-840.3896" cy="248.7979" r="6.3667" gradientUnits="userSpaceOnUse">
				<stop  offset="0" style="stop-color:#F5F5F5"/>
				<stop  offset="0.8535" style="stop-color:#F5F5F5"/>
				<stop  offset="1" style="stop-color:#F5F5F5"/>
			</radialGradient>
			<ellipse fill-rule="evenodd" clip-rule="evenodd" fill="url(#SVGID_24_)" cx="-840.39" cy="248.798" rx="6.382" ry="6.352"/>
		</g>
		<g>
			<radialGradient id="SVGID_25_" cx="-784.0518" cy="258.1743" r="22.7435" gradientUnits="userSpaceOnUse">
				<stop  offset="0" style="stop-color:#103B7A"/>
				<stop  offset="0.0134" style="stop-color:#103B79"/>
				<stop  offset="1" style="stop-color:#0A264E"/>
			</radialGradient>
			<rect x="-806.732" y="235.368" fill="url(#SVGID_25_)" width="45.361" height="45.612"/>
			<g>
				<radialGradient id="SVGID_26_" cx="-788.1631" cy="261.125" r="12.1418" gradientUnits="userSpaceOnUse">
					<stop  offset="0" style="stop-color:#F5F5F5"/>
					<stop  offset="0.8535" style="stop-color:#F5F5F5"/>
					<stop  offset="1" style="stop-color:#F5F5F5"/>
				</radialGradient>
				<path fill="url(#SVGID_26_)" d="M-777.742,262.479l1.783-0.505l-0.131-2.352l-1.838-0.391l-0.855-2.018l1.512-1.508
					l-1.051-1.829l-1.967,0.522l-1.336-1.219l0.285-2.045l-2.1-1.045l-1.576,1.436l-1.604-0.456l-0.756-2.024l-2.232,0.13
					l-0.523,2.091l-1.52,0.432l-2.023-1.347l-1.707,1.306l0.525,1.828l-1.443,1.437l-1.969-0.522l-1.18,2.219l1.705,1.309
					l-0.525,2.088l-2.1,0.391v2.221l2.232,0.523l0.488,1.878l-1.408,1.517l1.312,1.959l1.969-0.784l1.441,1.566l-0.523,1.959
					l2.1,1.045l1.443-1.696l1.838,0.521l0.525,2.091h2.361l0.523-2.091l1.969-0.392l1.707,1.828l1.916-1.314l-0.867-2.21
					l1.574-1.567l1.969,0.652l1.041-2.379l-1.566-1.145L-777.742,262.479z M-788.096,268.201c-3.928,0-7.113-3.17-7.113-7.079
					c0-3.908,3.186-7.077,7.113-7.077s7.111,3.169,7.111,7.077C-780.984,265.031-784.168,268.201-788.096,268.201z"/>
				<radialGradient id="SVGID_27_" cx="-790.4258" cy="263.1206" r="1.5921" gradientUnits="userSpaceOnUse">
					<stop  offset="0" style="stop-color:#F5F5F5"/>
					<stop  offset="0.8535" style="stop-color:#F5F5F5"/>
					<stop  offset="1" style="stop-color:#F5F5F5"/>
				</radialGradient>
				<path fill="url(#SVGID_27_)" d="M-791.791,262.942l-0.234,0.066l0.016,0.308l0.242,0.052l0.113,0.265l-0.199,0.198l0.137,0.238
					l0.26-0.066l0.176,0.159l-0.039,0.269l0.275,0.137l0.205-0.188l0.211,0.059l0.102,0.267l0.291-0.019l0.068-0.273l0.201-0.058
					l0.266,0.179l0.223-0.173l-0.068-0.24l0.188-0.187l0.26,0.068l0.154-0.292l-0.223-0.171l0.068-0.273l0.273-0.052v-0.291
					l-0.291-0.069l-0.064-0.246l0.186-0.2l-0.172-0.255l-0.26,0.102l-0.189-0.205l0.07-0.258l-0.277-0.136l-0.188,0.222l-0.24-0.068
					l-0.07-0.273h-0.309l-0.07,0.273l-0.258,0.053l-0.223-0.242l-0.252,0.174l0.113,0.291l-0.207,0.205l-0.256-0.087l-0.139,0.313
					l0.205,0.149L-791.791,262.942z M-790.434,262.19c0.516,0,0.932,0.418,0.932,0.931c0,0.512-0.416,0.927-0.932,0.927
					c-0.514,0-0.936-0.415-0.936-0.927C-791.369,262.608-790.947,262.19-790.434,262.19z"/>
				<radialGradient id="SVGID_28_" cx="-788.584" cy="259.3501" r="2.4934" gradientUnits="userSpaceOnUse">
					<stop  offset="0" style="stop-color:#F5F5F5"/>
					<stop  offset="0.8535" style="stop-color:#F5F5F5"/>
					<stop  offset="1" style="stop-color:#F5F5F5"/>
				</radialGradient>
				<path fill="url(#SVGID_28_)" d="M-790.725,259.071l-0.365,0.105l0.027,0.481l0.375,0.08l0.176,0.415l-0.309,0.31l0.215,0.375
					l0.406-0.106l0.271,0.249l-0.057,0.42l0.43,0.214l0.322-0.293l0.33,0.093l0.156,0.417l0.459-0.027l0.107-0.43l0.311-0.088
					l0.418,0.275l0.35-0.268l-0.109-0.375l0.297-0.297l0.404,0.109l0.242-0.457l-0.35-0.269l0.107-0.429l0.432-0.08v-0.455
					l-0.459-0.107l-0.1-0.385l0.287-0.312l-0.268-0.402l-0.404,0.162l-0.297-0.323l0.107-0.401l-0.43-0.216l-0.297,0.349
					l-0.377-0.106l-0.107-0.43h-0.486l-0.107,0.43l-0.404,0.081l-0.35-0.377l-0.395,0.271l0.18,0.451l-0.324,0.324l-0.404-0.135
					l-0.213,0.488l0.32,0.235L-790.725,259.071z M-788.598,257.897c0.807,0,1.459,0.648,1.459,1.453
					c0,0.803-0.652,1.453-1.459,1.453s-1.461-0.65-1.461-1.453C-790.059,258.546-789.404,257.897-788.598,257.897z"/>
				<radialGradient id="SVGID_29_" cx="-785.8838" cy="263.7871" r="2.6866" gradientUnits="userSpaceOnUse">
					<stop  offset="0" style="stop-color:#F5F5F5"/>
					<stop  offset="0.8535" style="stop-color:#F5F5F5"/>
					<stop  offset="1" style="stop-color:#F5F5F5"/>
				</radialGradient>
				<path fill="url(#SVGID_29_)" d="M-788.189,263.486l-0.395,0.112l0.027,0.52l0.406,0.086l0.191,0.447l-0.336,0.334l0.232,0.404
					l0.436-0.113l0.297,0.268l-0.064,0.453l0.465,0.23l0.348-0.318l0.355,0.101l0.168,0.45l0.494-0.029l0.115-0.465l0.336-0.094
					l0.447,0.298l0.377-0.29l-0.115-0.404l0.32-0.318l0.434,0.119l0.264-0.494l-0.379-0.287l0.115-0.463l0.467-0.087v-0.491
					l-0.494-0.115l-0.107-0.416l0.309-0.334l-0.289-0.434l-0.436,0.17l-0.318-0.344l0.115-0.435l-0.465-0.229l-0.318,0.373
					l-0.406-0.113l-0.117-0.463h-0.521l-0.117,0.463l-0.436,0.086l-0.377-0.404l-0.424,0.291l0.191,0.488l-0.346,0.348l-0.438-0.145
					l-0.23,0.525l0.346,0.254L-788.189,263.486z M-785.898,262.221c0.867,0,1.572,0.701,1.572,1.566
					c0,0.864-0.705,1.566-1.572,1.566c-0.869,0-1.574-0.702-1.574-1.566C-787.473,262.922-786.768,262.221-785.898,262.221z"/>
				<radialGradient id="SVGID_30_" cx="-774.1084" cy="248.916" r="6.338" gradientUnits="userSpaceOnUse">
					<stop  offset="0" style="stop-color:#F5F5F5"/>
					<stop  offset="0.8535" style="stop-color:#F5F5F5"/>
					<stop  offset="1" style="stop-color:#F5F5F5"/>
				</radialGradient>
				<path fill="url(#SVGID_30_)" d="M-779.549,248.21l-0.93,0.262l0.066,1.227l0.961,0.205l0.445,1.054l-0.789,0.787l0.549,0.954
					l1.027-0.271l0.697,0.636l-0.148,1.067l1.096,0.546l0.822-0.75l0.84,0.237l0.393,1.059l1.164-0.068l0.275-1.09l0.793-0.227
					l1.055,0.703l0.891-0.682l-0.271-0.955l0.752-0.75l1.027,0.273l0.617-1.16l-0.893-0.68l0.275-1.091l1.096-0.206v-1.157
					l-1.164-0.274l-0.256-0.979l0.734-0.792l-0.686-1.023l-1.025,0.411l-0.754-0.819l0.275-1.023l-1.096-0.543l-0.754,0.883
					l-0.961-0.271l-0.273-1.09h-1.232l-0.275,1.09l-1.025,0.205l-0.893-0.953l-1,0.686l0.453,1.155l-0.822,0.816l-1.027-0.342
					l-0.545,1.244l0.818,0.597L-779.549,248.21z M-774.145,245.222c2.053,0,3.713,1.654,3.713,3.695c0,2.04-1.66,3.693-3.713,3.693
					c-2.049,0-3.713-1.653-3.713-3.693C-777.857,246.876-776.193,245.222-774.145,245.222z"/>
			</g>
		</g>
		<g>
			<radialGradient id="SVGID_31_" cx="-671.707" cy="258.1934" r="22.8027" gradientUnits="userSpaceOnUse">
				<stop  offset="0" style="stop-color:#103B7A"/>
				<stop  offset="0.0134" style="stop-color:#103B79"/>
				<stop  offset="1" style="stop-color:#0A264E"/>
			</radialGradient>
			<rect x="-694.506" y="235.387" fill="url(#SVGID_31_)" width="45.598" height="45.613"/>
			<radialGradient id="SVGID_32_" cx="-671.707" cy="257.9043" r="15.5122" gradientUnits="userSpaceOnUse">
				<stop  offset="0" style="stop-color:#F5F5F5"/>
				<stop  offset="0.8535" style="stop-color:#F5F5F5"/>
				<stop  offset="1" style="stop-color:#F5F5F5"/>
			</radialGradient>
			<path fill="url(#SVGID_32_)" d="M-653.619,256.942c-1.275,0.217-3.121-0.009-4.098-0.414c2.033-0.168,3.408-1.086,3.939-2.334
				c-0.732,0.448-3.01,0.937-4.264,0.47c-0.062-0.292-0.131-0.571-0.201-0.825c-0.955-3.5-4.232-6.322-7.666-5.981
				c0.275-0.11,0.557-0.214,0.842-0.31c0.375-0.136,2.592-0.494,2.244-1.273c-0.297-0.686-3.004,0.516-3.516,0.675
				c0.674-0.251,1.787-0.686,1.906-1.458c-1.031,0.144-2.043,0.629-2.826,1.334c0.283-0.302,0.496-0.672,0.543-1.069
				c-2.754,1.753-4.363,5.283-5.662,8.71c-1.021-0.988-1.93-1.764-2.742-2.197c-2.277-1.215-5.004-2.485-9.279-4.067
				c-0.131,1.409,0.699,3.284,3.092,4.53c-0.52-0.07-1.465,0.087-2.223,0.266c0.309,1.617,1.318,2.946,4.049,3.59
				c-1.246,0.082-1.895,0.367-2.479,0.975c0.57,1.125,1.957,2.446,4.453,2.174c-2.775,1.191-1.131,3.4,1.127,3.069
				c-3.854,3.968-9.928,3.675-13.416,0.359c9.107,12.364,28.908,7.311,31.859-4.599
				C-655.723,258.583-654.426,257.804-653.619,256.942z"/>
		</g>
		<g>
			<radialGradient id="SVGID_33_" cx="-728.373" cy="258.1934" r="22.793" gradientUnits="userSpaceOnUse">
				<stop  offset="0" style="stop-color:#103B7A"/>
				<stop  offset="0.0134" style="stop-color:#103B79"/>
				<stop  offset="1" style="stop-color:#0A264E"/>
			</radialGradient>
			<rect x="-751.152" y="235.387" fill="url(#SVGID_33_)" width="45.559" height="45.613"/>
			<radialGradient id="SVGID_34_" cx="-715.7734" cy="252.7871" r="6.8176" gradientUnits="userSpaceOnUse">
				<stop  offset="0" style="stop-color:#F5F5F5"/>
				<stop  offset="0.8535" style="stop-color:#F5F5F5"/>
				<stop  offset="1" style="stop-color:#F5F5F5"/>
			</radialGradient>
			<path fill="url(#SVGID_34_)" d="M-709.865,245.187L-709.865,245.187c0,0-11.297,4.857-11.812,6.707
				c-0.516,1.849,6.203,6.006,6.203,6.006l-1.469,0.799c0,0,0.045,2.015,2.141,1.645l4.961-1.271"/>
			<path fill="#0A264E" d="M-721.705,251.792c0,0,0.611-1.576,2.867-1.008c0,0,3.928,3.891,4.301,6.771c0,0,0.291,2.294-2.57,1.339
				c-2.861-0.953-2.117-2.684-2.117-2.684l-2.48-4.307"/>
			<radialGradient id="SVGID_35_" cx="-727.5234" cy="260.8481" r="8.1717" gradientUnits="userSpaceOnUse">
				<stop  offset="0" style="stop-color:#F5F5F5"/>
				<stop  offset="0.8535" style="stop-color:#F5F5F5"/>
				<stop  offset="1" style="stop-color:#F5F5F5"/>
			</radialGradient>
			<path fill="url(#SVGID_35_)" stroke="#0A264E" stroke-width="0.2146" stroke-miterlimit="10" d="M-719.893,262.681
				c2.227-0.393,1.357-2.732,1.357-2.732l-8.246-3.16l-2.625-2.359l0.117-0.633l-6.342,1.015c0,0,0.193,6.972-1.047,8.7l2.729,1.262
				l10.258,3.128c0,0,1.049-0.109,0.992-1.372c0,0,1.379,0.068,1.441-1.482C-721.258,265.046-719.236,264.526-719.893,262.681
				c0,0-2.447-2.116-3.832-1.834"/>
			<radialGradient id="SVGID_36_" cx="-724.1904" cy="255.9399" r="6.9132" gradientUnits="userSpaceOnUse">
				<stop  offset="0" style="stop-color:#F5F5F5"/>
				<stop  offset="0.8535" style="stop-color:#F5F5F5"/>
				<stop  offset="1" style="stop-color:#F5F5F5"/>
			</radialGradient>
			<path fill="url(#SVGID_36_)" stroke="#0A264E" stroke-width="0.2146" stroke-miterlimit="10" d="M-715.488,257.761
				c0,0-3.129-7.916-6.217-5.969c0,0-0.912,1.017-1.545,1.125c-0.633,0.109-3.977-0.63-4.742-0.219
				c-0.77,0.412-3.613,2.908-3.75,3.375c-0.139,0.465-0.332,1.537-0.193,1.688c0,0-1.461,1.908-0.773,2.402
				c0.689,0.492,1.85,0.082,2.068-0.109c0.221-0.193,2.178-3.707,3.859-3.266l8.301,3.072c0,0,0.664-0.988,0.801-0.988
				C-717.541,258.872-716.082,258.599-715.488,257.761z"/>
			<radialGradient id="SVGID_37_" cx="-729.2607" cy="266.0991" r="5.0292" gradientUnits="userSpaceOnUse">
				<stop  offset="0" style="stop-color:#F5F5F5"/>
				<stop  offset="0.8535" style="stop-color:#F5F5F5"/>
				<stop  offset="1" style="stop-color:#F5F5F5"/>
			</radialGradient>
			<path fill="url(#SVGID_37_)" stroke="#0A264E" stroke-width="0.2146" stroke-miterlimit="10" d="M-726.842,268.938
				c0,0,0.008,0.015,0.025,0.04c0.127,0.198,0.738,1.002,1.959,0.494c1.387-0.578,1.613-2.594,1.613-2.594s0.643-2.346-0.701-1.954
				c0,0,0.453-0.978,0.496-1.472c0.041-0.494-0.734-1.226-1.613-0.721c-0.879,0.503-1.137,1.286-1.137,1.286s-1.172-1.167-2.58-0.11
				l-1.268,1.262c0,0,0.082-0.492-0.855-0.727c-0.938-0.232-1.953,0.611-2.879,0.381l-0.814-0.311l-0.834-0.426
				c0,0-0.135,2.345,3.658,4.404c0,0,0.979,0.082,2.027-0.098c0,0,0.4,1.25,1.973,0.934L-726.842,268.938z"/>
			<path fill="none" stroke="#0A264E" stroke-width="0.2441" stroke-miterlimit="10" d="M-726.199,264.018
				c0,0-1.604,3.894-3.848,4.466"/>
			<path fill="none" stroke="#0A264E" stroke-width="0.2441" stroke-miterlimit="10" d="M-730.047,265.169
				c0,0-1.564,2.174-3.463,2.225"/>
			<path fill="none" stroke="#0A264E" stroke-width="0.2441" stroke-miterlimit="10" d="M-723.945,264.924
				c0,0-1.424,3.184-2.93,4.054"/>
			<path fill="#0A264E" d="M-737.197,254.303h1.557c0,0,0.635,4.747-0.32,7.472c-0.951,2.723-1.236,3.451-1.236,3.451h-1.303
				L-737.197,254.303z"/>
			<radialGradient id="SVGID_38_" cx="-741.6211" cy="260.3896" r="6.4983" gradientUnits="userSpaceOnUse">
				<stop  offset="0" style="stop-color:#F5F5F5"/>
				<stop  offset="0.8535" style="stop-color:#F5F5F5"/>
				<stop  offset="1" style="stop-color:#F5F5F5"/>
			</radialGradient>
			<path fill="url(#SVGID_38_)" d="M-746.902,252.868c0,0,8.027,0.934,9.543,0.992c1.516,0.057,0.879,2.954,0.926,3.422
				l-1.914,9.272c0,0-0.49,1.384-1.963,1.355l-6.592-0.959"/>
		</g>

<!--
      <g id="icona_chiSiamo_3" transform="translate(72 80)">
        <use xlink:ref="#bg_icona"/>
        <path fill-rule="evenodd" clip-rule="evenodd" fill="url(#grad_icona)" d="M71,79h-8.84
				c-8.971,0.1-7.238,16.799-7.238,16.799h5.613v-5.295v-0.9c0,0,0.754-0.905,1.402,0.056v6.14h15.957v-6.14h1.383l0.021,0.845
				v5.295h5.613c0,0,1.732-16.699-7.238-16.799h-7.766"/>

	<radialGradient id="SVGID_24_" cx="0" cy="-9" r="6.3667" gradientUnits="userSpaceOnUse">
          <stop  offset="0" style="stop-color:#F5F5F5"/>
          <stop  offset="0.8535" style="stop-color:#F5F5F5"/>
          <stop  offset="1" style="stop-color:#F5F5F5"/>
        </radialGradient>
        <ellipse fill-rule="evenodd" clip-rule="evenodd" fill="url(#SVGID_24_)" cx="0" cy="-9" rx="6.382" ry="6.352"/>

      </g>
      <g id="icona_progetti_3" transform="translate(128 80)">
        <use xlink:ref="#bg_icona"/>
			<g>
				<radialGradient id="SVGID_26_" cx="-4" cy="3" r="12.1418" gradientUnits="userSpaceOnUse">

					<stop  offset="0" style="stop-color:#F5F5F5"/>

					<stop  offset="0.8535" style="stop-color:#F5F5F5"/>

					<stop  offset="1" style="stop-color:#F5F5F5"/>

				</radialGradient>
				<path fill="url(#SVGID_26_)" d="M6,4.5l1.783-0.505l-0.131-2.352l-1.838-0.391l-0.855-2.018l1.512-1.508

					l-1.051-1.829l-1.967,0.522l-1.336-1.219l0.285-2.045l-2.1-1.045l-1.576,1.436l-1.604-0.456l-0.756-2.024l-2.232,0.13

					l-0.523,2.091l-1.52,0.432l-2.023-1.347l-1.707,1.306l0.525,1.828l-1.443,1.437l-1.969-0.522l-1.18,2.219l1.705,1.309
					l-0.525,2.088l-2.1,0.391v2.221l2.232,0.523l0.488,1.878l-1.408,1.517l1.312,1.959l1.969-0.784l1.441,1.566l-0.523,1.959
					l2.1,1.045l1.443-1.696l1.838,0.521l0.525,2.091h2.361l0.523-2.091l1.969-0.392l1.707,1.828l1.916-1.314l-0.867-2.21
					l1.574-1.567l1.969,0.652l1.041-2.379l-1.566-1.145L-777.742,262.479z M-4,10c-3.928,0-7.113-3.17-7.113-7.079
					c0-3.908,3.186-7.077,7.113-7.077s7.111,3.169,7.111,7.077C 3,7 -56,10 -4,10z"/>
				<radialGradient id="SVGID_27_" cx="-6.5" cy="5" r="1.5921" gradientUnits="userSpaceOnUse">
					<stop  offset="0" style="stop-color:#F5F5F5"/>
					<stop  offset="0.8535" style="stop-color:#F5F5F5"/>
					<stop  offset="1" style="stop-color:#F5F5F5"/>
				</radialGradient>

				<path fill="url(#SVGID_27_)" d="M-8,5l-0.234,0.066l0.016,0.308l0.242,0.052l0.113,0.265l-0.199,0.198l0.137,0.238
l0.26-0.066l0.176,0.159l-0.039,0.269l0.275,0.137l0.205-0.188l0.211,0.059l0.102,0.267l0.291-0.019l0.068-0.273l0.201-0.058
l0.266,0.179l0.223-0.173l-0.068-0.24l0.188-0.187l0.26,0.068l0.154-0.292l-0.223-0.171l0.068-0.273l0.273-0.052v-0.291
l-0.291-0.069l-0.064-0.246l0.186-0.2l-0.172-0.255l-0.26,0.102l-0.189-0.205l0.07-0.258l-0.277-0.136l-0.188,0.222l-0.24-0.068
l-0.07-0.273h-0.309l-0.07,0.273l-0.258,0.053l-0.223-0.242l-0.252,0.174l0.113,0.291l-0.207,0.205l-0.256-0.087l-0.139,0.313
					l0.205,0.149L-791.791,262.942z M-6.5,4c0.516,0,0.932,0.418,0.932,0.931c0,0.512-0.416,0.927-0.932,0.927
					c-0.514,0-0.936-0.415-0.936-0.927C-7.5,4.5-6,4 1,4z"/>

				<radialGradient id="SVGID_28_" cx="-4.5" cy="1.5" r="2.4934" gradientUnits="userSpaceOnUse">

					<stop  offset="0" style="stop-color:#F5F5F5"/>

					<stop  offset="0.8535" style="stop-color:#F5F5F5"/>

					<stop  offset="1" style="stop-color:#F5F5F5"/>

				</radialGradient>

				<path fill="url(#SVGID_28_)" d="M-6.5,1l-0.365,0.105l0.027,0.481l0.375,0.08l0.176,0.415l-0.309,0.31l0.215,0.375

					l0.406-0.106l0.271,0.249l-0.057,0.42l0.43,0.214l0.322-0.293l0.33,0.093l0.156,0.417l0.459-0.027l0.107-0.43l0.311-0.088

					l0.418,0.275l0.35-0.268l-0.109-0.375l0.297-0.297l0.404,0.109l0.242-0.457l-0.35-0.269l0.107-0.429l0.432-0.08v-0.455

					l-0.459-0.107l-0.1-0.385l0.287-0.312l-0.268-0.402l-0.404,0.162l-0.297-0.323l0.107-0.401l-0.43-0.216l-0.297,0.349

					l-0.377-0.106l-0.107-0.43h-0.486l-0.107,0.43l-0.404,0.081l-0.35-0.377l-0.395,0.271l0.18,0.451l-0.324,0.324l-0.404-0.135

					l-0.213,0.488l0.32,0.235L-790.725,259.071z M-4.5,0c0.807,0,1.459,0.648,1.459,1.453

					c0,0.803-0.652,1.453-1.459,1.453s-1.461-0.65-1.461-1.453C-6,0.5-5.5,0-4.5,0z"/>

				<radialGradient id="SVGID_29_" cx="-2" cy="6" r="2.6866" gradientUnits="userSpaceOnUse">

					<stop  offset="0" style="stop-color:#F5F5F5"/>

					<stop  offset="0.8535" style="stop-color:#F5F5F5"/>

					<stop  offset="1" style="stop-color:#F5F5F5"/>

				</radialGradient>

				<path fill="url(#SVGID_29_)" d="M-4,5.5l-0.395,0.112l0.027,0.52l0.406,0.086l0.191,0.447l-0.336,0.334l0.232,0.404

					l0.436-0.113l0.297,0.268l-0.064,0.453l0.465,0.23l0.348-0.318l0.355,0.101l0.168,0.45l0.494-0.029l0.115-0.465l0.336-0.094

					l0.447,0.298l0.377-0.29l-0.115-0.404l0.32-0.318l0.434,0.119l0.264-0.494l-0.379-0.287l0.115-0.463l0.467-0.087v-0.491

					l-0.494-0.115l-0.107-0.416l0.309-0.334l-0.289-0.434l-0.436,0.17l-0.318-0.344l0.115-0.435l-0.465-0.229l-0.318,0.373

					l-0.406-0.113l-0.117-0.463h-0.521l-0.117,0.463l-0.436,0.086l-0.377-0.404l-0.424,0.291l0.191,0.488l-0.346,0.348l-0.438-0.145

					l-0.23,0.525l0.346,0.254L-788.189,263.486z M-2,4c0.867,0,1.572,0.701,1.572,1.566

					c0,0.864-0.705,1.566-1.572,1.566c-0.869,0-1.574-0.702-1.574-1.566C-3.5,5-3,4-2,4z"/>

				<radialGradient id="SVGID_30_" cx="10" cy="-9" r="6.338" gradientUnits="userSpaceOnUse">

					<stop  offset="0" style="stop-color:#F5F5F5"/>

					<stop  offset="0.8535" style="stop-color:#F5F5F5"/>

					<stop  offset="1" style="stop-color:#F5F5F5"/>

				</radialGradient>

				<path fill="url(#SVGID_30_)" d="M4.5,-10l-0.93,0.262l0.066,1.227l0.961,0.205l0.445,1.054l-0.789,0.787l0.549,0.954

					l1.027-0.271l0.697,0.636l-0.148,1.067l1.096,0.546l0.822-0.75l0.84,0.237l0.393,1.059l1.164-0.068l0.275-1.09l0.793-0.227

					l1.055,0.703l0.891-0.682l-0.271-0.955l0.752-0.75l1.027,0.273l0.617-1.16l-0.893-0.68l0.275-1.091l1.096-0.206v-1.157

					l-1.164-0.274l-0.256-0.979l0.734-0.792l-0.686-1.023l-1.025,0.411l-0.754-0.819l0.275-1.023l-1.096-0.543l-0.754,0.883
					l-0.961-0.271l-0.273-1.09h-1.232l-0.275,1.09l-1.025,0.205l-0.893-0.953l-1,0.686l0.453,1.155l-0.822,0.816l-1.027-0.342

					l-0.545,1.244l0.818,0.597L-779.549,248.21z M-774.145,245.222c2.053,0,3.713,1.654,3.713,3.695c0,2.04-1.66,3.693-3.713,3.693
					c-2.049,0-3.713-1.653-3.713-3.693C 6,11 8,-13 10,-13z"/>
			</g>
		</g>
		<g id="icona_twitter_3" transform="translate(240.5 80)">
        <use xlink:ref="#bg_icona"/>
			<radialGradient id="SVGID_32_" cx="0" cy="0" r="15.5122" gradientUnits="userSpaceOnUse">
				<stop  offset="0" style="stop-color:#F5F5F5"/>
				<stop  offset="0.8535" style="stop-color:#F5F5F5"/>
				<stop  offset="1" style="stop-color:#F5F5F5"/>
			</radialGradient>
			<path fill="url(#SVGID_32_)" d="M18,-1c-1.275,0.217-3.121-0.009-4.098-0.414c2.033-0.168,3.408-1.086,3.939-2.334
				c-0.732,0.448-3.01,0.937-4.264,0.47c-0.062-0.292-0.131-0.571-0.201-0.825c-0.955-3.5-4.232-6.322-7.666-5.981
				c0.275-0.11,0.557-0.214,0.842-0.31c0.375-0.136,2.592-0.494,2.244-1.273c-0.297-0.686-3.004,0.516-3.516,0.675
				c0.674-0.251,1.787-0.686,1.906-1.458c-1.031,0.144-2.043,0.629-2.826,1.334c0.283-0.302,0.496-0.672,0.543-1.069
				c-2.754,1.753-4.363,5.283-5.662,8.71c-1.021-0.988-1.93-1.764-2.742-2.197c-2.277-1.215-5.004-2.485-9.279-4.067
				c-0.131,1.409,0.699,3.284,3.092,4.53c-0.52-0.07-1.465,0.087-2.223,0.266c0.309,1.617,1.318,2.946,4.049,3.59
				c-1.246,0.082-1.895,0.367-2.479,0.975c0.57,1.125,1.957,2.446,4.453,2.174c-2.775,1.191-1.131,3.4,1.127,3.069
				c-3.854,3.968-9.928,3.675-13.416,0.359c9.107,12.364,28.908,7.311,31.859-4.599
				C16,0.5 17,0 -18,-1z"/>
		</g>
		<g id="icona_businessCard_3" transform="translate(184 80)">
        <use xlink:ref="#bg_icona"/>
			<radialGradient id="SVGID_34_" cx="12" cy="-5" r="6.8176" gradientUnits="userSpaceOnUse">
				<stop  offset="0" style="stop-color:#F5F5F5"/>
				<stop  offset="0.8535" style="stop-color:#F5F5F5"/>
				<stop  offset="1" style="stop-color:#F5F5F5"/>
			</radialGradient>
			<path fill="url(#SVGID_34_)" d="M18,-13L-709.865,245.187c0,0-11.297,4.857-11.812,6.707
				c-0.516,1.849,6.203,6.006,6.203,6.006l-1.469,0.799c0,0,0.045,2.015,2.141,1.645l4.961-1.271"/>
			<path fill="#0A264E" d="M6,-6c0,0,0.611-1.576,2.867-1.008c0,0,3.928,3.891,4.301,6.771c0,0,0.291,2.294-2.57,1.339
				c-2.861-0.953-2.117-2.684-2.117-2.684l-2.48-4.307"/>

			<radialGradient id="SVGID_35_" cx="0.5" cy="3" r="8.1717" gradientUnits="userSpaceOnUse">
				<stop  offset="0" style="stop-color:#F5F5F5"/>
				<stop  offset="0.8535" style="stop-color:#F5F5F5"/>
				<stop  offset="1" style="stop-color:#F5F5F5"/>
			</radialGradient>
			<path fill="url(#SVGID_35_)" stroke="#0A264E" stroke-width="0.2146" stroke-miterlimit="10" d="M8,5
				c2.227-0.393,1.357-2.732,1.357-2.732l-8.246-3.16l-2.625-2.359l0.117-0.633l-6.342,1.015c0,0,0.193,6.972-1.047,8.7l2.729,1.262
				l10.258,3.128c0,0,1.049-0.109,0.992-1.372c0,0,1.379,0.068,1.441-1.482C6.5,7 9,6.5 8,4.5
				c0,0-2.447-2.116-3.832-1.834"/>
			<radialGradient id="SVGID_36_" cx="4" cy="-2" r="6.9132" gradientUnits="userSpaceOnUse">
				<stop  offset="0" style="stop-color:#F5F5F5"/>
				<stop  offset="0.8535" style="stop-color:#F5F5F5"/>
				<stop  offset="1" style="stop-color:#F5F5F5"/>
			</radialGradient>
			<path fill="url(#SVGID_36_)" stroke="#0A264E" stroke-width="0.2146" stroke-miterlimit="10" d="M12.5,0
				c0,0-3.129-7.916-6.217-5.969c0,0-0.912,1.017-1.545,1.125c-0.633,0.109-3.977-0.63-4.742-0.219
				c-0.77,0.412-3.613,2.908-3.75,3.375c-0.139,0.465-0.332,1.537-0.193,1.688c0,0-1.461,1.908-0.773,2.402
				c0.689,0.492,1.85,0.082,2.068-0.109c0.221-0.193,2.178-3.707,3.859-3.266l8.301,3.072c0,0,0.664-0.988,0.801-0.988
				C10.5,1 12,0.5 12.5,0z"/>
			<radialGradient id="SVGID_37_" cx="-1" cy="8" r="5.0292" gradientUnits="userSpaceOnUse">
				<stop  offset="0" style="stop-color:#F5F5F5"/>
				<stop  offset="0.8535" style="stop-color:#F5F5F5"/>
				<stop  offset="1" style="stop-color:#F5F5F5"/>
			</radialGradient>

			<path fill="url(#SVGID_37_)" stroke="#0A264E" stroke-width="0.2146" stroke-miterlimit="10" d="M1,11

				c0,0,0.008,0.015,0.025,0.04c0.127,0.198,0.738,1.002,1.959,0.494c1.387-0.578,1.613-2.594,1.613-2.594s0.643-2.346-0.701-1.954

				c0,0,0.453-0.978,0.496-1.472c0.041-0.494-0.734-1.226-1.613-0.721c-0.879,0.503-1.137,1.286-1.137,1.286s-1.172-1.167-2.58-0.11

				l-1.268,1.262c0,0,0.082-0.492-0.855-0.727c-0.938-0.232-1.953,0.611-2.879,0.381l-0.814-0.311l-0.834-0.426

				c0,0-0.135,2.345,3.658,4.404c0,0,0.979,0.082,2.027-0.098c0,0,0.4,1.25,1.973,0.934L-1,11z"/>

			<path fill="none" stroke="#0A264E" stroke-width="0.2441" stroke-miterlimit="10" d="M2,6

				c0,0-1.604,3.894-3.848,4.466"/>

			<path fill="none" stroke="#0A264E" stroke-width="0.2441" stroke-miterlimit="10" d="M-730.047,7

				c0,0-1.564,2.174-3.463,2.225"/>

			<path fill="none" stroke="#0A264E" stroke-width="0.2441" stroke-miterlimit="10" d="M4,7

				c0,0-1.424,3.184-2.93,4.054"/>

			<path fill="#0A264E" d="M-9,-3.5h1.557c0,0,0.635,4.747-0.32,7.472c-0.951,2.723-1.236,3.451-1.236,3.451h-1.303

				L-9,-3.5z"/>

			<radialGradient id="SVGID_38_" cx="-13.5" cy="2.5" r="6.4983" gradientUnits="userSpaceOnUse">

				<stop  offset="0" style="stop-color:#F5F5F5"/>

				<stop  offset="0.8535" style="stop-color:#F5F5F5"/>

				<stop  offset="1" style="stop-color:#F5F5F5"/>

			</radialGradient>

			<path fill="url(#SVGID_38_)" d="M-19,-5c0,0,8.027,0.934,9.543,0.992c1.516,0.057,0.879,2.954,0.926,3.422

				l-1.914,9.272c0,0-0.49,1.384-1.963,1.355l-6.592-0.959"/>

		</g>
-->
<!--
	</g>

	<g id="icone_top_menu_2">

		<g>

			<radialGradient id="SVGID_39_" cx="-1534.3184" cy="258.1743" r="22.7437" gradientUnits="userSpaceOnUse">

				<stop  offset="0" style="stop-color:#103B7A"/>

				<stop  offset="0.0134" style="stop-color:#103B79"/>

				<stop  offset="1" style="stop-color:#0A264E"/>

			</radialGradient>

			<rect x="-1557" y="235.368" fill="url(#SVGID_39_)" width="45.362" height="45.612"/>

			<g>

				<radialGradient id="SVGID_40_" cx="-1538.4292" cy="261.125" r="12.1418" gradientUnits="userSpaceOnUse">

					<stop  offset="0" style="stop-color:#F5F5F5"/>

					<stop  offset="0.8535" style="stop-color:#F5F5F5"/>

					<stop  offset="1" style="stop-color:#F5F5F5"/>

				</radialGradient>

				<path fill="url(#SVGID_40_)" d="M-1528.01,262.479l1.785-0.505l-0.132-2.352l-1.838-0.391l-0.854-2.018l1.51-1.508l-1.05-1.829

					l-1.967,0.522l-1.336-1.219l0.286-2.045l-2.101-1.045l-1.575,1.436l-1.604-0.456l-0.756-2.024l-2.232,0.13l-0.524,2.091

					l-1.52,0.432l-2.023-1.347l-1.707,1.306l0.525,1.828l-1.442,1.437l-1.969-0.522l-1.181,2.219l1.705,1.309l-0.524,2.088

					l-2.1,0.391v2.221l2.231,0.523l0.488,1.878l-1.407,1.517l1.312,1.959l1.969-0.784l1.442,1.566l-0.524,1.959l2.101,1.045

					l1.442-1.696l1.838,0.521l0.525,2.091h2.362l0.524-2.091l1.968-0.392l1.708,1.828l1.915-1.314l-0.866-2.21l1.574-1.567

					l1.968,0.652l1.042-2.379l-1.567-1.145L-1528.01,262.479z M-1538.363,268.201c-3.927,0-7.112-3.17-7.112-7.079

					c0-3.908,3.185-7.077,7.112-7.077c3.928,0,7.113,3.169,7.113,7.077C-1531.25,265.031-1534.435,268.201-1538.363,268.201z"/>

				<radialGradient id="SVGID_41_" cx="-1540.6924" cy="263.1206" r="1.5923" gradientUnits="userSpaceOnUse">
					<stop  offset="0" style="stop-color:#F5F5F5"/>
					<stop  offset="0.8535" style="stop-color:#F5F5F5"/>
					<stop  offset="1" style="stop-color:#F5F5F5"/>
				</radialGradient>
				<path fill="url(#SVGID_41_)" d="M-1542.058,262.942l-0.234,0.066l0.016,0.308l0.241,0.052l0.113,0.265l-0.199,0.198l0.138,0.238
					l0.259-0.066l0.175,0.159l-0.038,0.269l0.275,0.137l0.205-0.188l0.21,0.059l0.102,0.267l0.29-0.019l0.069-0.273l0.201-0.058
					l0.266,0.179l0.222-0.173l-0.068-0.24l0.188-0.187l0.259,0.068l0.155-0.292l-0.224-0.171l0.069-0.273l0.274-0.052v-0.291

					l-0.292-0.069l-0.064-0.246l0.186-0.2l-0.172-0.255l-0.258,0.102l-0.189-0.205l0.069-0.258l-0.276-0.136l-0.188,0.222

					l-0.242-0.068l-0.069-0.273h-0.309l-0.07,0.273l-0.257,0.053l-0.224-0.242l-0.25,0.174l0.113,0.291l-0.207,0.205l-0.257-0.087

					l-0.138,0.313l0.205,0.149L-1542.058,262.942z M-1540.7,262.19c0.515,0,0.931,0.418,0.931,0.931

					c0,0.512-0.416,0.927-0.931,0.927c-0.515,0-0.935-0.415-0.935-0.927C-1541.635,262.608-1541.215,262.19-1540.7,262.19z"/>

				<radialGradient id="SVGID_42_" cx="-1538.8511" cy="259.3501" r="2.4934" gradientUnits="userSpaceOnUse">

					<stop  offset="0" style="stop-color:#F5F5F5"/>

					<stop  offset="0.8535" style="stop-color:#F5F5F5"/>

					<stop  offset="1" style="stop-color:#F5F5F5"/>

				</radialGradient>

				<path fill="url(#SVGID_42_)" d="M-1540.992,259.071l-0.365,0.105l0.028,0.481l0.375,0.08l0.176,0.415l-0.31,0.31l0.216,0.375

					l0.406-0.106l0.272,0.249l-0.058,0.42l0.431,0.214l0.323-0.293l0.33,0.093l0.155,0.417l0.459-0.027l0.108-0.43l0.311-0.088

					l0.417,0.275l0.35-0.268l-0.109-0.375l0.296-0.297l0.404,0.109l0.242-0.457l-0.35-0.269l0.108-0.429l0.432-0.08v-0.455

					l-0.458-0.107l-0.1-0.385l0.288-0.312l-0.269-0.402l-0.404,0.162l-0.295-0.323l0.107-0.401l-0.431-0.216l-0.296,0.349

					l-0.377-0.106l-0.107-0.43h-0.486l-0.107,0.43l-0.404,0.081l-0.349-0.377l-0.395,0.271l0.179,0.451l-0.324,0.324l-0.403-0.135

					l-0.214,0.488l0.321,0.235L-1540.992,259.071z M-1538.865,257.897c0.808,0,1.46,0.648,1.46,1.453

					c0,0.803-0.652,1.453-1.46,1.453c-0.807,0-1.461-0.65-1.461-1.453C-1540.326,258.546-1539.671,257.897-1538.865,257.897z"/>

				<radialGradient id="SVGID_43_" cx="-1536.1514" cy="263.7871" r="2.6866" gradientUnits="userSpaceOnUse">

					<stop  offset="0" style="stop-color:#F5F5F5"/>

					<stop  offset="0.8535" style="stop-color:#F5F5F5"/>

					<stop  offset="1" style="stop-color:#F5F5F5"/>

				</radialGradient>

				<path fill="url(#SVGID_43_)" d="M-1538.457,263.486l-0.394,0.112l0.028,0.52l0.406,0.086l0.19,0.447l-0.334,0.334l0.232,0.404

					l0.435-0.113l0.296,0.268l-0.064,0.453l0.465,0.23l0.347-0.318l0.355,0.101l0.168,0.45l0.495-0.029l0.116-0.465l0.336-0.094

					l0.447,0.298l0.376-0.29l-0.116-0.404l0.322-0.318l0.434,0.119l0.263-0.494l-0.379-0.287l0.116-0.463l0.465-0.087v-0.491

					l-0.494-0.115l-0.108-0.416l0.31-0.334l-0.29-0.434l-0.435,0.17l-0.319-0.344l0.115-0.435l-0.463-0.229l-0.319,0.373

					l-0.407-0.113l-0.116-0.463h-0.522l-0.117,0.463l-0.436,0.086l-0.376-0.404l-0.424,0.291l0.191,0.488l-0.347,0.348l-0.437-0.145

					l-0.231,0.525l0.347,0.254L-1538.457,263.486z M-1536.165,262.221c0.867,0,1.572,0.701,1.572,1.566

					c0,0.864-0.706,1.566-1.572,1.566c-0.87,0-1.575-0.702-1.575-1.566C-1537.74,262.922-1537.034,262.221-1536.165,262.221z"/>

				<radialGradient id="SVGID_44_" cx="-1524.3745" cy="248.916" r="6.338" gradientUnits="userSpaceOnUse">

					<stop  offset="0" style="stop-color:#F5F5F5"/>

					<stop  offset="0.8535" style="stop-color:#F5F5F5"/>

					<stop  offset="1" style="stop-color:#F5F5F5"/>

				</radialGradient>

				<path fill="url(#SVGID_44_)" d="M-1529.815,248.21l-0.929,0.262l0.066,1.227l0.959,0.205l0.445,1.054l-0.788,0.787l0.549,0.954

					l1.027-0.271l0.697,0.636l-0.149,1.067l1.095,0.546l0.823-0.75l0.839,0.237l0.394,1.059l1.164-0.068l0.275-1.09l0.792-0.227

					l1.056,0.703l0.891-0.682l-0.273-0.955l0.753-0.75l1.026,0.273l0.618-1.16l-0.892-0.68l0.274-1.091l1.097-0.206v-1.157

					l-1.165-0.274l-0.255-0.979l0.734-0.792l-0.686-1.023l-1.026,0.411l-0.754-0.819l0.275-1.023l-1.096-0.543l-0.753,0.883

					l-0.96-0.271l-0.274-1.09h-1.233l-0.274,1.09l-1.026,0.205l-0.892-0.953l-1.001,0.686l0.454,1.155l-0.822,0.816l-1.028-0.342

					l-0.544,1.244l0.818,0.597L-1529.815,248.21z M-1524.411,245.222c2.052,0,3.713,1.654,3.713,3.695

					c0,2.04-1.661,3.693-3.713,3.693c-2.049,0-3.713-1.653-3.713-3.693C-1528.124,246.876-1526.46,245.222-1524.411,245.222z"/>
			</g>
		</g>
		<g>
			<radialGradient id="SVGID_45_" cx="-1421.9741" cy="258.1934" r="22.8027" gradientUnits="userSpaceOnUse">
				<stop  offset="0" style="stop-color:#103B7A"/>
				<stop  offset="0.0134" style="stop-color:#103B79"/>
				<stop  offset="1" style="stop-color:#0A264E"/>
			</radialGradient>
			<rect x="-1444.773" y="235.387" fill="url(#SVGID_45_)" width="45.598" height="45.613"/>
			<radialGradient id="SVGID_46_" cx="-1421.9746" cy="257.9043" r="15.5125" gradientUnits="userSpaceOnUse">
				<stop  offset="0" style="stop-color:#F5F5F5"/>
				<stop  offset="0.8535" style="stop-color:#F5F5F5"/>
				<stop  offset="1" style="stop-color:#F5F5F5"/>
			</radialGradient>
			<path fill="url(#SVGID_46_)" d="M-1403.886,256.942c-1.274,0.217-3.12-0.009-4.098-0.414c2.033-0.168,3.408-1.086,3.939-2.334
				c-0.732,0.448-3.009,0.937-4.263,0.47c-0.063-0.292-0.131-0.571-0.201-0.825c-0.956-3.5-4.233-6.322-7.667-5.981
				c0.276-0.11,0.558-0.214,0.842-0.31c0.375-0.136,2.592-0.494,2.245-1.273c-0.297-0.686-3.004,0.516-3.516,0.675
				c0.673-0.251,1.787-0.686,1.905-1.458c-1.03,0.144-2.043,0.629-2.825,1.334c0.283-0.302,0.496-0.672,0.542-1.069
				c-2.753,1.753-4.362,5.283-5.661,8.71c-1.021-0.988-1.93-1.764-2.742-2.197c-2.277-1.215-5.004-2.485-9.28-4.067
				c-0.131,1.409,0.699,3.284,3.092,4.53c-0.519-0.07-1.465,0.087-2.224,0.266c0.31,1.617,1.318,2.946,4.05,3.59
				c-1.248,0.082-1.895,0.367-2.479,0.975c0.57,1.125,1.958,2.446,4.454,2.174c-2.776,1.191-1.132,3.4,1.127,3.069
				c-3.854,3.968-9.928,3.675-13.417,0.359c9.108,12.364,28.909,7.311,31.86-4.599

				C-1405.99,258.583-1404.693,257.804-1403.886,256.942z"/>

		</g>

		<g>

			<radialGradient id="SVGID_47_" cx="-1478.6396" cy="258.1934" r="22.793" gradientUnits="userSpaceOnUse">

				<stop  offset="0" style="stop-color:#103B7A"/>

				<stop  offset="0.0134" style="stop-color:#103B79"/>

				<stop  offset="1" style="stop-color:#0A264E"/>

			</radialGradient>

			<rect x="-1501.419" y="235.387" fill="url(#SVGID_47_)" width="45.559" height="45.613"/>

			<radialGradient id="SVGID_48_" cx="-1466.0415" cy="252.7871" r="6.8179" gradientUnits="userSpaceOnUse">

				<stop  offset="0" style="stop-color:#F5F5F5"/>

				<stop  offset="0.8535" style="stop-color:#F5F5F5"/>

				<stop  offset="1" style="stop-color:#F5F5F5"/>

			</radialGradient>

			<path fill="url(#SVGID_48_)" d="M-1460.132,245.187L-1460.132,245.187c0,0-11.296,4.857-11.813,6.707

				c-0.514,1.849,6.204,6.006,6.204,6.006l-1.469,0.799c0,0,0.044,2.015,2.141,1.645l4.96-1.271"/>

			<path fill="#0A264E" d="M-1471.972,251.792c0,0,0.612-1.576,2.867-1.008c0,0,3.929,3.891,4.301,6.771c0,0,0.292,2.294-2.57,1.339

				c-2.861-0.953-2.117-2.684-2.117-2.684l-2.481-4.307"/>

			<radialGradient id="SVGID_49_" cx="-1477.79" cy="260.8481" r="8.1717" gradientUnits="userSpaceOnUse">

				<stop  offset="0" style="stop-color:#F5F5F5"/>

				<stop  offset="0.8535" style="stop-color:#F5F5F5"/>

				<stop  offset="1" style="stop-color:#F5F5F5"/>

			</radialGradient>

			<path fill="url(#SVGID_49_)" stroke="#0A264E" stroke-width="0.2146" stroke-miterlimit="10" d="M-1470.159,262.681

				c2.227-0.393,1.356-2.732,1.356-2.732l-8.245-3.16l-2.625-2.359l0.116-0.633l-6.342,1.015c0,0,0.193,6.972-1.047,8.7l2.73,1.262

				l10.257,3.128c0,0,1.049-0.109,0.993-1.372c0,0,1.377,0.068,1.44-1.482C-1471.525,265.046-1469.504,264.526-1470.159,262.681

				c0,0-2.449-2.116-3.833-1.834"/>

			<radialGradient id="SVGID_50_" cx="-1474.457" cy="255.9399" r="6.9135" gradientUnits="userSpaceOnUse">

				<stop  offset="0" style="stop-color:#F5F5F5"/>

				<stop  offset="0.8535" style="stop-color:#F5F5F5"/>

				<stop  offset="1" style="stop-color:#F5F5F5"/>

			</radialGradient>

			<path fill="url(#SVGID_50_)" stroke="#0A264E" stroke-width="0.2146" stroke-miterlimit="10" d="M-1465.754,257.761

				c0,0-3.13-7.916-6.218-5.969c0,0-0.911,1.017-1.544,1.125c-0.633,0.109-3.976-0.63-4.742-0.219

				c-0.77,0.412-3.614,2.908-3.751,3.375c-0.138,0.465-0.332,1.537-0.193,1.688c0,0-1.461,1.908-0.772,2.402

				c0.689,0.492,1.848,0.082,2.068-0.109c0.22-0.193,2.177-3.707,3.859-3.266l8.3,3.072c0,0,0.664-0.988,0.801-0.988

				C-1467.809,258.872-1466.348,258.599-1465.754,257.761z"/>

			<radialGradient id="SVGID_51_" cx="-1479.5264" cy="266.0991" r="5.0289" gradientUnits="userSpaceOnUse">

				<stop  offset="0" style="stop-color:#F5F5F5"/>

				<stop  offset="0.8535" style="stop-color:#F5F5F5"/>

				<stop  offset="1" style="stop-color:#F5F5F5"/>

			</radialGradient>

			<path fill="url(#SVGID_51_)" stroke="#0A264E" stroke-width="0.2146" stroke-miterlimit="10" d="M-1477.109,268.938

				c0,0,0.008,0.015,0.026,0.04c0.127,0.198,0.738,1.002,1.959,0.494c1.386-0.578,1.613-2.594,1.613-2.594s0.643-2.346-0.702-1.954
				c0,0,0.454-0.978,0.496-1.472c0.042-0.494-0.734-1.226-1.612-0.721c-0.879,0.503-1.138,1.286-1.138,1.286
				s-1.171-1.167-2.579-0.11l-1.267,1.262c0,0,0.082-0.492-0.856-0.727c-0.937-0.232-1.953,0.611-2.879,0.381l-0.814-0.311
				l-0.833-0.426c0,0-0.135,2.345,3.658,4.404c0,0,0.979,0.082,2.026-0.098c0,0,0.401,1.25,1.973,0.934L-1477.109,268.938z"/>
			<path fill="none" stroke="#0A264E" stroke-width="0.2441" stroke-miterlimit="10" d="M-1476.467,264.018
				c0,0-1.604,3.894-3.846,4.466"/>
			<path fill="none" stroke="#0A264E" stroke-width="0.2441" stroke-miterlimit="10" d="M-1480.313,265.169
				c0,0-1.564,2.174-3.464,2.225"/>
			<path fill="none" stroke="#0A264E" stroke-width="0.2441" stroke-miterlimit="10" d="M-1474.213,264.924
				c0,0-1.422,3.184-2.929,4.054"/>
			<path fill="#0A264E" d="M-1487.464,254.303h1.556c0,0,0.635,4.747-0.319,7.472c-0.952,2.723-1.237,3.451-1.237,3.451h-1.303
				L-1487.464,254.303z"/>
			<radialGradient id="SVGID_52_" cx="-1491.8882" cy="260.3896" r="6.4983" gradientUnits="userSpaceOnUse">
				<stop  offset="0" style="stop-color:#F5F5F5"/>
				<stop  offset="0.8535" style="stop-color:#F5F5F5"/>
				<stop  offset="1" style="stop-color:#F5F5F5"/>
			</radialGradient>

			<path fill="url(#SVGID_52_)" d="M-1497.169,252.868c0,0,8.027,0.934,9.543,0.992c1.516,0.057,0.879,2.954,0.925,3.422
				l-1.913,9.272c0,0-0.49,1.384-1.964,1.355l-6.591-0.959"/>
		</g>
	</g>
	<g id="icone_top_menu_4">
		<g>
			<radialGradient id="SVGID_53_" cx="-339.0674" cy="258.1743" r="22.7435" gradientUnits="userSpaceOnUse">
				<stop  offset="0" style="stop-color:#103B7A"/>
				<stop  offset="0.0134" style="stop-color:#103B79"/>
				<stop  offset="1" style="stop-color:#0A264E"/>
			</radialGradient>
			<rect x="-361.748" y="235.368" fill="url(#SVGID_53_)" width="45.361" height="45.612"/>
			<g>
				<radialGradient id="SVGID_54_" cx="-343.1787" cy="261.125" r="12.1418" gradientUnits="userSpaceOnUse">
					<stop  offset="0" style="stop-color:#F5F5F5"/>
					<stop  offset="0.8535" style="stop-color:#F5F5F5"/>
					<stop  offset="1" style="stop-color:#F5F5F5"/>
				</radialGradient>
				<path fill="url(#SVGID_54_)" d="M-332.76,262.479l1.785-0.505l-0.133-2.352l-1.838-0.391l-0.854-2.018l1.51-1.508l-1.049-1.829
					l-1.967,0.522l-1.336-1.219l0.285-2.045l-2.1-1.045l-1.576,1.436l-1.604-0.456l-0.756-2.024l-2.232,0.13l-0.523,2.091
					l-1.52,0.432l-2.023-1.347l-1.707,1.306l0.525,1.828l-1.443,1.437l-1.969-0.522l-1.18,2.219l1.705,1.309l-0.525,2.088
					l-2.1,0.391v2.221l2.232,0.523l0.488,1.878l-1.408,1.517l1.312,1.959l1.969-0.784l1.441,1.566l-0.523,1.959l2.1,1.045
					l1.441-1.696l1.84,0.521l0.523,2.091h2.363l0.523-2.091l1.969-0.392l1.707,1.828l1.914-1.314l-0.865-2.21l1.574-1.567
					l1.969,0.652l1.041-2.379l-1.566-1.145L-332.76,262.479z M-343.113,268.201c-3.926,0-7.111-3.17-7.111-7.079
					c0-3.908,3.186-7.077,7.111-7.077c3.93,0,7.113,3.169,7.113,7.077C-336,265.031-339.184,268.201-343.113,268.201z"/>
				<radialGradient id="SVGID_55_" cx="-345.4414" cy="263.1206" r="1.5921" gradientUnits="userSpaceOnUse">
					<stop  offset="0" style="stop-color:#F5F5F5"/>
					<stop  offset="0.8535" style="stop-color:#F5F5F5"/>
					<stop  offset="1" style="stop-color:#F5F5F5"/>
				</radialGradient>
				<path fill="url(#SVGID_55_)" d="M-346.807,262.942l-0.234,0.066l0.016,0.308l0.242,0.052l0.111,0.265l-0.199,0.198l0.139,0.238
					l0.26-0.066l0.174,0.159l-0.037,0.269l0.275,0.137l0.205-0.188l0.211,0.059l0.102,0.267l0.291-0.019l0.068-0.273l0.201-0.058
					l0.266,0.179l0.223-0.173l-0.068-0.24l0.188-0.187l0.26,0.068l0.154-0.292l-0.225-0.171l0.07-0.273l0.273-0.052v-0.291
					l-0.293-0.069l-0.064-0.246l0.186-0.2l-0.172-0.255l-0.258,0.102l-0.189-0.205l0.07-0.258l-0.277-0.136l-0.188,0.222
					l-0.242-0.068l-0.068-0.273h-0.309l-0.07,0.273l-0.258,0.053l-0.225-0.242l-0.25,0.174l0.113,0.291l-0.207,0.205l-0.256-0.087
					l-0.139,0.313l0.205,0.149L-346.807,262.942z M-345.449,262.19c0.516,0,0.932,0.418,0.932,0.931
					c0,0.512-0.416,0.927-0.932,0.927s-0.936-0.415-0.936-0.927C-346.385,262.608-345.965,262.19-345.449,262.19z"/>
				<radialGradient id="SVGID_56_" cx="-343.5996" cy="259.3501" r="2.4934" gradientUnits="userSpaceOnUse">
					<stop  offset="0" style="stop-color:#F5F5F5"/>
					<stop  offset="0.8535" style="stop-color:#F5F5F5"/>
					<stop  offset="1" style="stop-color:#F5F5F5"/>
				</radialGradient>
				<path fill="url(#SVGID_56_)" d="M-345.74,259.071l-0.365,0.105l0.027,0.481l0.375,0.08l0.176,0.415l-0.311,0.31l0.217,0.375
					l0.406-0.106l0.271,0.249l-0.059,0.42l0.432,0.214l0.322-0.293l0.33,0.093l0.154,0.417l0.459-0.027l0.109-0.43l0.311-0.088
					l0.418,0.275l0.35-0.268l-0.109-0.375l0.297-0.297l0.404,0.109l0.242-0.457l-0.352-0.269l0.109-0.429l0.432-0.08v-0.455
					l-0.459-0.107l-0.1-0.385l0.287-0.312l-0.27-0.402l-0.404,0.162l-0.295-0.323l0.107-0.401l-0.432-0.216l-0.295,0.349
					l-0.379-0.106l-0.105-0.43h-0.486l-0.107,0.43l-0.404,0.081l-0.35-0.377l-0.395,0.271l0.178,0.451l-0.322,0.324l-0.404-0.135
					l-0.213,0.488l0.32,0.235L-345.74,259.071z M-343.613,257.897c0.807,0,1.459,0.648,1.459,1.453c0,0.803-0.652,1.453-1.459,1.453
					s-1.463-0.65-1.463-1.453C-345.076,258.546-344.42,257.897-343.613,257.897z"/>
				<radialGradient id="SVGID_57_" cx="-340.9004" cy="263.7871" r="2.6861" gradientUnits="userSpaceOnUse">
					<stop  offset="0" style="stop-color:#F5F5F5"/>
					<stop  offset="0.8535" style="stop-color:#F5F5F5"/>
					<stop  offset="1" style="stop-color:#F5F5F5"/>
				</radialGradient>
				<path fill="url(#SVGID_57_)" d="M-343.207,263.486l-0.393,0.112l0.027,0.52l0.406,0.086l0.189,0.447l-0.334,0.334l0.232,0.404

					l0.436-0.113l0.297,0.268l-0.064,0.453l0.465,0.23l0.348-0.318l0.354,0.101l0.168,0.45l0.496-0.029l0.115-0.465l0.336-0.094

					l0.447,0.298l0.377-0.29l-0.117-0.404l0.322-0.318l0.434,0.119l0.264-0.494l-0.379-0.287l0.115-0.463l0.465-0.087v-0.491

					l-0.492-0.115l-0.109-0.416l0.311-0.334l-0.289-0.434l-0.436,0.17l-0.32-0.344l0.115-0.435l-0.463-0.229l-0.318,0.373

					l-0.408-0.113l-0.115-0.463h-0.521l-0.117,0.463l-0.436,0.086l-0.377-0.404l-0.424,0.291l0.191,0.488l-0.348,0.348l-0.436-0.145

					l-0.23,0.525l0.346,0.254L-343.207,263.486z M-340.914,262.221c0.867,0,1.572,0.701,1.572,1.566

					c0,0.864-0.705,1.566-1.572,1.566c-0.869,0-1.574-0.702-1.574-1.566C-342.488,262.922-341.783,262.221-340.914,262.221z"/>

				<radialGradient id="SVGID_58_" cx="-329.124" cy="248.916" r="6.338" gradientUnits="userSpaceOnUse">

					<stop  offset="0" style="stop-color:#F5F5F5"/>

					<stop  offset="0.8535" style="stop-color:#F5F5F5"/>

					<stop  offset="1" style="stop-color:#F5F5F5"/>

				</radialGradient>

				<path fill="url(#SVGID_58_)" d="M-334.564,248.21l-0.93,0.262l0.066,1.227l0.959,0.205l0.445,1.054l-0.787,0.787l0.549,0.954

					l1.027-0.271l0.697,0.636l-0.148,1.067l1.094,0.546l0.824-0.75l0.838,0.237l0.395,1.059l1.164-0.068l0.275-1.09l0.793-0.227

					l1.055,0.703l0.891-0.682l-0.273-0.955l0.754-0.75l1.025,0.273l0.619-1.16l-0.893-0.68l0.273-1.091l1.098-0.206v-1.157

					l-1.164-0.274l-0.256-0.979l0.734-0.792l-0.686-1.023l-1.025,0.411l-0.754-0.819l0.273-1.023l-1.096-0.543l-0.752,0.883

					l-0.961-0.271l-0.273-1.09h-1.232l-0.275,1.09l-1.025,0.205l-0.893-0.953l-1,0.686l0.453,1.155l-0.822,0.816l-1.027-0.342

					l-0.545,1.244l0.818,0.597L-334.564,248.21z M-329.16,245.222c2.053,0,3.713,1.654,3.713,3.695c0,2.04-1.66,3.693-3.713,3.693

					c-2.049,0-3.713-1.653-3.713-3.693C-332.873,246.876-331.209,245.222-329.16,245.222z"/>

			</g>

		</g>

		<g>

			<radialGradient id="SVGID_59_" cx="-226.7227" cy="258.1934" r="22.8027" gradientUnits="userSpaceOnUse">

				<stop  offset="0" style="stop-color:#103B7A"/>

				<stop  offset="0.0134" style="stop-color:#103B79"/>

				<stop  offset="1" style="stop-color:#0A264E"/>

			</radialGradient>

			<rect x="-249.521" y="235.387" fill="url(#SVGID_59_)" width="45.598" height="45.613"/>

			<radialGradient id="SVGID_60_" cx="-226.7236" cy="257.9043" r="15.5128" gradientUnits="userSpaceOnUse">

				<stop  offset="0" style="stop-color:#F5F5F5"/>

				<stop  offset="0.8535" style="stop-color:#F5F5F5"/>

				<stop  offset="1" style="stop-color:#F5F5F5"/>

			</radialGradient>

			<path fill="url(#SVGID_60_)" d="M-208.635,256.942c-1.275,0.217-3.121-0.009-4.098-0.414c2.033-0.168,3.408-1.086,3.939-2.334

				c-0.732,0.448-3.01,0.937-4.264,0.47c-0.062-0.292-0.131-0.571-0.201-0.825c-0.955-3.5-4.232-6.322-7.666-5.981

				c0.275-0.11,0.557-0.214,0.842-0.31c0.375-0.136,2.592-0.494,2.244-1.273c-0.297-0.686-3.004,0.516-3.516,0.675

				c0.674-0.251,1.787-0.686,1.906-1.458c-1.031,0.144-2.043,0.629-2.826,1.334c0.283-0.302,0.496-0.672,0.541-1.069

				c-2.752,1.753-4.361,5.283-5.66,8.71c-1.021-0.988-1.93-1.764-2.742-2.197c-2.277-1.215-5.004-2.485-9.279-4.067

				c-0.131,1.409,0.699,3.284,3.092,4.53c-0.52-0.07-1.465,0.087-2.225,0.266c0.311,1.617,1.318,2.946,4.051,3.59

				c-1.248,0.082-1.895,0.367-2.479,0.975c0.568,1.125,1.957,2.446,4.453,2.174c-2.775,1.191-1.131,3.4,1.127,3.069

				c-3.854,3.968-9.928,3.675-13.418,0.359c9.109,12.364,28.91,7.311,31.861-4.599C-210.74,258.583-209.441,257.804-208.635,256.942

				z"/>

		</g>
		<g>
			<radialGradient id="SVGID_61_" cx="-283.3887" cy="258.1934" r="22.793" gradientUnits="userSpaceOnUse">
				<stop  offset="0" style="stop-color:#103B7A"/>
				<stop  offset="0.0134" style="stop-color:#103B79"/>
				<stop  offset="1" style="stop-color:#0A264E"/>
			</radialGradient>
			<rect x="-306.168" y="235.387" fill="url(#SVGID_61_)" width="45.559" height="45.613"/>
			<radialGradient id="SVGID_62_" cx="-270.791" cy="252.7871" r="6.8176" gradientUnits="userSpaceOnUse">
				<stop  offset="0" style="stop-color:#F5F5F5"/>
				<stop  offset="0.8535" style="stop-color:#F5F5F5"/>
				<stop  offset="1" style="stop-color:#F5F5F5"/>
			</radialGradient>
			<path fill="url(#SVGID_62_)" d="M-264.881,245.187L-264.881,245.187c0,0-11.297,4.857-11.814,6.707
				c-0.514,1.849,6.205,6.006,6.205,6.006l-1.469,0.799c0,0,0.043,2.015,2.141,1.645l4.959-1.271"/>
			<path fill="#0A264E" d="M-276.721,251.792c0,0,0.611-1.576,2.867-1.008c0,0,3.928,3.891,4.301,6.771c0,0,0.291,2.294-2.57,1.339
				c-2.861-0.953-2.117-2.684-2.117-2.684l-2.48-4.307"/>
			<radialGradient id="SVGID_63_" cx="-282.5391" cy="260.8481" r="8.1717" gradientUnits="userSpaceOnUse">
				<stop  offset="0" style="stop-color:#F5F5F5"/>
				<stop  offset="0.8535" style="stop-color:#F5F5F5"/>
				<stop  offset="1" style="stop-color:#F5F5F5"/>
			</radialGradient>

			<path fill="url(#SVGID_63_)" stroke="#0A264E" stroke-width="0.2146" stroke-miterlimit="10" d="M-274.908,262.681
				c2.227-0.393,1.357-2.732,1.357-2.732l-8.246-3.16l-2.625-2.359l0.117-0.633l-6.342,1.015c0,0,0.193,6.972-1.049,8.7l2.73,1.262
				l10.258,3.128c0,0,1.049-0.109,0.992-1.372c0,0,1.377,0.068,1.441-1.482C-276.273,265.046-274.254,264.526-274.908,262.681
				c0,0-2.449-2.116-3.832-1.834"/>
			<radialGradient id="SVGID_64_" cx="-279.207" cy="255.9399" r="6.9138" gradientUnits="userSpaceOnUse">
				<stop  offset="0" style="stop-color:#F5F5F5"/>
				<stop  offset="0.8535" style="stop-color:#F5F5F5"/>
				<stop  offset="1" style="stop-color:#F5F5F5"/>
			</radialGradient>
			<path fill="url(#SVGID_64_)" stroke="#0A264E" stroke-width="0.2146" stroke-miterlimit="10" d="M-270.504,257.761
				c0,0-3.129-7.916-6.217-5.969c0,0-0.912,1.017-1.545,1.125c-0.633,0.109-3.977-0.63-4.742-0.219
				c-0.77,0.412-3.613,2.908-3.75,3.375c-0.139,0.465-0.332,1.537-0.193,1.688c0,0-1.463,1.908-0.773,2.402
				c0.689,0.492,1.848,0.082,2.068-0.109c0.221-0.193,2.178-3.707,3.859-3.266l8.301,3.072c0,0,0.662-0.988,0.801-0.988
				C-272.559,258.872-271.098,258.599-270.504,257.761z"/>
			<radialGradient id="SVGID_65_" cx="-284.2764" cy="266.0991" r="5.0292" gradientUnits="userSpaceOnUse">
				<stop  offset="0" style="stop-color:#F5F5F5"/>
				<stop  offset="0.8535" style="stop-color:#F5F5F5"/>
				<stop  offset="1" style="stop-color:#F5F5F5"/>
			</radialGradient>
			<path fill="url(#SVGID_65_)" stroke="#0A264E" stroke-width="0.2146" stroke-miterlimit="10" d="M-281.859,268.938
				c0,0,0.01,0.015,0.027,0.04c0.127,0.198,0.738,1.002,1.959,0.494c1.387-0.578,1.613-2.594,1.613-2.594s0.643-2.346-0.703-1.954
				c0,0,0.455-0.978,0.496-1.472c0.043-0.494-0.732-1.226-1.611-0.721c-0.879,0.503-1.139,1.286-1.139,1.286s-1.17-1.167-2.578-0.11
				l-1.268,1.262c0,0,0.082-0.492-0.855-0.727c-0.938-0.232-1.953,0.611-2.881,0.381l-0.814-0.311l-0.832-0.426
				c0,0-0.135,2.345,3.658,4.404c0,0,0.979,0.082,2.025-0.098c0,0,0.402,1.25,1.973,0.934L-281.859,268.938z"/>
			<path fill="none" stroke="#0A264E" stroke-width="0.2441" stroke-miterlimit="10" d="M-281.217,264.018
				c0,0-1.604,3.894-3.846,4.466"/>
			<path fill="none" stroke="#0A264E" stroke-width="0.2441" stroke-miterlimit="10" d="M-285.062,265.169
				c0,0-1.564,2.174-3.465,2.225"/>
			<path fill="none" stroke="#0A264E" stroke-width="0.2441" stroke-miterlimit="10" d="M-278.963,264.924
				c0,0-1.422,3.184-2.928,4.054"/>
			<path fill="#0A264E" d="M-292.213,254.303h1.555c0,0,0.637,4.747-0.318,7.472c-0.951,2.723-1.236,3.451-1.236,3.451h-1.303
				L-292.213,254.303z"/>
			<radialGradient id="SVGID_66_" cx="-296.6367" cy="260.3896" r="6.4983" gradientUnits="userSpaceOnUse">
				<stop  offset="0" style="stop-color:#F5F5F5"/>
				<stop  offset="0.8535" style="stop-color:#F5F5F5"/>
				<stop  offset="1" style="stop-color:#F5F5F5"/>
			</radialGradient>
			<path fill="url(#SVGID_66_)" d="M-301.918,252.868c0,0,8.027,0.934,9.543,0.992c1.516,0.057,0.879,2.954,0.924,3.422
				l-1.912,9.272c0,0-0.49,1.384-1.965,1.355l-6.59-0.959"/>
		</g>
	</g>
	<g id="icone_top_menu_5">
		<g>
			<radialGradient id="SVGID_67_" cx="286.6807" cy="258.1743" r="22.7435" gradientUnits="userSpaceOnUse">
				<stop  offset="0" style="stop-color:#103B7A"/>
				<stop  offset="0.0134" style="stop-color:#103B79"/>
				<stop  offset="1" style="stop-color:#0A264E"/>
			</radialGradient>
			<rect x="264" y="235.368" fill="url(#SVGID_67_)" width="45.361" height="45.612"/>

			<g>

				<radialGradient id="SVGID_68_" cx="282.5693" cy="261.125" r="12.1418" gradientUnits="userSpaceOnUse">

					<stop  offset="0" style="stop-color:#F5F5F5"/>

					<stop  offset="0.8535" style="stop-color:#F5F5F5"/>

					<stop  offset="1" style="stop-color:#F5F5F5"/>

				</radialGradient>

				<path fill="url(#SVGID_68_)" d="M292.988,262.479l1.785-0.505l-0.133-2.352l-1.838-0.391l-0.854-2.018l1.51-1.508l-1.049-1.829

					l-1.967,0.522l-1.336-1.219l0.285-2.045l-2.1-1.045l-1.576,1.436l-1.604-0.456l-0.756-2.024l-2.232,0.13l-0.523,2.091

					l-1.52,0.432l-2.023-1.347l-1.707,1.306l0.525,1.828l-1.443,1.437l-1.969-0.522l-1.18,2.219l1.705,1.309l-0.525,2.088

					l-2.1,0.391v2.221l2.232,0.523l0.488,1.878l-1.408,1.517l1.312,1.959l1.969-0.784l1.441,1.566l-0.523,1.959l2.1,1.045

					l1.441-1.696l1.84,0.521l0.523,2.091h2.363l0.523-2.091l1.969-0.392l1.707,1.828l1.914-1.314l-0.865-2.21l1.574-1.567

					l1.969,0.652l1.041-2.379l-1.566-1.145L292.988,262.479z M282.635,268.201c-3.926,0-7.111-3.17-7.111-7.079

					c0-3.908,3.186-7.077,7.111-7.077c3.93,0,7.113,3.169,7.113,7.077C289.748,265.031,286.564,268.201,282.635,268.201z"/>

				<radialGradient id="SVGID_69_" cx="280.3066" cy="263.1206" r="1.5921" gradientUnits="userSpaceOnUse">

					<stop  offset="0" style="stop-color:#F5F5F5"/>

					<stop  offset="0.8535" style="stop-color:#F5F5F5"/>

					<stop  offset="1" style="stop-color:#F5F5F5"/>

				</radialGradient>

				<path fill="url(#SVGID_69_)" d="M278.941,262.942l-0.234,0.066l0.016,0.308l0.242,0.052l0.111,0.265l-0.199,0.198l0.139,0.238

					l0.26-0.066l0.174,0.159l-0.037,0.269l0.275,0.137l0.205-0.188l0.211,0.059l0.102,0.267l0.291-0.019l0.068-0.273l0.201-0.058

					l0.266,0.179l0.223-0.173l-0.068-0.24l0.188-0.187l0.26,0.068l0.154-0.292l-0.225-0.171l0.07-0.273l0.273-0.052v-0.291

					l-0.293-0.069l-0.064-0.246l0.186-0.2l-0.172-0.255l-0.258,0.102l-0.189-0.205l0.07-0.258l-0.277-0.136l-0.188,0.222

					l-0.242-0.068l-0.068-0.273h-0.309l-0.07,0.273l-0.258,0.053l-0.225-0.242l-0.25,0.174l0.113,0.291l-0.207,0.205l-0.256-0.087

					l-0.139,0.313l0.205,0.149L278.941,262.942z M280.299,262.19c0.516,0,0.932,0.418,0.932,0.931c0,0.512-0.416,0.927-0.932,0.927

					s-0.936-0.415-0.936-0.927C279.363,262.608,279.783,262.19,280.299,262.19z"/>

				<radialGradient id="SVGID_70_" cx="282.1484" cy="259.3501" r="2.4934" gradientUnits="userSpaceOnUse">

					<stop  offset="0" style="stop-color:#F5F5F5"/>

					<stop  offset="0.8535" style="stop-color:#F5F5F5"/>

					<stop  offset="1" style="stop-color:#F5F5F5"/>

				</radialGradient>

				<path fill="url(#SVGID_70_)" d="M280.008,259.071l-0.365,0.105l0.027,0.481l0.375,0.08l0.176,0.415l-0.311,0.31l0.217,0.375

					l0.406-0.106l0.271,0.249l-0.059,0.42l0.432,0.214l0.322-0.293l0.33,0.093l0.154,0.417l0.459-0.027l0.109-0.43l0.311-0.088

					l0.418,0.275l0.35-0.268l-0.109-0.375l0.297-0.297l0.404,0.109l0.242-0.457l-0.352-0.269l0.109-0.429l0.432-0.08v-0.455

					l-0.459-0.107l-0.1-0.385l0.287-0.312l-0.27-0.402l-0.404,0.162l-0.295-0.323l0.107-0.401l-0.432-0.216l-0.295,0.349

					l-0.379-0.106l-0.105-0.43h-0.486l-0.107,0.43l-0.404,0.081l-0.35-0.377l-0.395,0.271l0.178,0.451l-0.322,0.324l-0.404-0.135

					l-0.213,0.488l0.32,0.235L280.008,259.071z M282.135,257.897c0.807,0,1.459,0.648,1.459,1.453c0,0.803-0.652,1.453-1.459,1.453

					s-1.463-0.65-1.463-1.453C280.672,258.546,281.328,257.897,282.135,257.897z"/>

				<radialGradient id="SVGID_71_" cx="284.8477" cy="263.7871" r="2.6861" gradientUnits="userSpaceOnUse">

					<stop  offset="0" style="stop-color:#F5F5F5"/>

					<stop  offset="0.8535" style="stop-color:#F5F5F5"/>
					<stop  offset="1" style="stop-color:#F5F5F5"/>
				</radialGradient>
				<path fill="url(#SVGID_71_)" d="M282.541,263.486l-0.393,0.112l0.027,0.52l0.406,0.086l0.189,0.447l-0.334,0.334l0.232,0.404
					l0.436-0.113l0.297,0.268l-0.064,0.453l0.465,0.23l0.348-0.318l0.354,0.101l0.168,0.45l0.496-0.029l0.115-0.465l0.336-0.094
					l0.447,0.298l0.377-0.29l-0.117-0.404l0.322-0.318l0.434,0.119l0.264-0.494l-0.379-0.287l0.115-0.463l0.465-0.087v-0.491
					l-0.492-0.115l-0.109-0.416l0.311-0.334l-0.289-0.434l-0.436,0.17l-0.32-0.344l0.115-0.435l-0.463-0.229l-0.318,0.373
					l-0.408-0.113l-0.115-0.463H284.5l-0.117,0.463l-0.436,0.086l-0.377-0.404l-0.424,0.291l0.191,0.488l-0.348,0.348l-0.436-0.145
					l-0.23,0.525l0.346,0.254L282.541,263.486z M284.834,262.221c0.867,0,1.572,0.701,1.572,1.566c0,0.864-0.705,1.566-1.572,1.566
					c-0.869,0-1.574-0.702-1.574-1.566C283.26,262.922,283.965,262.221,284.834,262.221z"/>
				<radialGradient id="SVGID_72_" cx="296.624" cy="248.916" r="6.338" gradientUnits="userSpaceOnUse">
					<stop  offset="0" style="stop-color:#F5F5F5"/>
					<stop  offset="0.8535" style="stop-color:#F5F5F5"/>
					<stop  offset="1" style="stop-color:#F5F5F5"/>
				</radialGradient>
				<path fill="url(#SVGID_72_)" d="M291.184,248.21l-0.93,0.262l0.066,1.227l0.959,0.205l0.445,1.054l-0.787,0.787l0.549,0.954
					l1.027-0.271l0.697,0.636l-0.148,1.067l1.094,0.546l0.824-0.75l0.838,0.237l0.395,1.059l1.164-0.068l0.275-1.09l0.793-0.227
					l1.055,0.703l0.891-0.682l-0.273-0.955l0.754-0.75l1.025,0.273l0.619-1.16l-0.893-0.68l0.273-1.091l1.098-0.206v-1.157
					l-1.164-0.274l-0.256-0.979l0.734-0.792l-0.686-1.023l-1.025,0.411l-0.754-0.819l0.273-1.023l-1.096-0.543l-0.752,0.883
					l-0.961-0.271l-0.273-1.09h-1.232l-0.275,1.09l-1.025,0.205l-0.893-0.953l-1,0.686l0.453,1.155l-0.822,0.816l-1.027-0.342
					l-0.545,1.244l0.818,0.597L291.184,248.21z M296.588,245.222c2.053,0,3.713,1.654,3.713,3.695c0,2.04-1.66,3.693-3.713,3.693
					c-2.049,0-3.713-1.653-3.713-3.693C292.875,246.876,294.539,245.222,296.588,245.222z"/>
			</g>
		</g>
		<g>
			<radialGradient id="SVGID_73_" cx="399.0254" cy="258.1934" r="22.8027" gradientUnits="userSpaceOnUse">

				<stop  offset="0" style="stop-color:#103B7A"/>

				<stop  offset="0.0134" style="stop-color:#103B79"/>

				<stop  offset="1" style="stop-color:#0A264E"/>

			</radialGradient>

			<rect x="376.227" y="235.387" fill="url(#SVGID_73_)" width="45.598" height="45.613"/>

			<radialGradient id="SVGID_74_" cx="399.0244" cy="257.9043" r="15.5128" gradientUnits="userSpaceOnUse">

				<stop  offset="0" style="stop-color:#F5F5F5"/>

				<stop  offset="0.8535" style="stop-color:#F5F5F5"/>

				<stop  offset="1" style="stop-color:#F5F5F5"/>

			</radialGradient>

			<path fill="url(#SVGID_74_)" d="M417.113,256.942c-1.275,0.217-3.121-0.009-4.098-0.414c2.033-0.168,3.408-1.086,3.939-2.334

				c-0.732,0.448-3.01,0.937-4.264,0.47c-0.062-0.292-0.131-0.571-0.201-0.825c-0.955-3.5-4.232-6.322-7.666-5.981

				c0.275-0.11,0.557-0.214,0.842-0.31c0.375-0.136,2.592-0.494,2.244-1.273c-0.297-0.686-3.004,0.516-3.516,0.675

				c0.674-0.251,1.787-0.686,1.906-1.458c-1.031,0.144-2.043,0.629-2.826,1.334c0.283-0.302,0.496-0.672,0.541-1.069

				c-2.752,1.753-4.361,5.283-5.66,8.71c-1.021-0.988-1.93-1.764-2.742-2.197c-2.277-1.215-5.004-2.485-9.279-4.067

				c-0.131,1.409,0.699,3.284,3.092,4.53c-0.52-0.07-1.465,0.087-2.225,0.266c0.311,1.617,1.318,2.946,4.051,3.59

				c-1.248,0.082-1.895,0.367-2.479,0.975c0.568,1.125,1.957,2.446,4.453,2.174c-2.775,1.191-1.131,3.4,1.127,3.069

				c-3.854,3.968-9.928,3.675-13.418,0.359c9.109,12.364,28.91,7.311,31.861-4.599C415.008,258.583,416.307,257.804,417.113,256.942

				z"/>

		</g>

		<g>

			<radialGradient id="SVGID_75_" cx="342.3594" cy="258.1934" r="22.793" gradientUnits="userSpaceOnUse">

				<stop  offset="0" style="stop-color:#103B7A"/>

				<stop  offset="0.0134" style="stop-color:#103B79"/>

				<stop  offset="1" style="stop-color:#0A264E"/>

			</radialGradient>

			<rect x="319.58" y="235.387" fill="url(#SVGID_75_)" width="45.559" height="45.613"/>

			<radialGradient id="SVGID_76_" cx="354.957" cy="252.7871" r="6.8176" gradientUnits="userSpaceOnUse">

				<stop  offset="0" style="stop-color:#F5F5F5"/>

				<stop  offset="0.8535" style="stop-color:#F5F5F5"/>

				<stop  offset="1" style="stop-color:#F5F5F5"/>

			</radialGradient>

			<path fill="url(#SVGID_76_)" d="M360.867,245.187L360.867,245.187c0,0-11.297,4.857-11.814,6.707

				c-0.514,1.849,6.205,6.006,6.205,6.006l-1.469,0.799c0,0,0.043,2.015,2.141,1.645l4.959-1.271"/>

			<path fill="#0A264E" d="M349.027,251.792c0,0,0.611-1.576,2.867-1.008c0,0,3.928,3.891,4.301,6.771c0,0,0.291,2.294-2.57,1.339

				c-2.861-0.953-2.117-2.684-2.117-2.684l-2.48-4.307"/>
			<radialGradient id="SVGID_77_" cx="343.209" cy="260.8481" r="8.1717" gradientUnits="userSpaceOnUse">

				<stop  offset="0" style="stop-color:#F5F5F5"/>

				<stop  offset="0.8535" style="stop-color:#F5F5F5"/>

				<stop  offset="1" style="stop-color:#F5F5F5"/>

			</radialGradient>

			<path fill="url(#SVGID_77_)" stroke="#0A264E" stroke-width="0.2146" stroke-miterlimit="10" d="M350.84,262.681

				c2.227-0.393,1.357-2.732,1.357-2.732l-8.246-3.16l-2.625-2.359l0.117-0.633l-6.342,1.015c0,0,0.193,6.972-1.049,8.7l2.73,1.262

				l10.258,3.128c0,0,1.049-0.109,0.992-1.372c0,0,1.377,0.068,1.441-1.482C349.475,265.046,351.494,264.526,350.84,262.681

				c0,0-2.449-2.116-3.832-1.834"/>

			<radialGradient id="SVGID_78_" cx="346.541" cy="255.9399" r="6.9138" gradientUnits="userSpaceOnUse">

				<stop  offset="0" style="stop-color:#F5F5F5"/>

				<stop  offset="0.8535" style="stop-color:#F5F5F5"/>

				<stop  offset="1" style="stop-color:#F5F5F5"/>

			</radialGradient>

			<path fill="url(#SVGID_78_)" stroke="#0A264E" stroke-width="0.2146" stroke-miterlimit="10" d="M355.244,257.761

				c0,0-3.129-7.916-6.217-5.969c0,0-0.912,1.017-1.545,1.125c-0.633,0.109-3.977-0.63-4.742-0.219

				c-0.77,0.412-3.613,2.908-3.75,3.375c-0.139,0.465-0.332,1.537-0.193,1.688c0,0-1.463,1.908-0.773,2.402

				c0.689,0.492,1.848,0.082,2.068-0.109c0.221-0.193,2.178-3.707,3.859-3.266l8.301,3.072c0,0,0.662-0.988,0.801-0.988

				C353.189,258.872,354.65,258.599,355.244,257.761z"/>

			<radialGradient id="SVGID_79_" cx="341.4717" cy="266.0991" r="5.0292" gradientUnits="userSpaceOnUse">

				<stop  offset="0" style="stop-color:#F5F5F5"/>

				<stop  offset="0.8535" style="stop-color:#F5F5F5"/>

				<stop  offset="1" style="stop-color:#F5F5F5"/>

			</radialGradient>

			<path fill="url(#SVGID_79_)" stroke="#0A264E" stroke-width="0.2146" stroke-miterlimit="10" d="M343.889,268.938

				c0,0,0.01,0.015,0.027,0.04c0.127,0.198,0.738,1.002,1.959,0.494c1.387-0.578,1.613-2.594,1.613-2.594s0.643-2.346-0.703-1.954

				c0,0,0.455-0.978,0.496-1.472c0.043-0.494-0.732-1.226-1.611-0.721c-0.879,0.503-1.139,1.286-1.139,1.286s-1.17-1.167-2.578-0.11

				l-1.268,1.262c0,0,0.082-0.492-0.855-0.727c-0.938-0.232-1.953,0.611-2.881,0.381l-0.814-0.311l-0.832-0.426

				c0,0-0.135,2.345,3.658,4.404c0,0,0.979,0.082,2.025-0.098c0,0,0.402,1.25,1.973,0.934L343.889,268.938z"/>

			<path fill="none" stroke="#0A264E" stroke-width="0.2441" stroke-miterlimit="10" d="M344.531,264.018

				c0,0-1.604,3.894-3.846,4.466"/>

			<path fill="none" stroke="#0A264E" stroke-width="0.2441" stroke-miterlimit="10" d="M340.686,265.169

				c0,0-1.564,2.174-3.465,2.225"/>

			<path fill="none" stroke="#0A264E" stroke-width="0.2441" stroke-miterlimit="10" d="M346.785,264.924

				c0,0-1.422,3.184-2.928,4.054"/>

			<path fill="#0A264E" d="M333.535,254.303h1.555c0,0,0.637,4.747-0.318,7.472c-0.951,2.723-1.236,3.451-1.236,3.451h-1.303

				L333.535,254.303z"/>

			<radialGradient id="SVGID_80_" cx="329.1113" cy="260.3896" r="6.4983" gradientUnits="userSpaceOnUse">

				<stop  offset="0" style="stop-color:#F5F5F5"/>

				<stop  offset="0.8535" style="stop-color:#F5F5F5"/>

				<stop  offset="1" style="stop-color:#F5F5F5"/>

			</radialGradient>

			<path fill="url(#SVGID_80_)" d="M323.83,252.868c0,0,8.027,0.934,9.543,0.992c1.516,0.057,0.879,2.954,0.924,3.422l-1.912,9.272

				c0,0-0.49,1.384-1.965,1.355l-6.59-0.959"/>

		</g>
	</g>
-->
    </g>

    <g id="content_bg">
	<radialGradient id="SVGID_82_" cx="150" cy="106" r="121.396" gradientUnits="userSpaceOnUse">
		<stop  offset="0" style="stop-color:#29AAE1"/>
		<stop  offset="0.469" style="stop-color:#29A8DE"/>
		<stop  offset="0.7549" style="stop-color:#27A2D6"/>
		<stop  offset="0.9916" style="stop-color:#2497C8"/>
		<stop  offset="1" style="stop-color:#2496C7"/>
	</radialGradient>
	<rect x="7" y="11" fill="url(#SVGID_82_)" width="293" height="210"/>
    </g>

    <g id="foto_progetto">
      <image overflow="visible" width="291.5" height="186.5"
             xlink:href="../../Documents/ARIANNA/VARIE/plamp cucina-15.png"
             transform="translate(8 16.7183)"/>
    </g>

    <g id="titolo_foto_progetto">
      <rect x="18.5" y="175.5" opacity="0.59" fill="#1D1D1B" width="272.668" height="31"/>
      <text transform="translate(132 194.5)" fill="#FFFFFF" font-family="'NeoSans-Medium'" font-size="12.3084">P.LAMP </text>
    </g>

<!--
    <g id="qr_code">
      <defs>
        <rect id="SVGID_87_" x="134" y="33.5" width="61.785" height="61.785"/>
      </defs>
      <clipPath id="SVGID_88_">
        <use xlink:href="#SVGID_87_"  overflow="visible"/>
      </clipPath>
      <g clip-path="url(#SVGID_88_)">
        <image overflow="visible" width="225" height="225" xlink:href="qr_code.png"  transform="translate(134 33.5)"/>
      </g>
    </g>
-->

<g id="testo">
<!--
	<g id="righe_gialle">
			<line fill="none" stroke="#FFFF04" stroke-width="0.9309" stroke-miterlimit="10" x1="2768.833" y1="300.667" x2="2961" y2="300.667"/>
			<line fill="none" stroke="#FFFF04" stroke-width="0.9309" stroke-miterlimit="10" x1="2768.833" y1="363.5" x2="2961" y2="363.5"/>
	</g>
-->
	<rect x="64.5" y="28" fill="none" width="192.167" height="157.639"/>
	<text transform="translate(64.7773 36)"><tspan x="0" y="0" fill="#FFFFFF" font-family="'DINPro-Regular'" font-size="11">Le attivit del  </tspan><tspan x="71.187" y="0" fill="#FFFFFF" font-family="'DINPro-Bold'" font-size="11">LUA</tspan><tspan x="91.878" y="0" fill="#FFFFFF" font-family="'DINPro-Regular'" font-size="11">  si articolano in 4 </tspan><tspan x="0" y="13.2" fill="#FFFFFF" font-family="'DINPro-Regular'" font-size="11">macro-aree: </tspan><tspan x="64.071" y="13.2" fill="#FFFFFF" font-family="'DINPro-Bold'" font-size="11">Accesibilit e Usabilit, </tspan><tspan x="0" y="26.4" fill="#FFFFFF" font-family="'DINPro-Bold'" font-size="11">Beni culturali, Mondi 3D e Interfacce </tspan><tspan x="0" y="39.6" fill="#FFFFFF" font-family="'DINPro-Bold'" font-size="11">tattili</tspan><tspan x="0" y="66" fill="#FFFFFF" font-family="'DINPro-Regular'" font-size="11">Vengono sviluppate soluzioni relative </tspan><tspan x="0" y="79.2" fill="#FFFFFF" font-family="'DINPro-Regular'" font-size="11">all</tspan><tspan x="15.212" y="79.2" fill="#FFFFFF" font-family="'DINPro-Bold'" font-size="11">Interaction Design, alla AR, agli </tspan></text>

    </g>

    <g id="contatti_testo">
	<rect x="69" y="38.5" fill="none" width="192.167" height="233"/>
	<text transform="translate(74 112)"><tspan x="0" y="0" fill="#0A2651" font-family="'DINPro-Bold'" font-size="11">Prendi il suo biglietto da visita</tspan><tspan x="183.306" y="0" fill="#0A2651" font-family="'DINPro-Regular'" font-size="11"> </tspan><tspan x="32.884" y="26.4" fill="#FFFFFF" font-family="'DINPro-Bold'" font-size="11">www.cattid.uniroma1.it</tspan><tspan x="19.398" y="39.6" fill="#FFFFFF" font-family="'DINPro-Bold'" font-size="11">direzione@cattid.uniroma1.it </tspan><tspan x="28.143" y="66" fill="#FFFFFF" font-family="'DINPro-Regular'" font-size="11">Roma - Citt Universitaria</tspan><tspan x="40.892" y="79.2" fill="#FFFFFF" font-family="'DINPro-Regular'" font-size="11">Piazzale Aldo Moro 5</tspan></text>
    </g>
    <g id="freccia">
      <radialGradient id="SVGID_91_" cx="34" cy="80" r="22.803" gradientUnits="userSpaceOnUse">
        <stop  offset="0" style="stop-color:#FFFF8A"/>
	<stop  offset="0.4712" style="stop-color:#F0F044"/>
	<stop  offset="0.8237" style="stop-color:#E7E716"/>
	<stop  offset="1" style="stop-color:#E3E304"/>
      </radialGradient>
      <rect x="11" y="57.291" fill="url(#SVGID_91_)" width="45.599" height="45.613"/>
      <g>
        <radialGradient id="SVGID_92_" cx="83" cy="80.5" r="10.4852" gradientUnits="userSpaceOnUse">
	  <stop  offset="0" style="stop-color:#103B7A"/>
          <stop  offset="0.0134" style="stop-color:#103B79"/>
	  <stop  offset="1" style="stop-color:#0A264E"/>
	</radialGradient>
	<polyline fill="url(#SVGID_92_)" points="28,93.285 43.217,80 28,67"/>
      </g>
    </g>

    <g id="selezione_tasto_gialla" transform="translate(467,-178)"> 
		<radialGradient id="SVGID_105_" cx="-313.5" cy="239.6167" r="109.6878" gradientUnits="userSpaceOnUse">
			<stop  offset="0" style="stop-color:#FFFF04"/>
			<stop  offset="1" style="stop-color:#E3D904"/>
		</radialGradient>
		<polygon fill="url(#SVGID_105_)" points="-463,198.233 -463,222 -418,222 -418,281 -372,281 -372,222 -164,222 -164,198.233 		"/>
		<g>
			<g>
				<path fill="#0A2651" d="M-260.76,215.893c-0.2,0.054-1.078,0.215-2.104,0.215c-1.596,0-3.765-0.792-3.765-4.104v-1.972
					c0-3.366,2.169-4.104,3.765-4.104c1.025,0,1.903,0.161,2.104,0.214c0.172,0.054,0.293,0.121,0.293,0.309v0.899
					c0,0.161-0.067,0.281-0.268,0.281c0,0-0.013,0-0.025,0c-0.467-0.04-1.371-0.107-2.076-0.107c-1.117,0-1.93,0.604-1.93,2.508
					v1.972c0,1.864,0.812,2.508,1.93,2.508c0.705,0,1.609-0.067,2.076-0.107c0.013,0,0.025,0,0.025,0c0.2,0,0.268,0.121,0.268,0.282
					v0.898C-260.467,215.772-260.588,215.839-260.76,215.893z"/>
				<path fill="#0A2651" d="M-251.662,216h-1.316c-0.146,0-0.268-0.121-0.268-0.268v-4.104h-3.777v4.104
					c0,0.147-0.121,0.268-0.268,0.268h-1.316c-0.146,0-0.266-0.121-0.266-0.268v-9.442c0-0.148,0.119-0.255,0.266-0.255h1.316
					c0.146,0,0.268,0.107,0.268,0.255v3.702h3.777v-3.702c0-0.148,0.121-0.255,0.268-0.255h1.316c0.146,0,0.266,0.107,0.266,0.255
					v9.442C-251.396,215.879-251.516,216-251.662,216z"/>
				<path fill="#0A2651" d="M-247.82,216h-1.317c-0.146,0-0.267-0.121-0.267-0.268v-9.442c0-0.148,0.12-0.255,0.267-0.255h1.317
					c0.146,0,0.266,0.107,0.266,0.255v9.442C-247.555,215.879-247.674,216-247.82,216z"/>
				<path fill="#0A2651" d="M-239.748,216.107c-0.997,0-1.716-0.094-2.354-0.242c-0.133-0.027-0.253-0.121-0.253-0.268v-0.966
					c0-0.147,0.12-0.255,0.253-0.255c0.013,0,0.013,0,0.026,0c0.533,0.067,1.863,0.134,2.355,0.134c1.184,0,1.543-0.429,1.543-1.207

					c0-0.523-0.252-0.792-1.131-1.314l-1.756-1.06c-1.238-0.738-1.57-1.516-1.57-2.455c0-1.476,0.852-2.548,3.326-2.548

					c0.879,0,2.103,0.134,2.555,0.241c0.133,0.027,0.24,0.121,0.24,0.255v0.993c0,0.134-0.094,0.241-0.227,0.241

					c-0.014,0-0.014,0-0.027,0c-0.877-0.08-1.756-0.134-2.621-0.134c-0.984,0-1.396,0.349-1.396,0.952

					c0,0.443,0.227,0.711,1.092,1.194l1.596,0.898c1.464,0.818,1.85,1.677,1.85,2.736

					C-236.248,214.659-237.086,216.107-239.748,216.107z"/>

				<path fill="#0A2651" d="M-233.07,216h-1.317c-0.146,0-0.267-0.121-0.267-0.268v-9.442c0-0.148,0.12-0.255,0.267-0.255h1.317

					c0.146,0,0.266,0.107,0.266,0.255v9.442C-232.805,215.879-232.924,216-233.07,216z"/>

				<path fill="#0A2651" d="M-223.705,216h-1.41c-0.119,0-0.227-0.107-0.253-0.228l-0.612-2.548h-3.061l-0.611,2.548

					c-0.027,0.121-0.133,0.228-0.253,0.228h-1.411c-0.133,0-0.238-0.094-0.238-0.228c0-0.013,0.013-0.04,0.013-0.067l2.183-8.41

					c0.318-1.248,1.277-1.368,1.85-1.368s1.529,0.121,1.85,1.368l2.182,8.41c0,0.027,0.014,0.054,0.014,0.067

					C-223.465,215.906-223.572,216-223.705,216z M-227.297,207.711c-0.041-0.161-0.08-0.214-0.213-0.214

					c-0.134,0-0.174,0.054-0.213,0.214l-0.959,3.984h2.342L-227.297,207.711z"/>

				<path fill="#0A2651" d="M-213.902,216h-1.344c-0.119,0-0.213-0.134-0.213-0.268v-6.237c0-0.094-0.014-0.134-0.04-0.134

					c-0.013,0-0.04,0.04-0.066,0.081l-1.277,2.562c-0.08,0.147-0.253,0.228-0.426,0.228h-1.345c-0.172,0-0.346-0.081-0.426-0.228

					l-1.29-2.562c-0.026-0.041-0.054-0.081-0.066-0.081c-0.026,0-0.04,0.04-0.04,0.134v6.237c0,0.134-0.094,0.268-0.213,0.268

					h-1.344c-0.119,0-0.227-0.067-0.227-0.201v-9.228c0-0.295,0.24-0.536,0.533-0.536h1.09c0.213,0,0.4,0.134,0.492,0.322

					l2.01,4.104c0.066,0.121,0.094,0.188,0.146,0.188s0.08-0.067,0.146-0.188l2.01-4.104c0.092-0.188,0.279-0.322,0.492-0.322h1.09

					c0.293,0,0.533,0.241,0.533,0.536v9.228C-213.676,215.933-213.783,216-213.902,216z"/>

				<path fill="#0A2651" d="M-208.158,216.107c-2.195,0-3.792-1.234-3.792-4.185v-1.811c0-2.951,1.597-4.185,3.792-4.185
					s3.792,1.234,3.792,4.185v1.811C-204.366,214.874-205.963,216.107-208.158,216.107z M-206.229,210.112

					c0-1.771-0.625-2.562-1.93-2.562s-1.93,0.791-1.93,2.562v1.811c0,1.771,0.625,2.562,1.93,2.562s1.93-0.792,1.93-2.562V210.112z"

					/>

			</g>

		</g>

		<g>

			<g opacity="0.3">

				<radialGradient id="SVGID_106_" cx="-395.1992" cy="265.0771" r="12.2359" gradientUnits="userSpaceOnUse">

					<stop  offset="0" style="stop-color:#29AAE1"/>

					<stop  offset="1" style="stop-color:#298CF5"/>

				</radialGradient>

				<path fill-rule="evenodd" clip-rule="evenodd" fill="url(#SVGID_106_)" d="M-394.117,256.678h-8.84

					c-8.971,0.1-7.236,16.799-7.236,16.799h5.611v-5.295v-0.9c0,0,0.756-0.905,1.404,0.056v6.14h15.955v-6.14h1.385l0.021,0.845
					v5.295h5.611c0,0,1.734-16.699-7.236-16.799h-7.766"/>

				<radialGradient id="SVGID_107_" cx="-395.4062" cy="248.7979" r="6.3672" gradientUnits="userSpaceOnUse">

					<stop  offset="0" style="stop-color:#29AAE1"/>

					<stop  offset="1" style="stop-color:#298CF5"/>

				</radialGradient>

				<ellipse fill-rule="evenodd" clip-rule="evenodd" fill="url(#SVGID_107_)" cx="-395.406" cy="248.798" rx="6.383" ry="6.352"/>

			</g>

			

				<radialGradient id="SVGID_108_" cx="-410.5889" cy="226.3467" r="9.8254" gradientTransform="matrix(0.7071 0.7071 -0.7071 0.7071 55.7451 352.2769)" gradientUnits="userSpaceOnUse">

				<stop  offset="0" style="stop-color:#103B7A"/>

				<stop  offset="0.0134" style="stop-color:#103B79"/>

				<stop  offset="1" style="stop-color:#0A264E"/>

			</radialGradient>

			<polygon fill="url(#SVGID_108_)" points="-380.736,222 -394.632,235.896 -408.527,222 			"/>

		</g>

    </g>

    <path id="mascherina" transform="translate(1997,-178)" fill="#FFFFFF"
          d="M-1997.984,177v335.002l309-0.002V176.999L-1997.984,177z M-1707.984,384l-10,7v12h-247v-11h-6v-38h6v-71
			h-23v-50h23v-33.999l241-0.001l7,7.25v42.078l9,9.697V384z"/>

    <g id="title_box_1">
	<rect x="24" y="195" opacity="0.59" fill="#1D1D1B" width="272.667" height="30"/>
	<text id="content_title_text_1" transform="translate(45 214)" fill="#FFFFFF" font-family="'NeoSans-Medium'" font-size="12.3084">Laboratorio di Ricerca - Sapienza</text>
    </g>

    <g id="content_1">
      <use xlink:href="#content_bg"/>
      <use xlink:href="#twitter_content"/>
    </g>

    <g id="menu">
<!--
      <use xlink:href="#blue_layer"/>
      <use xlink:href="#icone_top_menu"/>
-->
    </g>

    <image id="image_content_1" overflow="visible" width="280" height="204" xlink:href="foto_gruppo_cattid.jpg" transform="translate(9.5 21.5)"/>

<!--
    <g id="twitter_lines">
      <line fill="none" stroke="#FFFF04" stroke-width="0.9309" stroke-miterlimit="10" x1="2768.833" y1="300.667" x2="2961" y2="300.667"/>
      <line fill="none" stroke="#FFFF04" stroke-width="0.9309" stroke-miterlimit="10" x1="2768.833" y1="363.5" x2="2961" y2="363.5"/>
    </g>
-->

    <line id="twitter_line" fill="none" stroke="#FFFF04" stroke-width="0.9309" stroke-miterlimit="10" x1="60" y1="117" x2="262" y2="117"/>

  </defs>

  <defs id="for_each_polaroid">

    <g id="twitter_content">

    <g id="qr_code">
      <defs>
        <rect id="SVGID_87_" x="121" y="28" width="80" height="80"/>
      </defs>
      <clipPath id="SVGID_88_">
        <use xlink:href="#SVGID_87_"  overflow="visible"/>
      </clipPath>
      <g clip-path="url(#SVGID_88_)">
        <image overflow="visible" width="80" height="80" xlink:href="qr_code.png"  transform="translate(121 28)"/>
      </g>
    </g>


      <use xlink:href="#twitter_line"/>

<!--	<rect x="69" y="38.5" fill="none" width="192.167" height="233"/>-->
	<text id="twitter_text" transform="translate(45 133)" fill="#FFFFFF" font-family="monospace" font-size="10">
<!--
          <tspan x="0" y="0" fill="#FFFF04" font-family="'DINPro-Regular'" font-size="10">3 Aprile</tspan>
-->
          <tspan id="twitter_line_1" x="0" y="0">PAYMENT 2.0 - il CATTID presenta la </tspan>
          <tspan id="twitter_line_2" x="0" y="13.2">Bussola sui Mobile Payment - 17/04 ore </tspan>
          <tspan id="twitter_line_3" x="0" y="26.4">10 Unione Confcommercio Milano</tspan>
          <tspan id="twitter_line_4" x="0" y="39.6">Per dindirindina</tspan>
          <tspan id="twitter_line_5" x="0" y="52.8">Per dinciribacco</tspan>
<!--
          <tspan id="twitter_line_1" x="0" y="0"/>
          <tspan id="twitter_line_2" x="0" y="13.2"/>
          <tspan id="twitter_line_3" x="0" y="26.4"/>
          <tspan id="twitter_line_4" x="0" y="39.6"/>
          <tspan id="twitter_line_5" x="0" y="52.8"/>
-->
      </text>

    </g>


<!--
    <g id="image_content">
      <defs>
        <rect id="SVGID_1_" x="9.5" y="21.5" width="280" height="204"/>
      </defs>
      <clipPath id="SVGID_2_">
        <use xlink:href="#SVGID_1_"  overflow="visible"/>
      </clipPath>
      <g clip-path="url(#SVGID_2_)">
          <image overflow="visible" width="280" height="204" xlink:href="foto_gruppo_cattid.jpg" transform="translate(9.5 21.5)"/>
      </g>
    </g>
-->

      <image id="image_content" overflow="visible" width="280" height="204" transform="translate(9.5 21.5)"/>

    <g id="text_content">
<!--
-->
      <rect x="64.5" y="28" fill="none" width="192.167" height="157.639"/>
      <text transform="translate(50 45)" fill="#FFFFFF" font-family="monospace" font-size="11">
        <tspan x="0" y="0">Le attivit del </tspan><tspan font-weight="bold">LUA</tspan><tspan> si articolan</tspan>
        <tspan x="0" y="13.2">in 4 macro-aree: </tspan><tspan x="64.071" y="13.2" fill="#FFFFFF" font-family="'DINPro-Bold'" font-size="11">Accesibilit e Usabilit, </tspan><tspan x="0" y="26.4" fill="#FFFFFF" font-family="'DINPro-Bold'" font-size="11">Beni culturali, Mondi 3D e Interfacce </tspan><tspan x="0" y="39.6" fill="#FFFFFF" font-family="'DINPro-Bold'" font-size="11">tattili</tspan><tspan x="0" y="66" fill="#FFFFFF" font-family="'DINPro-Regular'" font-size="11">Vengono sviluppate soluzioni relative </tspan><tspan x="0" y="79.2" fill="#FFFFFF" font-family="'DINPro-Regular'" font-size="11">all</tspan><tspan x="15.212" y="79.2" fill="#FFFFFF" font-family="'DINPro-Bold'" font-size="11">Interaction Design, alla AR, agli </tspan></text>
    </g>

    <g id="content">
      <use xlink:href="#content_bg"/>
    </g>

    <g id="title_box">
	<rect x="24" y="195" opacity="0.59" fill="#1D1D1B" width="272.667" height="30"/>
	<text id="content_title_text" transform="translate(45 214)" fill="#FFFFFF" font-family="'NeoSans-Medium'" font-size="12.3084"/>
    </g>

    <g id="polaroid" transform="translate(-161 -289)">
      <use xlink:href="#ombra_polaroid"/>
      <use xlink:href="#content_1"/>
      <use xlink:href="#title_box_1"/>
      <use xlink:href="#menu"/>
     <!-- <use xlink:href="#mascherina"/> -->
    </g>

  </defs>

  <use xlink:href="background.svg#Livello_1"/>

  <g id="layer_polaroid"/>
<!--
  <g id="layer_polaroid" transform="translate(300,500)">
    <use xlink:href="#polaroid"/>
  </g>
-->

<!--
    <g id="polaroid_1" transform="translate(-1997,178)">
      <use xlink:href="#ombra_polaroid"/>
      <use xlink:href="#foto_relatore"/>
      <use xlink:href="#titolo_foto_relatore"/>
      <use xlink:href="#freccia"/>
      <use xlink:href="#mascherina"/>
    </g>

    <g id="polaroid_2" transform="translate(-1560,178)">
      <use xlink:href="#ombra_polaroid"/>
      <use xlink:href="#foto_relatore"/>
      <use xlink:href="#titolo_foto_relatore"/>
      <use xlink:href="#trasparenza_foto"/>
      <use xlink:href="#freccia" transform="translate(160 0)"/>
      <use xlink:href="#mascherina"/>
    </g>

    <g id="polaroid_3" transform="translate(-912,178)">
      <use xlink:href="#ombra_polaroid"/>
      <use xlink:href="#foto_relatore"/>
      <use xlink:href="#titolo_foto_relatore"/>
      <use xlink:href="#trasparenza_foto"/>
      <use xlink:href="#icone_top_menu"/>
      <use xlink:href="#mascherina"/>
    </g>

    <g id="polaroid_4" transform="translate(-467,178)">
      <use xlink:href="#ombra_polaroid"/>
      <use xlink:href="#foto_relatore"/>
      <use xlink:href="#titolo_foto_relatore"/>
      <use xlink:href="#trasparenza_foto"/>
      <use xlink:href="#selezione_tasto_gialla"/>
      <use xlink:href="#mascherina"/>
    </g>

    <g id="polaroid_5" transform="translate(160,178)">
      <use xlink:href="#ombra_polaroid"/>
      <use xlink:href="#foto_relatore"/>
      <use xlink:href="#titolo_foto_relatore"/>
      <use xlink:href="#trasparenza_foto"/>
      <use xlink:href="#pagina_nuova"/>
      <use xlink:href="#testo"/>
      <use xlink:href="#selezione_tasto_gialla" transform="translate(0,95)"/>
      <use xlink:href="#mascherina"/>
    </g>

    <g id="polaroid_6" transform="translate(597,178)">
      <use xlink:href="#ombra_polaroid"/>
      <use xlink:href="#icone_top_menu"/>
      <use xlink:href="#pagina_nuova"/>
      <use xlink:href="#testo"/>
      <use xlink:href="#freccia"/>
      <use xlink:href="#selezione_tasto_gialla" transform="translate(0,180.5)"/>
      <use xlink:href="#mascherina"/>
    </g>

    <g id="polaroid_7" transform="translate(1187.885,178)">
      <use xlink:href="#ombra_polaroid"/>
      <use xlink:href="#pagina_nuova"/>
      <use xlink:href="#freccia"/>
      <use xlink:href="#selezione_tasto_gialla" transform="translate(0,180.5)"/>
      <use xlink:href="#mascherina"/>
    </g>

    <g id="polaroid_8" transform="translate(1640.868,178)">
      <use xlink:href="#ombra_polaroid"/>
      <use xlink:href="#pagina_nuova"/>
      <use xlink:href="#foto_progetto"/>
      <use xlink:href="#titolo_foto_progetto"/>
      <use xlink:href="#freccia"/>
      <use xlink:href="#selezione_tasto_gialla" transform="translate(0,180.5)"/>
      <use xlink:href="#mascherina"/>
    </g>

    <g id="polaroid_9" transform="translate(2246.016,178)">
      <use xlink:href="#ombra_polaroid"/>
      <use xlink:href="#pagina_nuova"/>
      <use xlink:href="#qr_code"/>
      <use xlink:href="#freccia"/>
      <use xlink:href="#contatti_testo"/>
      <use xlink:href="#selezione_tasto_gialla" transform="translate(0,180.5)"/>
      <use xlink:href="#mascherina"/>
    </g>

    <g id="polaroid_10" transform="translate(2699,178)">
      <use xlink:href="#ombra_polaroid"/>
      <use xlink:href="#pagina_nuova"/>
      <use xlink:href="#qr_code"/>
      <use xlink:href="#freccia"/>
      <use xlink:href="#twitter_testo"/>
      <use xlink:href="#selezione_tasto_gialla" transform="translate(0,180.5)"/>
      <use xlink:href="#mascherina"/>
    </g>
-->

</svg>
